<?xml version="1.0" encoding="UTF-8"?><svg id="Layer_2" xmlns="http://www.w3.org/2000/svg" viewBox="0 0 1006.75 168.54"><defs><style>.cls-1{fill:#003e85;}.cls-2{fill:#efc483;}.cls-3{fill:#ecb7d5;}.cls-4{fill:#b06b97;}.cls-5{fill:#1f8c87;}.cls-6{fill:#1a1818;}.cls-7{fill:#763c34;}</style></defs><g id="Layer_1-2"><rect class="cls-5" x="431.46" y="138.17" width="143.82" height="30.36"/><rect class="cls-4" y="138.17" width="143.82" height="30.36"/><rect class="cls-2" x="575.28" y="138.17" width="143.82" height="30.36"/><rect x="862.92" y="138.17" width="143.82" height="30.36"/><rect class="cls-1" x="287.64" y="138.17" width="143.82" height="30.36"/><rect class="cls-3" x="143.82" y="138.17" width="143.82" height="30.36"/><rect class="cls-7" x="719.1" y="138.17" width="143.82" height="30.36"/><g><path d="M209.43,104.83c-.22,.77-.53,1.47-.93,2.1-.4,.63-.88,1.16-1.43,1.61-.55,.45-1.16,.8-1.83,1.04-.67,.24-1.39,.36-2.16,.36-1.43,0-2.64-.21-3.63-.61-.99-.41-1.8-.98-2.42-1.7-.62-.72-1.07-1.57-1.34-2.55-.28-.98-.41-2.05-.41-3.21,0-1.24,.13-2.38,.38-3.42,.25-1.04,.66-1.94,1.21-2.7,.56-.75,1.27-1.35,2.15-1.77,.87-.43,1.93-.64,3.17-.64,.36,0,.75,.02,1.16,.07,.41,.05,.81,.12,1.21,.23,.4,.1,.78,.24,1.13,.41,.35,.17,.66,.37,.91,.61,.39-.63,.95-1.04,1.67-1.25,.57,1.37,.85,3.27,.85,5.71h-1.65c-.39-1.64-.93-2.81-1.62-3.52-.68-.71-1.6-1.06-2.75-1.06-.8,0-1.45,.18-1.96,.54-.5,.36-.9,.84-1.19,1.42-.29,.59-.49,1.26-.6,2.03-.11,.76-.16,1.54-.16,2.33,0,1.08,.06,2.08,.19,3.02,.13,.93,.35,1.75,.68,2.44s.78,1.24,1.34,1.64,1.29,.6,2.17,.6c1.15,0,2.1-.32,2.85-.96,.75-.64,1.42-1.7,1.98-3.16l1.01,.39Z"/><path d="M287.87,107.21c0,.23-.07,.49-.21,.78-.14,.3-.35,.58-.63,.86-.28,.27-.61,.51-.99,.7-.39,.19-.81,.29-1.29,.29-.97,0-1.69-.15-2.15-.46-.46-.31-.76-.69-.92-1.16-.33-.95-.62-1.81-.87-2.58-.25-.77-.52-1.43-.79-1.99-.28-.55-.59-.98-.94-1.28-.35-.3-.81-.45-1.36-.45-.3,0-.49,.06-.57,.17v5.06c0,.93,.7,1.4,2.1,1.4v1.01h-8.11v-1.01c1.35,0,2.03-.47,2.03-1.4v-11.16c0-.9-.73-1.35-2.19-1.35v-1.06h3.7c.52,0,.96,0,1.32-.01,.36,0,.74-.02,1.13-.04,.39-.02,.85-.03,1.36-.04,.51,0,1.16-.01,1.95-.01s1.52,.1,2.1,.31c.58,.21,1.06,.49,1.43,.86,.37,.36,.64,.79,.8,1.28,.17,.49,.25,1.03,.25,1.6,0,1.09-.41,1.98-1.23,2.67-.82,.68-1.93,1.11-3.33,1.29,.57,.08,1.05,.18,1.46,.29,.41,.11,.75,.26,1.04,.45,.28,.18,.52,.41,.72,.67,.2,.27,.37,.57,.53,.93,.22,.51,.39,1.02,.52,1.53,.13,.51,.26,.96,.39,1.36,.13,.4,.28,.73,.45,.97,.16,.25,.4,.37,.72,.37,.35,0,.61-.37,.8-1.11l.78,.24Zm-9.74-6.48c.42,0,.81-.03,1.14-.08,.34-.06,.63-.19,.87-.39,.24-.2,.43-.5,.57-.91,.13-.4,.2-.95,.2-1.65,0-.56-.07-1.03-.2-1.4-.13-.37-.31-.67-.54-.88-.23-.22-.5-.37-.81-.46-.31-.09-.65-.13-1.01-.13h-.47c-.47,0-.71,.4-.71,1.19v4.48c.05,.16,.17,.24,.38,.24h.59Z"/><path d="M348.63,109.57v-1.01c1.42,0,2.12-.47,2.12-1.4v-10.7c0-1.2-.76-1.81-2.29-1.81v-1.06h13.54l.19,4.72-1.44,.12c-.14-.88-.35-1.56-.61-2.04-.27-.47-.59-.82-.97-1.04s-.81-.35-1.3-.39c-.49-.04-1.03-.06-1.63-.06-.52,0-.92,.08-1.2,.23s-.42,.37-.42,.66v4.22c0,.38,.18,.58,.54,.58s.72-.02,1.04-.07c.31-.05,.59-.16,.84-.33,.24-.17,.44-.42,.6-.76,.16-.34,.26-.8,.31-1.37h1.37v6.43h-1.37c-.05-.55-.13-.99-.24-1.33-.11-.34-.26-.59-.46-.77s-.44-.3-.74-.36c-.3-.06-.66-.1-1.08-.12-.53,.05-.8,.27-.8,.65v4.51c0,.77,.59,1.16,1.77,1.16,.96,0,1.73-.08,2.3-.23,.57-.15,1.04-.39,1.4-.7,.36-.31,.65-.71,.87-1.19,.22-.48,.45-1.06,.68-1.74l1.34,.19-.66,4.99h-13.7Z"/><path d="M432.54,109.57v-.99c.22-.03,.45-.06,.7-.1,.24-.03,.46-.07,.66-.11,.2-.04,.36-.09,.48-.14,.13-.06,.19-.12,.19-.18,0-.08-.02-.17-.06-.28-.04-.1-.08-.22-.13-.35l-1.04-2.94c-.06-.18-.22-.3-.47-.37-.25-.07-.51-.11-.78-.11h-3.44c-.5,0-.81,.16-.92,.48l-.75,2.46c-.03,.08-.06,.17-.07,.27-.02,.1-.02,.2-.02,.31,0,.63,.67,.94,2,.94v1.11h-5.5v-1.11c.88-.06,1.53-.61,1.96-1.64l5.59-13.62,2.19,.31,5.5,14.12c.06,.18,.16,.32,.31,.43,.14,.11,.3,.2,.48,.27,.18,.06,.37,.12,.55,.16,.19,.04,.37,.07,.54,.08v.99h-7.97Zm-1.89-12.41l-1.86,4.6c-.17,.39-.26,.63-.26,.72,0,.13,.24,.19,.73,.19h2.9c.38,0,.57-.03,.57-.1,0-.08-.15-.51-.45-1.3l-1.63-4.12Z"/><path d="M502.03,109.57v-1.01c1.64,0,2.45-.67,2.45-2.02v-10.89c0-.48-.32-.72-.97-.72-.49,0-.91,.08-1.26,.25-.35,.17-.66,.42-.92,.76s-.48,.76-.66,1.27c-.18,.51-.34,1.1-.48,1.77l-1.46-.22,.66-5.35c.41,.06,.86,.11,1.34,.14,.49,.03,.87,.05,1.16,.05h9.32c.35,0,.77-.02,1.27-.05,.5-.03,.96-.08,1.37-.14v5.28l-1.37,.12c-.08-1.27-.34-2.22-.79-2.84s-1.22-.94-2.32-.94c-.68,0-1.01,.21-1.01,.63v10.89c0,1.35,.83,2.02,2.5,2.02v1.01h-8.82Z"/><path d="M575.02,109.57v-1.01c1.46,0,2.19-.49,2.19-1.47v-10.53c0-1.27-.76-1.9-2.29-1.9v-1.06h8.25v1.06c-1.4,0-2.1,.63-2.1,1.9v10.53c0,.98,.74,1.47,2.22,1.47v1.01h-8.28Z"/><path d="M661.68,101.5c0,1.37-.21,2.57-.64,3.61-.42,1.04-1.01,1.92-1.76,2.64-.75,.72-1.63,1.26-2.64,1.63-1.01,.37-2.12,.55-3.31,.55-1.13,0-2.19-.16-3.18-.47s-1.86-.8-2.59-1.47c-.74-.67-1.32-1.52-1.75-2.57-.42-1.04-.64-2.29-.64-3.74s.2-2.72,.61-3.77,.98-1.92,1.71-2.6c.73-.68,1.6-1.18,2.59-1.51,1-.32,2.08-.48,3.24-.48s2.23,.17,3.24,.52c1.01,.35,1.9,.86,2.65,1.54,.75,.68,1.35,1.53,1.79,2.55,.44,1.02,.66,2.2,.66,3.55Zm-8.16,7.23c.83,0,1.52-.18,2.05-.54,.53-.36,.96-.86,1.26-1.5,.31-.64,.52-1.38,.64-2.24,.12-.86,.18-1.78,.18-2.76,0-.92-.06-1.81-.18-2.68s-.34-1.64-.66-2.32c-.32-.68-.77-1.22-1.36-1.63-.58-.41-1.34-.62-2.29-.62-.86,0-1.56,.19-2.08,.58s-.92,.91-1.19,1.56c-.28,.65-.46,1.4-.54,2.24-.09,.85-.13,1.73-.13,2.67,0,1.01,.06,1.96,.19,2.85,.13,.89,.35,1.65,.67,2.31,.32,.65,.76,1.16,1.31,1.53,.55,.37,1.26,.56,2.12,.56Z"/><path d="M736.75,109.86l-10.02-10.77v6.82c0,1.77,.8,2.65,2.41,2.65v1.01h-5.87v-1.01c1.32,0,1.98-.88,1.98-2.65v-10.46c0-.53-.77-.8-2.31-.8v-1.06h4.46l8.84,9.69v-6.19c0-1.62-.79-2.43-2.38-2.43v-1.06h5.85v1.06c-1.43,0-2.15,.81-2.15,2.43v12.56l-.8,.22Z"/><path d="M809.86,98.78c-.13-.64-.28-1.23-.47-1.76-.19-.53-.42-.99-.7-1.37-.28-.39-.59-.68-.94-.89-.35-.21-.75-.31-1.19-.31-.91,0-1.62,.19-2.12,.57s-.75,.87-.75,1.48c0,.43,.09,.79,.26,1.06,.17,.27,.42,.52,.75,.74,.33,.22,.73,.42,1.21,.6s1.02,.4,1.62,.64c.68,.27,1.3,.55,1.86,.82,.57,.27,1.05,.6,1.45,.99,.4,.39,.71,.85,.93,1.4,.22,.55,.33,1.24,.33,2.08s-.13,1.52-.39,2.15c-.26,.63-.63,1.16-1.11,1.61s-1.05,.78-1.72,1.01c-.67,.23-1.4,.35-2.21,.35-.58,0-1.14-.07-1.69-.22-.54-.14-1.02-.4-1.43-.77-.31,.23-.64,.43-.98,.6-.34,.18-.69,.32-1.05,.43-.19-.56-.32-1.13-.4-1.7-.08-.57-.12-1.16-.12-1.77,0-.42,.01-.83,.04-1.23,.02-.4,.07-.81,.13-1.23h1.53c0,.53,.07,1.07,.2,1.61,.13,.55,.35,1.05,.65,1.51,.3,.46,.69,.83,1.17,1.12s1.06,.43,1.73,.43c.61,0,1.13-.07,1.54-.21,.42-.14,.75-.33,1.01-.57,.26-.24,.45-.52,.57-.83s.18-.65,.18-1c0-.56-.14-1.03-.42-1.41-.28-.38-.75-.68-1.39-.9-.96-.34-1.84-.67-2.64-1-.8-.33-1.5-.72-2.09-1.18-.59-.46-1.05-1-1.38-1.63-.33-.63-.5-1.4-.5-2.31,0-.69,.13-1.31,.39-1.87,.26-.55,.61-1.02,1.05-1.41,.44-.39,.96-.68,1.54-.88,.59-.2,1.21-.3,1.87-.3,.58,0,1.14,.11,1.67,.33s.98,.58,1.34,1.1c.17-.32,.42-.59,.75-.8,.33-.21,.66-.36,.99-.46,.24,.77,.38,1.64,.44,2.61,.05,.97,.08,1.89,.08,2.76h-1.63Z"/></g><g><path class="cls-6" d="M327.41,76.84h-31.89v-3.84c.87-.07,2.12-.18,3.76-.32,1.64-.14,2.77-.36,3.38-.65,1.08-.43,1.88-1.09,2.38-1.98,.5-.88,.76-2.03,.76-3.44v-27.35h-36.12v26.75c0,1.26,.21,2.33,.62,3.19,.41,.87,1.24,1.62,2.46,2.27,.61,.32,1.71,.65,3.28,.97,1.57,.32,2.81,.51,3.71,.54v3.84h-31.89v-3.84c.87-.07,2.12-.18,3.76-.32,1.64-.14,2.77-.36,3.38-.65,1.08-.43,1.88-1.09,2.38-1.98,.5-.88,.76-2.03,.76-3.44V11.15c0-1.15-.24-2.21-.7-3.17-.47-.96-1.28-1.71-2.44-2.25-.97-.47-2.16-.88-3.55-1.25-1.39-.36-2.59-.58-3.6-.65V0h31.89V3.84c-1.01,.04-2.25,.2-3.71,.49-1.46,.29-2.55,.56-3.28,.81-1.23,.43-2.05,1.16-2.46,2.17-.42,1.01-.62,2.11-.62,3.3v23.83h36.12V11.15c0-1.15-.24-2.21-.7-3.17-.47-.96-1.28-1.71-2.44-2.25-.97-.47-2.16-.88-3.55-1.25-1.39-.36-2.59-.58-3.6-.65V0h31.89V3.84c-1.01,.04-2.25,.2-3.71,.49-1.46,.29-2.55,.56-3.28,.81-1.23,.43-2.05,1.16-2.46,2.17-.42,1.01-.62,2.11-.62,3.3v55.39c0,1.26,.21,2.33,.62,3.19,.41,.87,1.24,1.62,2.46,2.27,.61,.32,1.71,.65,3.28,.97,1.57,.32,2.81,.51,3.71,.54v3.84Z"/><path class="cls-6" d="M438.79,3.84c-1.01,.04-2.49,.25-4.44,.65-1.95,.4-3.54,.99-4.77,1.79-1.23,.83-2.08,2.55-2.55,5.14-.47,2.6-.7,5.78-.7,9.53V54.37c0,4.26-.88,7.96-2.65,11.1-1.77,3.14-4.1,5.72-6.99,7.74-2.85,1.95-5.86,3.35-9.02,4.2-3.16,.85-6.18,1.27-9.07,1.27-4.62,0-8.74-.6-12.35-1.81-3.61-1.21-6.64-2.84-9.1-4.9-2.42-2.06-4.24-4.41-5.47-7.07-1.23-2.65-1.84-5.42-1.84-8.31V11.15c0-1.26-.21-2.32-.62-3.17-.42-.85-1.25-1.63-2.52-2.36-.9-.5-2.06-.91-3.47-1.22-1.41-.31-2.56-.5-3.47-.57V0h32V3.84c-1.01,.04-2.28,.2-3.82,.49-1.53,.29-2.66,.56-3.38,.81-1.23,.43-2.05,1.15-2.46,2.16-.42,1.01-.62,2.11-.62,3.3V53.03c0,2.06,.22,4.21,.68,6.47,.45,2.25,1.34,4.36,2.68,6.3,1.41,1.98,3.32,3.61,5.74,4.87,2.42,1.26,5.74,1.89,9.96,1.89,3.97,0,7.3-.63,9.99-1.89,2.69-1.26,4.81-2.92,6.36-4.98,1.48-1.95,2.53-3.99,3.14-6.11,.61-2.13,.92-4.27,.92-6.44V21.65c0-4-.29-7.28-.87-9.82-.58-2.54-1.43-4.21-2.55-5.01-1.26-.9-2.99-1.61-5.17-2.11-2.18-.5-3.85-.79-5.01-.87V0h31.41V3.84Z"/><path class="cls-6" d="M560.3,76.84h-33.95v-3.84c1.23-.04,2.81-.16,4.74-.38,1.93-.22,3.26-.52,3.98-.92,1.12-.69,1.94-1.47,2.46-2.36,.52-.88,.79-1.99,.79-3.33V10.13h-.81l-26.21,65.47h-2.71l-24.96-66.82h-.7V54.64c0,4.44,.28,7.82,.84,10.13,.56,2.31,1.42,3.97,2.57,4.98,.79,.76,2.44,1.48,4.93,2.17,2.49,.69,4.12,1.05,4.87,1.08v3.84h-31.03v-3.84c1.62-.14,3.33-.41,5.12-.81,1.79-.4,3.17-.99,4.14-1.79,1.26-1.01,2.13-2.56,2.6-4.66,.47-2.09,.7-5.6,.7-10.5V15.92c0-2.27-.27-4.13-.81-5.58-.54-1.44-1.32-2.62-2.33-3.52-1.12-.97-2.49-1.7-4.12-2.17-1.62-.47-3.23-.74-4.82-.81V0h26.2l22.01,57.68,18.79-48.25c.68-1.77,1.27-3.62,1.76-5.55s.75-3.22,.79-3.87h25.06V3.84c-1.01,.04-2.3,.2-3.87,.49-1.57,.29-2.72,.56-3.44,.81-1.23,.43-2.06,1.16-2.49,2.17-.43,1.01-.65,2.11-.65,3.3v55.39c0,1.26,.22,2.33,.65,3.19s1.26,1.62,2.49,2.27c.65,.36,1.8,.7,3.47,1,1.66,.31,2.98,.48,3.95,.51v3.84Z"/><path class="cls-6" d="M664.37,3.84c-.94,.04-2.08,.24-3.41,.62-1.34,.38-2.44,.84-3.3,1.38-1.23,.76-2.21,1.73-2.95,2.92-.74,1.19-1.47,2.6-2.19,4.22-2.42,5.74-6.05,14.68-10.88,26.83-4.84,12.15-9.82,24.81-14.95,37.99h-4.49c-5.2-13.97-10.22-27.44-15.05-40.4-4.84-12.96-8.12-21.71-9.86-26.26-.43-1.12-1.01-2.1-1.73-2.95-.72-.85-1.68-1.65-2.87-2.41-.98-.61-2.06-1.07-3.25-1.38-1.19-.31-2.29-.5-3.3-.57V0h31.8V3.84c-2.71,.14-4.99,.42-6.85,.81-1.86,.4-2.79,1.1-2.79,2.11,0,.4,.07,.87,.22,1.41,.14,.54,.27,.97,.38,1.3,1.34,3.54,3.5,9.31,6.5,17.31,3,8,7.26,19.39,12.78,34.17,2.74-6.68,5.9-14.58,9.48-23.68,3.57-9.1,5.97-15.35,7.2-18.75,1.19-3.29,1.89-5.56,2.08-6.83,.2-1.26,.3-2.29,.3-3.09s-.37-1.52-1.11-2.08c-.74-.56-1.72-1.04-2.95-1.44-1.19-.36-2.4-.63-3.63-.81-1.23-.18-2.47-.32-3.74-.43V0h28.58V3.84Z"/><path class="cls-6" d="M769.09,3.84c-1.01,.04-2.56,.32-4.66,.87-2.09,.54-3.59,1.1-4.49,1.68-1.3,.9-2.17,2.64-2.63,5.2-.45,2.56-.68,5.81-.68,9.75v56.26h-4.71l-46.57-62.87V54.37c0,4.44,.28,7.85,.84,10.23,.56,2.38,1.42,4.08,2.57,5.09,.83,.79,2.55,1.53,5.14,2.22,2.6,.69,4.31,1.05,5.14,1.08v3.84h-31.51v-3.84c.97-.07,2.62-.42,4.93-1.06,2.31-.63,3.75-1.2,4.33-1.71,1.26-1.01,2.13-2.55,2.6-4.63,.47-2.08,.7-5.62,.7-10.64V17.11c0-1.66-.29-3.32-.87-4.98-.58-1.66-1.35-2.94-2.33-3.84-1.3-1.19-3.06-2.21-5.28-3.06-2.22-.85-4.02-1.31-5.39-1.38V0h21.95l43.19,58.58V22.04c0-4.48-.29-7.91-.87-10.31-.58-2.4-1.41-4-2.49-4.79-1.01-.69-2.66-1.35-4.95-2-2.29-.65-4.03-1.01-5.23-1.08V0h31.24V3.84Z"/></g></g></svg>