<?xml version="1.0" encoding="UTF-8"?><svg id="Layer_2" xmlns="http://www.w3.org/2000/svg" viewBox="0 0 1415.16 247.13"><defs><style>.cls-1{fill:none;}.cls-2,.cls-3,.cls-4,.cls-5,.cls-6,.cls-7,.cls-8{stroke-miterlimit:10;}.cls-2,.cls-3,.cls-5,.cls-7,.cls-8{stroke:#000;}.cls-9{fill:#003e85;}.cls-10{fill:#000100;}.cls-11,.cls-4,.cls-5{fill:#efc483;}.cls-12{fill:#ecb7d5;}.cls-13,.cls-6,.cls-7{fill:#b06b97;}.cls-14{fill:#1f8c87;}.cls-15,.cls-8{fill:#763c34;}.cls-3{fill:#fff;}.cls-4{stroke:#050505;}.cls-6{stroke:#b06b97;}</style></defs><g id="Layer_1-2"><rect class="cls-14" x="606.5" y="204.45" width="202.17" height="42.68"/><rect class="cls-13" y="204.45" width="202.17" height="42.68"/><rect class="cls-11" x="808.66" y="204.45" width="202.17" height="42.68"/><rect x="1212.99" y="204.45" width="202.17" height="42.68"/><rect class="cls-9" x="404.33" y="204.45" width="202.17" height="42.68"/><rect class="cls-12" x="202.17" y="204.45" width="202.17" height="42.68"/><rect class="cls-15" x="1010.83" y="204.45" width="202.17" height="42.68"/><path class="cls-14" d="m759.8,21.34s-.08,0-.13,0h0s0,0,0,0h-.03s-.02.01-.02.01c-.03,0-.05,0-.07,0h-.03s-.03,0-.03,0h-.04s-.02,0-.02,0h-.03s-.02,0-.02,0c-.02,0-.05,0-.07,0h-42.63s-.07,0-.11,0h-.05s-.03,0-.03,0c-.05,0-.1,0-.15,0h-.07s-.05,0-.05,0h-.04s-.03,0-.03,0h-.04s-.04.01-.04.01c-.01,0-.02.01-.03.02h-.02c-.08.07-.14.14-.14.2-.01.09-.02.17-.02.26,0,.05,0,.1,0,.14v.03s0,.05,0,.05v.03s0,.06,0,.06c0,.02,0,.03,0,.05v44.16s0,1.34,0,1.34v.94s0,.91,0,.91v.9s0,.03,0,.03v.23s0,1.67,0,1.67v.68s0,1.15,0,1.15v.14c0,.87,0,1.74,0,2.62v.07c0,3.17,0,5.52-.02,7.63v.45c0,.55,0,1.11-.01,1.66v.39c0,.86,0,1.72.02,3.42v.15s0,.17,0,.17v.16s0,.05,0,.05v.24s0,.09,0,.09v.2s0,.06,0,.06v.25s0,.1,0,.1v.06s0,.04,0,.04v.24s0,.24,0,.24v.15s0,.14,0,.14v.21s0,.16,0,.16v.2s0,.14,0,.14v.19s0,.04,0,.04v.18c0,.96.02,2,.02,3.03v.33c0,3.44-.07,6.17-.21,8.58,0,.15-.01.31-.02.5v.03s0,.13,0,.13v.02s0,.02,0,.02v.06s0,.15,0,.15v.2s0,.04,0,.04v.03s0,.03,0,.03v.31s-.02.31-.02.31v.24s-.02.23-.02.23v.08s0,.05,0,.05v.11s0,.08,0,.08v.08s0,.06,0,.06v.11s-.01.16-.01.16v.03s0,.03,0,.03v.03s-.02.2-.02.2v.03s0,.04,0,.04v.04s0,.03,0,.05v.02s0,.02,0,.02v.04s0,.06-.01.1v.06s-.01.08-.01.08v.12s-.01.03-.01.03c-.03.43-.06.88-.12,1.39-.04.28-.07.55-.14.99v.09s-.01.11-.01.11v.02s0,.07,0,.07v.07s-.01.1-.01.1v.14s-.02.05-.02.05v.06s-.01.09-.01.09v.09s-.02.12-.02.12v.03s0,.02,0,.02v.02s0,.03,0,.03v.09s-.03.09-.03.09l-.02.13v.04s-.01.05-.01.05v.06s-.02.06-.02.06v.06s-.01.02-.01.02v.04s0,.02,0,.02v.07s-.02.03-.02.03l-.02.1-.02.12v.03s-.04.18-.04.18v.04s-.01.03-.01.03v.04s-.02.04-.02.04v.03s-.03.1-.03.1l-.04.15v.04s-.02.03-.02.03v.03s-.01.04-.01.04v.05s-.02.03-.02.03v.05s-.02.03-.02.03v.02s-.01.03-.01.03v.03s-.01.02-.01.02v.05c-.08.3-.12.5-.16.66-.19.83-.43,1.68-.74,2.68-.33,1.1-.72,2.08-1.17,3-.27.54-.53,1.03-.8,1.45-.34.56-.74,1.13-1.19,1.67l-.05.06c-.48.58-.99,1.11-1.52,1.58-.32.28-.65.54-.96.76l-.02.02c-.67.47-1.34.85-2.05,1.15-.06.03-.13.05-.19.08l-.04.02h-.07s0,0,0,0h-.02s0,0,0,0h0s-.03.03-.03.03h-.02s-.03.02-.04.03c-.05.02-.09.04-.14.06-.04.02-.08.03-.14.05-.03.01-.07.02-.1.03l-.08.03h-.04s-.02.02-.03.03l-.13.05-.09.03h-.02s-.2.07-.2.07h-.02s-.19.06-.19.06l-.08.02c-.61.18-1.17.31-1.71.39l-.03.02s-.03,0-.03,0h-.03s-.06.02-.06.02c-.06.02-.13.03-.19.04-.04.01-.07.02-.11.03l-.11.03s-.06.01-.09.02c-.06,0-.12.02-.19.02h-.02s-.02,0-.02,0h-.02s-.04.01-.07.01c-.05,0-.11.02-.16.02-.13.01-.24.02-.34.03-.04,0-.09,0-.13,0h-.07c-.06,0-.13,0-.2,0-.07,0-.14,0-.21,0h-.04s-.03,0-.03,0h-.07c-.08,0-.16,0-.23,0h-.05s-.05,0-.08-.01c-.11,0-.22-.02-.32-.03h-.05s-.05-.01-.05-.01h-.09s-.03-.02-.03-.02h-.05s-.03-.01-.03-.01c-.93-.14-1.77-.33-2.57-.58-.5-.16-.98-.33-1.41-.52-1.71-.73-3.22-1.9-4.6-3.57-.45-.55-.87-1.14-1.24-1.74-.22-.36-.42-.72-.6-1.07-.44-.85-.83-1.79-1.15-2.78-.03-.1-.07-.2-.1-.3v-.04c-.03-.06-.05-.12-.07-.19-.16-.52-.31-1.01-.43-1.47-.15-.54-.27-1.03-.37-1.49l-.03-.11c-.11-.5-.21-1.07-.3-1.68v-.03c-.01-.07-.02-.14-.03-.2l-.03-.22c-.03-.23-.07-.46-.1-.7v-.1s-.02-.02-.02-.02v-.03s-.01-.04-.01-.04v-.03s-.01-.06-.01-.06l-.02-.16c-.06-.39-.11-.73-.15-1.08-.02-.16-.04-.32-.05-.46v-.03s0-.03,0-.03v-.04s0-.03,0-.03v-.03s-.01-.05-.01-.05v-.05s-.01-.04-.01-.04v-.05s0-.03,0-.03l-.02-.2c-.03-.24-.05-.49-.08-.75v-.11c-.01-.06-.02-.11-.02-.17l-.02-.28-.02-.34v-.17s-.02-.1-.02-.1v-.07s0-.05,0-.05v-.06c0-.06,0-.12-.01-.17v-.13c0-.12-.01-.24-.02-.36v-.04s0-.04,0-.04v-.09s0-.08,0-.08v-.06s0-.07,0-.07v-.14s-.01-.1-.01-.1c0-.14-.01-.28-.02-.46,0-.05,0-.1,0-.16v-.03s0-.03,0-.04v-.06s0-.02,0-.04c0-.11,0-.22,0-.33v-.17s0-.12,0-.12v-.08s0-.09,0-.09v-.09s0-.04,0-.04v-.04s0-.15,0-.15v-.05s0-.06,0-.06c0-.07,0-.15,0-.22v-.03s0,0,0,0c0,0,0,0,0-.01h0c-.1-2.19-.16-4.49-.16-7.26v-.22s0-.16,0-.16c0-.79,0-1.56,0-2.29v-.27s0-.23,0-.23v-.33s0-.07,0-.07v-.23s0-.37,0-.37v-.1s0-.24,0-.24v-.15s0-.14,0-.14v-.15s0-.24,0-.24v-.08s0-.03,0-.03v-.1s0-.24,0-.24v-.06s0-.12,0-.12v-.23s0-.23,0-.23v-.17s0-.35,0-.35v-.24s0-.29,0-.29v-.33c.01-.63.01-1.43.01-2.6v-.09c0-.65,0-1.31,0-1.96-.02-3.06-.03-5.41-.03-7.59v-.52c0-1.66,0-3.35,0-5.11v-1.18s0-.11,0-.11v-.11c0-2.13,0-4.27,0-6.4V22.25s0-.1,0-.15v-.05s0-.05,0-.05v-.04s0-.06,0-.06c0-.1,0-.16-.01-.21,0-.02,0-.04-.01-.08,0,0,0-.02-.02-.05-.01-.02-.03-.03-.04-.05-.02-.02-.03-.04-.06-.06-.02-.02-.04-.03-.06-.04h-.03c-.06-.02-.11-.02-.18-.02-.02,0-.05,0-.08,0h-.03s-.09,0-.15,0h-.05c-.05,0-.1,0-.15,0h-42.68s-.03,0-.03,0c-.04,0-.07,0-.11,0s-.07,0-.13-.01h-.04c-.05-.01-.1-.02-.15-.02-.08,0-.14,0-.19.03-.04.02-.08.05-.1.08-.05.05-.07.13-.07.26,0,.09,0,.15.03.2v.07s0,.05,0,.05c0,.03,0,.06,0,.09v.03s0,.05,0,.05v.06s0,16.64,0,16.64v16.22s0,.25,0,.25v3.28c0,15.25,0,34.82.03,50.95,0,2.3.06,4.04.19,5.65.02.22.03.44.04.66,0,.12.01.24.02.36v.09s0,.09,0,.09v.04s0,.12,0,.12v.03s0,.03,0,.03v.08s0,.06,0,.06v.06s0,.06,0,.06v.03s0,.03,0,.03v.05s0,.06,0,.06v.02c.01.31.03.63.05.94v.07s.03.39.03.39c.03.44.06.9.1,1.37.08.96.15,1.8.24,2.56,0,.09.02.18.03.28.04.32.09.65.14,1.01v.07s0,.05,0,.05c0,.05,0,.11.01.16.01.14.02.28.04.43v.05s0,.03,0,.03c0,.04,0,.08,0,.13,0,.01,0,.03,0,.04l.02.02v.02s0,.02,0,.02c0,0,0,.02,0,.03,0,0,0,.02,0,.03v.03s0,.01,0,.02v.03s0,.02,0,.02v.03s0,.02,0,.02c0,.01,0,.02,0,.03v.02s0,.03,0,.03v.02s0,.02,0,.02c0,.03,0,.05,0,.08v.02s0,.05,0,.05c0,0,0,.02,0,.02v.02s0,.01,0,.02c0,0,0,0,0,.02,0,0,0,.02,0,.02v.04s0,.02,0,.02v.04s0,.02,0,.04v.03s0,.02,0,.02v.02s.03.14.03.14v.07s.03.22.03.22l.03.26v.07c.01.06.02.11.03.17l.04.29v.07s.06.4.06.4v.05c.01.06.02.12.03.19l.05.34.06.4.03.22v.07c.02.07.03.13.04.2.01.06.02.13.03.19v.11s.03.1.03.1v.05s.02.08.02.12l.02.14.03.16v.02s0,.03,0,.03l.05.28v.02s.09.49.09.49c0,.02,0,.04.01.08v.04s.03.11.03.11l.02.12.04.15v.02s0,.03,0,.03v.07s.03.12.03.12v.03s.01.05.01.05v.08c.03.08.04.16.06.24l.04.2.04.2.02.12v.05s.02.02.02.02l.07.34.02.12.03.15v.03s.02.06.02.06l.09.39v.05s.02.07.02.07l.02.08.04.16.02.05c.03.17.06.35.09.54v.02c.04.24.1.5.17.85.03.14.06.27.09.4l.02.09.02.08v.03s.01.02.01.02c.09.44.19.86.31,1.3v.06s.03.05.03.05v.02s.08.25.08.25v.02s0,.02,0,.02l.03.1.03.1.02.05.05.17.03.09.02.08.02.07v.02c.22.77.45,1.58.7,2.43l.05.17c.51,1.72,1.01,3.26,1.53,4.7l.03.09v.04s.02.02.02.02l.03.09.02.07c.07.2.16.43.25.67.1.27.2.5.29.72.06.13.11.26.17.39l.31.69.02.05v.02s.28.61.28.61c.23.52.51,1.14.82,1.79.22.47.43.88.63,1.27.52.99,1.02,1.91,1.5,2.72.96,1.63,2.03,3.25,3.18,4.82,2.24,3.04,4.79,5.54,6.75,7.38l.05.05c.43.4.88.78,1.37,1.18.4.32.82.64,1.31,1h.02s.06.06.06.06l.38.28.13.1.3.23s.02,0,.02.02l.1.05v.02s.07.02.07.02l.29.22.05.03.13.11.25.16c.27.21.68.51,1.28.92.35.24.75.5,1.29.86l.12.08.25.16.07.04.14.09.12.08.2.13c.7.45,1.46.85,2.03,1.14l.47.24.16.08.16.08.05.02.03.02.12.06.23.12.13.07c1,.5,1.77.89,2.57,1.27.23.11.45.21.69.32,1.08.49,2.11.91,3.13,1.3.67.25,1.38.5,2.09.73.27.09.54.17.81.25.86.25,1.68.49,2.57.75.76.22,1.39.39,1.94.55l.19.05.19.05c.55.15.98.26,1.36.36.11.03.24.06.37.09.22.05.45.09.69.13l.27.06h.06s.06.03.06.03h.02s.02,0,.02,0l.08.02h.02s.02.01.02.01h.04s.02.01.02.01h.02s.03.01.03.01h.02s.03.01.03.01l.07.02.25.06.35.08h.04s.06.02.06.02h.04s.21.05.21.05l.19.04h.09s.02.02.02.02h.03s.03.01.03.01l.09.02.09.02.19.04h.02s.03.01.03.01l.08.02.08.02.1.02h.04s.03.01.03.01h.02s.03.01.03.01h.03s.03.01.03.01h.02s.04.01.04.01l.2.04.19.04h.05s.02.01.02.01h.05s.05.02.05.02h.03s.15.03.15.03h.03s.18.03.18.03h.08s.04.02.04.02h.02s.05.01.05.01h.04s.18.03.18.03l.18.03h.08s.07.02.07.02h.03s.02,0,.02,0l.36.04h.06s.04.01.04.01h.02s.08.01.12.02l.15.02.17.02.15.02h.04s.02,0,.02,0h.03s.03,0,.03,0l.17.02h.14s.14.02.14.02h.14s.06.02.06.02h.1s.12.02.12.02h.08s.08.01.08.01h.06s.06.01.06.01h.05c.05.01.1.02.16.02h.07s.08.01.08.01h.13s.05.01.05.01l.16.02h.03s.1.01.1.01h.06s.06.01.06.01c.03,0,.05,0,.08,0l.21.02h.18s.09.02.14.02h.03s.05,0,.05,0h.07s.05,0,.05,0c.07,0,.14,0,.2,0h.06s.09,0,.14,0c.46.06,1.02.06,1.45.06h.13s.05,0,.05,0h.04c.08,0,.16,0,.24,0h.02s.04,0,.04,0h.16c.15,0,.3,0,.46,0,.08,0,.16,0,.24-.01h.03s.04,0,.04,0h.08s.09-.01.09-.01c.4,0,.73-.02,1.05-.06h.17s.05,0,.05,0h.02s.06,0,.06,0h.1s.09-.01.09-.01h.04s.05,0,.05,0h.07s.04,0,.04,0h.12s.02,0,.02,0h.05s.03,0,.03,0h.18s.11-.02.11-.02c.05,0,.1,0,.15-.01h.09s.08-.01.08-.01h.03s.05,0,.05,0h.04s.11-.01.11-.01h.08c.07,0,.15-.02.23-.02h.01s.02,0,.02,0c.06,0,.13-.01.22-.02h.02s.05,0,.05,0c.01,0,.02,0,.03,0h0s0-.01,0-.01h0s0,0,0,0h0s.02-.02.02-.02h.03s.05,0,.05,0h.11s.07-.02.07-.02l.14-.02.14-.02h.11s.16-.03.16-.03h.08s.04-.02.04-.02h.1s.04-.02.04-.02h.15c.18-.03.36-.04.55-.06h.02s.06,0,.1-.01h.02s.04,0,.04,0h.11s.02-.01.02-.01h.08s.03-.01.03-.01h.06s.06-.01.06-.01l.15-.02h.08s.11-.02.11-.02h.02c.1-.01.19-.02.29-.04.12-.02.23-.03.35-.05h.06s.06-.02.06-.02h.06s.06-.02.09-.03h.03s.02,0,.02,0l.18-.04c.09-.01.17-.03.26-.04h.02c.11-.02.22-.04.33-.06h.08s.08-.02.08-.02h.03s.05-.02.05-.02c.04,0,.08-.01.14-.02h.04s.05-.02.05-.02l.15-.02s.07-.01.1-.02h.07c.06-.02.12-.04.2-.05l.14-.03s.04,0,.07-.01h.06s.08-.02.08-.02l.15-.03h.06s.07-.03.07-.03l.21-.05.12-.03h.02s.07-.02.07-.02h.02s.04-.01.04-.01h.04s.02-.02.02-.02l.1-.02h.06s.04-.02.04-.02h.02s.02,0,.02,0h.03s.05-.02.05-.02c.16-.04.33-.08.49-.12l.12-.03h.05s.08-.04.12-.05h.03s.02-.01.02-.01l.07-.02.07-.02h.05s.03-.02.03-.02c.65-.17,1.24-.33,1.79-.48.54-.15,1.09-.3,1.68-.47l.25-.07.3-.09c.36-.1.72-.21,1.1-.32l.23-.07.89-.26c1.04-.31,2.14-.68,3.35-1.15.6-.24,1.24-.5,1.89-.77.26-.11.53-.23.8-.35.27-.13.57-.26.94-.44.59-.28,1.37-.67,2.32-1.15h.02s.04-.03.04-.03l.04-.02h.03s.04-.03.04-.03h.03s.06-.04.06-.04l.06-.03h.03s.03-.03.03-.03h.02s.04-.03.04-.03l.05-.02.05-.02.04-.02.08-.04.7-.36c.63-.32,1.36-.71,2.03-1.14l.03-.02c.31-.2.78-.5,1.27-.82l.41-.27.08-.05.04-.03c.2-.14.39-.27.58-.39.15-.1.3-.21.45-.31.21-.15.43-.31.65-.47l.18-.13.26-.19.19-.14.21-.15.03-.02.03-.02.03-.02.08-.06.09-.07.1-.07.07-.05.07-.05c.39-.29.65-.48.92-.69.98-.74,1.7-1.33,2.26-1.87.44-.41.74-.69.97-.93,1.89-1.82,3.44-3.49,4.73-5.1.36-.45.71-.9,1.05-1.36,1.73-2.34,3.3-4.88,4.68-7.55.33-.64.63-1.26.95-1.97.23-.5.45-1,.66-1.46l.02-.04.08-.18.02-.04v-.03s.03-.03.03-.03l.3-.68c.04-.08.07-.17.11-.25.17-.41.37-.9.57-1.47v-.02s.02-.03.02-.03v-.02s.02-.03.02-.03l.02-.04v-.02s.02-.03.02-.03v-.03s.02-.03.02-.03v-.02s.04-.09.04-.09c.88-2.43,1.61-4.94,2.27-7.28l.06-.2.15-.53.02-.08.02-.08.02-.08.05-.17c.03-.11.06-.23.09-.35l.03-.12v-.04s.03-.1.03-.1c.05-.19.1-.4.15-.63l.1-.43.03-.12.06-.28.05-.18c.17-.67.31-1.37.42-1.97v-.03c.03-.12.05-.24.07-.36v-.07s.05-.19.05-.19c.01-.07.02-.14.04-.22l.02-.12c.01-.09.03-.18.04-.27v-.06s.08-.54.08-.54l.02-.11.02-.14c.03-.18.06-.37.09-.55l.02-.13c.04-.22.09-.44.12-.66.01-.07.03-.15.04-.23v-.02c.03-.13.05-.26.07-.39.04-.22.07-.45.1-.67v-.04s.01-.04.01-.04c.06-.33.11-.76.17-1.31.02-.19.05-.38.07-.57v-.08s.02-.08.02-.08v-.1s.02-.08.03-.13c.05-.33.1-.77.15-1.35.03-.26.05-.52.08-.88.06-.45.1-.74.13-.99.17-1.54.27-2.95.36-4.26v-.03s0-.03,0-.03c.04-.48.05-.93.06-1.34v-.05s0-.02,0-.02v-.02s0-.06,0-.06v-.04s0-.04,0-.04v-.14c.02-.24.03-.52.04-.8l.03-.37c.12-1.6.18-3.28.19-5.44v-2.41s.01-3.38.01-3.38c0-5.85.02-12.9.02-21.64v-3.14s0-4.52,0-4.52v-.17s0-.06,0-.06v-.21s0-.05,0-.05v-1.14s0-.07,0-.07v-.08s0-.04,0-.04v-.04s0-.04,0-.04v-.06s0-.03,0-.03c0-.03,0-.06,0-.09,0-.06,0-.12,0-.18,0-.03,0-.06,0-.1v-.03c0-.09,0-.17,0-.26v-.07s0-.07,0-.07v-.02s0-.03,0-.05c0-.01,0-.02,0-.03,0-2.18.01-4.53.01-6.6v-6.96c0-5.53,0-11.02,0-16.47v-1.84s0-1.09,0-1.09v-16.64s0-.07,0-.13v-.04s0-.03,0-.03v-.03s0-.03,0-.03v-.06s.01-.02.01-.02c.01-.09.02-.14.02-.19v-.03c0-.12-.02-.2-.07-.25-.02-.03-.04-.05-.07-.06-.02,0-.03-.01-.05-.02-.04-.01-.1-.02-.18-.02h-.03Z"/><path class="cls-10" d="m760.88,19.44h0c-7.35.02-14.52.02-30.06.02h-6.69s-4.49,0-4.49,0h-4.49q-1.21,0-1.21,1.17v19.58s0,2.12,0,2.12v3.69c0,24.67,0,41.66-.01,55.5,0,.17,0,.35,0,.52v.21s0,.12,0,.12v.12s0,.04,0,.04v.02c.01.73.03,1.55-.03,2.38,0,.22,0,.37-.02.5,0,.08,0,.16-.02.24,0,.05,0,.1,0,.16v.09s0,.09,0,.09v.16s0,.1,0,.14v.04s0,.12,0,.12v.28s-.02.09-.02.14v.02s0,.02,0,.02c0,.01,0,.03,0,.04v.03s0,.04,0,.06c0,.05,0,.1,0,.14,0,.03,0,.05,0,.08v.05s0,.07,0,.07v.07s0,.06,0,.06c0,.08,0,.16-.01.24v.02s0,.02,0,.02v.09s0,.02,0,.03v.02s0,.08,0,.08v.08c0,.05-.01.11-.02.16v.23s-.02.2-.02.2v.05s0,.04,0,.04c0,.03,0,.06,0,.1l-.02.25v.13s-.02.19-.02.19c0,.02,0,.03,0,.05l-.02.17-.02.17v.11s-.02.11-.02.11v.09s0,.02-.01.02v.05s-.02.08-.02.08v.09s-.03.15-.03.15v.11s.04-.09.04-.09l-.03.1-.02.11v.07s-.01.06-.01.06v.05s-.01.06-.01.06v.12s-.02.1-.02.1v.09s-.02.1-.02.1l-.04.26c-.01.08-.02.16-.03.23v.1s-.03.1-.03.1l-.02.12v.04c-.02.06-.03.12-.04.19l-.02.16-.02.16c-.02.14-.04.29-.06.43l-.03.21-.05.35c-.01.09-.02.17-.03.26v.05s-.02.1-.02.1h.03s-.04.03-.04.03l-.05.23v.05s-.02.07-.02.07v.03s-.01.05-.01.08l-.04.2-.02.13v.02s-.01.03-.01.03v.04s-.01.03-.01.03v.08s-.04.11-.04.11l-.04.24-.07.37v.06s-.02.06-.02.06l-.02.1-.03.15v.06s-.02.04-.02.04l-.07.3c-.26,1.33-.74,2.68-1.54,4.4-.99,2.09-2.25,3.66-3.85,4.79-1.59,1.11-3.38,1.79-5.31,2.01h-.03s-.03,0-.03,0c-.05,0-.1.02-.15.02h-.07c-.15.04-.28.05-.4.06-.07,0-.15,0-.22.01h-.08s-.03,0-.03,0c-.03,0-.05,0-.07,0-.03,0-.05,0-.07,0h-.04s0,.03,0,.03c0-.01,0-.02-.02-.02-.02,0-.03,0-.05,0-.03,0-.06,0-.09,0-.03,0-.06,0-.08,0h-.02s-.07,0-.07,0h-.06c-.12-.02-.26-.04-.38-.06-2.02-.19-3.89-.88-5.55-2.04-1.6-1.14-2.86-2.71-3.85-4.8-.77-1.67-1.24-2.98-1.5-4.26-.03-.09-.06-.18-.1-.31l-.08-.3v-.04s0-.04,0-.04l-.05-.12v-.07s-.04-.16-.04-.16l-.02-.11-.03-.09v-.13s-.03-.12-.03-.12l-.03-.12-.02-.05h0s-.02-.17-.02-.17l-.03-.18s-.01-.04-.01-.05v-.08s-.02-.06-.02-.06v-.06c-.02-.07-.03-.14-.04-.2v-.04s-.08-.23-.08-.23v-.04s0-.04,0-.04c0-.03-.01-.06-.02-.09l-.02-.06-.03-.09v-.02s.01,0,0-.04v-.02s0-.04,0-.06l-.07-.36v-.02s0-.05-.01-.07v-.03s-.01-.04-.01-.04v-.07s-.03-.09-.03-.09v-.09s-.04-.09-.04-.09c-.04-.18-.06-.38-.07-.61v-.1s-.02-.02-.02-.02c0-.07-.02-.13-.02-.2,0-.06-.01-.12-.02-.18v-.07c-.02-.1-.03-.19-.03-.29v-.09s-.01-.09-.01-.09v-.16c-.02-.06-.02-.12-.03-.18v-.07s0-.03,0-.03c0-.08,0-.14-.01-.21l-.03-.44v-.22s-.02-.05-.02-.05v-.05s-.02-.19-.02-.19v-.17s-.02-.08-.02-.08l-.03-.35v-.02s0-.02,0-.02v-.21s-.02-.11-.02-.11v-.1s-.01-.05-.01-.08v-.03s0-.03,0-.03v-.03s0-.09,0-.13v-.09s0-.09,0-.09v-.09s0-.03,0-.03v-.05s0-.03,0-.03c0-.12,0-.24-.01-.36v-.14s0-.04,0-.04v-.13s0-.05,0-.05v-.04c0-.05,0-.11,0-.16v-.04c0-.08,0-.15-.01-.22v-.06s0-.06,0-.06v-.04s0-.09,0-.09v-.08s0-.1,0-.1v-.13s-.01-.19-.01-.19c0-.08,0-.16,0-.24v-.09c-.11-.98-.11-1.88-.1-2.76v-.07s0-.1,0-.1v-.02s0-.03,0-.03c0-.42.01-.72.01-1-.02-20.91-.02-40.43-.01-65.73v-15.16q0-1.17-1.21-1.17h-15.7c-14.7,0-21.4,0-30.02-.02-.42,0-.72.09-.93.29-.2.21-.29.5-.29.92.02,26.31.02,53.05.02,78.92v7.95s0,0,.02,0c-.02.12-.02.23-.02.34,0,.12,0,.24,0,.36,0,.21,0,.43,0,.64,0,.08,0,.16,0,.25v.09s0,.03,0,.03v.27c0,.06,0,.11.01.17v.07s0,.07,0,.07v.12c.01.08.02.16.02.24v.05s.01.1.01.1v.03s0,.12,0,.12c0,.07,0,.13,0,.2v.1c0,.09,0,.18,0,.28,0,.23,0,.46,0,.68,0,.08,0,.15,0,.23v.03s0,.05,0,.08v.07c0,.18,0,.35,0,.53v.21s0,.21,0,.21v.05s0,.05,0,.05v.05s0,.05,0,.05v.05s0,.2,0,.2v.2c0,.06,0,.11.01.17v.1s.01.19.01.19v.17s.01.06.01.09v.12s.02.12.02.12v.07s0,.07,0,.07v.07s0,.07,0,.07l.02.27v.14s.02.07.02.07v.04s0,.04,0,.04v.04s0,.04,0,.04v.09s0,.09,0,.09v.08s.01.13.01.13v.13s.01.13.01.13v.02s0,.05,0,.05v.14s.02.08.02.08l.02.21v.04s0,.04,0,.04v.13c.02.1.03.19.04.29v.13s.03.13.03.13v.03c0,.1,0,.21,0,.31.11,1.44.23,2.91.36,4.36.06.51.13,1.14.23,1.99v.08s.01.03.01.03v.06s.02.08.02.08v.04s.01.05.01.05v.04s0,.03,0,.03v.09s.02.04.02.04l.06.45c.04.32.08.63.12.95v.06s.01.02.01.02v.06s.03.04.03.04v.02s0,.05,0,.05v.02s0,.05,0,.05v.06s.02.05.02.05v.04c.14,1.06.26,1.93.37,2.65.3,1.76.59,3.46.91,4.84.2.83.44,1.78.72,2.75v.05s.02.03.02.03v.05s.03.07.03.07v.04s.02.03.02.03l.02.04v.04s.02.03.02.03v.07s.03.04.03.04v.02s.01.02.01.02v.03s0,.02,0,.02v.03s.01.02.01.02v.03s.02.04.02.04c.16.62.44,1.65.63,2.54.33,1.44.78,2.73,1.21,3.98l.02.05.08.22.03.09v.03s.1.27.1.27c.09.25.17.5.26.75.37,1.15.83,2.21,1.19,3l.24.55.12.28v.02s.03.04.03.04v.02s.02.02.02.02c.5,1.16,1.06,2.47,1.81,3.87.96,1.83,2.03,3.76,3.33,5.57l.02-.02.04.09.06.11v.02s.04.04.05.06l.11.18.11.17s.04.07.07.1l.02.02v.02s.02.02.02.02l.04.06.05.07.08.12h0s.04.08.04.08l.08.12.14.19.12.17.08.11s.03.05.05.07l.07.09.07.09.1.14.1.14c.05.08.11.15.16.23l.04.05.04.06.08.11v.02s.05.05.05.05l.23.3.02.02.02.02.02.03s.07.09.1.13l.26.32.05.06.03.04s.04.05.07.08l.12.14.05.06.11.13c.05.06.1.11.14.17l.15.17.15.17.11.12.05.05c.09.1.19.21.28.31l.07.07.04.04c.07.08.14.15.2.23.03.03.05.06.08.08l.17.18c.06.06.12.12.18.18l.14.15.14.15.04.04.02.02.09.08.08.08.03.03.03.03.03.03.05.05.05.05.05.05c.06.06.12.12.18.17.05.04.09.08.14.12v-.03s-.01-.02-.01-.02c.36.43.77.86,1.29,1.33,1.76,1.57,3.86,3.38,6.11,4.92,1.95,1.37,3.96,2.62,5.99,3.72,2.28,1.26,4.77,2.39,7.61,3.44,2.81,1.05,5.49,1.88,8.18,2.51l.57.14h.05s.03.02.03.02h.06s.11.04.11.04h.03s.06.02.06.02h.05s.04.02.04.02h.03s.02.01.02.01c.39.09.99.24,1.54.35,0-.02-.02-.03-.03-.04l.06.03.09.02.1.03h.04s.06.03.08.03h.04s.05.02.05.02c.1.03.21.05.31.07h.02s.05.02.05.02l.1.02.08.02.15.03.15.03h.04s.04.01.04.01h.05s.09.02.09.02l.09.02c.07.02.15.03.23.05h.05s.06.03.06.03c.2.05.4.09.65.14.29.05.59.1.92.14l.12.02h.03s.03,0,.03,0c.02,0,.04,0,.06,0h.05s.07.02.11.02c.11.01.22.03.33.04.06,0,.12.01.17.02.03,0,.07,0,.1,0h.07s.07.01.07.01v-.02s.04.04.04.04h.03s.25.03.25.03l.24.02.42.03.4.03.24.02.23.02h.06s.02,0,.02,0h.05s.07,0,.07,0c.07,0,.14,0,.2.02h.15s.04.01.04.01h.11s.03,0,.03,0l.4.03.4.02c.17.01.33.02.5.03l.34.02.36.02h.19s.19.02.19.02h.08s.07,0,.07,0h.22s.22.01.22.01h.21s.22.01.22.01h.09s.03,0,.03,0h.04s.43,0,.43,0h.43s.05,0,.05,0h.1s.22,0,.22,0h.22s.15,0,.15,0h.15s.14,0,.14,0c.05,0,.1,0,.15,0h.14s1.17-.05,1.17-.05h.18s.04,0,.04,0l.26-.02.25-.02h.02s.04,0,.04,0c.14-.01.28-.03.41-.04.11-.01.19-.02.27-.03v-.02s.03,0,.03,0h.06s.06,0,.09,0h.12s.06-.01.06-.01c.07,0,.14-.01.21-.02h.09c.11-.02.23-.03.34-.04.11-.01.22-.02.33-.03.06,0,.11-.01.17-.02.05,0,.09-.01.14-.02.21-.03.42-.05.62-.08l.18-.03.18-.03s.07-.01.1-.02h.04c.14-.02.28-.05.41-.07.23-.04.45-.07.68-.11h.02s.03,0,.03,0h.05s.09-.02.09-.02c.05,0,.11-.02.16-.02.12-.02.23-.04.35-.06l.21-.04.1-.02c.06-.01.12-.02.19-.04h.05s.07-.02.07-.02l.09-.02.08-.02.08-.02h.04c.07-.03.14-.04.21-.06l-.02-.02h.02c1.17-.15,2.21-.4,3.2-.64h.05s.06-.02.06-.02l.05-.02h.03s.17-.04.17-.04l.45-.12c2.73-.64,5.4-1.46,8.18-2.51,2.85-1.05,5.34-2.17,7.62-3.43,2-1.09,4.02-2.34,5.99-3.72,2.28-1.57,4.37-3.37,6.11-4.93.84-.77,1.61-1.6,2.23-2.27l.08-.08.04-.05.04-.04c.43-.48.71-.78,1.04-1.13h.01s0-.02.01-.02l.02-.02s.06-.06.08-.08l.54-.72.31-.42.03-.07.04-.03.03-.04.02-.04.04-.03.03-.04.02-.04h.02s.03-.06.03-.06c.62-.83,1.2-1.59,1.62-2.13,1.49-1.91,2.66-3.96,3.97-6.44.73-1.36,1.27-2.61,1.8-3.83v-.02s.02-.03.02-.03l.02-.05.02-.05.12-.28.24-.56c.35-.78.8-1.81,1.17-2.96v-.03s.02-.03.02-.03v-.02s.03-.06.04-.09l.05-.15.05-.15v-.02s.14-.38.14-.38v-.04s.02-.03.02-.03c0-.03.02-.05.03-.08l.24-.73v-.03s.03-.04.03-.04v-.03s.06-.11.06-.11c.02-.04.03-.06.04-.09l.07-.17.07-.17v-.03s.02-.03.02-.03l.02-.05.05-.14.03-.09.03-.09v-.02s.02-.03.02-.05l.06-.19.06-.17v-.03s.02-.03.02-.03l.05-.15v-.04s.02-.03.02-.03v-.03c.04-.09.07-.19.1-.28v-.03s.02-.03.02-.03v-.03c.03-.06.04-.11.06-.16l.19-.61v-.02s.02-.04.02-.04c.01-.04.02-.08.03-.11v-.02s.02-.04.02-.04l.06-.21.06-.21v-.02s.02-.04.02-.04c.01-.04.02-.08.03-.12v-.05s.1-.31.1-.31l.04-.16.04-.16v-.02s.04-.11.04-.11l.02-.07.04-.16.03-.13.08-.3.04-.17.08-.3.05-.21.03-.11.03-.11v-.02s.02-.07.02-.07l.02-.09v-.03s.01-.02.01-.02v-.05s.02-.04.02-.04l.02-.06.19-.73v-.05c.03-.07.05-.13.07-.2l.02-.06.02-.06.04-.15.04-.17.04-.17.02-.1v-.04s.04-.14.04-.14l.08-.35.05-.2v-.04s.02-.05.02-.05l.02-.08.02-.11.04-.22.03-.17v-.05s.03-.14.03-.14v-.05s.03-.13.03-.13l.04-.23.03-.16v-.07s.02-.09.02-.09l.02-.1.02-.12.02-.11.02-.11c.19-1,.38-2.08.62-3.49.08-.57.19-1.37.33-2.37v-.06s.02-.08.02-.08v-.1s.02-.04.02-.04v-.08s.02-.04.02-.04v-.03s0-.04,0-.04v-.02s0-.04,0-.04v-.03s0-.02,0-.02v-.08c.05-.35.09-.68.14-1.01l.06-.45v-.06s.01-.04.01-.04v-.03s.02-.1.02-.1v-.05s.01-.05.01-.05v-.05s.01-.05.01-.05v-.06s.02-.08.02-.08v-.07s.02-.12.02-.12v-.11c.08-.6.15-1.15.21-1.68.04-.4.07-.8.11-1.2v-.04s.01-.04.01-.04v-.05s.01-.06.01-.06v-.02s0-.03,0-.03l.04-.43.02-.16.02-.17.02-.17.02-.24c.02-.18.03-.36.05-.55v-.08s.01-.07.01-.07l.02-.21.02-.21v-.14s.02-.06.02-.06v-.06s0-.04,0-.04v-.05c0-.06.01-.11.01-.16l.02-.35v-.09s.02-.12.02-.12v-.12s.03-.18.03-.18l.02-.19v-.07s.01-.06.01-.06l.03-.33.02-.33v-.06s0-.06,0-.06c0-.08,0-.15.01-.23v-.12s.01-.1.01-.1v-.08s.01-.1.01-.1v-.08s0-.08,0-.08l.02-.32.02-.32v-.1s0-.06,0-.06v-.19s0-.19,0-.19v-.11s0-.11,0-.11v-.15s0-.08,0-.08v-.13s.01-.17.01-.17v-.04s0-.07,0-.07v-.04s0-.04,0-.04l.02-.23v-.22s.02-.08.02-.08v-.05s0-.03,0-.03v-.08s0-.02,0-.02l.02-.46v-.24s.02-.05.02-.05c0-.03,0-.05,0-.08v-.03s0-.21,0-.21v-.2s0-.07,0-.07v-.27s0-.04,0-.04v-.04s0-.04,0-.04v-.06s0-.05,0-.05v-.14s0-.09,0-.09v-.13s0-.02,0-.02v-.23s0-.29,0-.29v-.3s0-.05,0-.05c0-.03,0-.06,0-.09v-.23s-.02-.18-.02-.18v-.18s-.02-.37-.02-.37v-.12s0-.12,0-.12v-.02s0-8.48,0-8.48c0-25.86,0-52.59.02-78.89,0-.42-.09-.72-.29-.93-.21-.2-.5-.29-.92-.29h0Zm-1.21,1.91c.05,0,.09,0,.13,0h.03c.07,0,.13,0,.18.02.02,0,.03.01.05.02.02.01.04.03.07.06.05.05.07.13.07.25v.03c0,.05,0,.1-.02.19v.02s-.01.06-.01.06v.06s0,.03,0,.03v.04c0,.06,0,.1,0,.13v16.64s0,1.09,0,1.09v.89s0,.41,0,.41v.54c0,5.45,0,10.94,0,16.47v6.96c0,2.07,0,4.42-.01,6.6,0,.01,0,.02,0,.03,0,.02,0,.03,0,.05v.02s0,.07,0,.07v.07c0,.09,0,.17.01.26v.03s0,.07,0,.1c0,.06,0,.12,0,.18,0,.03,0,.06,0,.09v.03s0,.06,0,.06v.04s0,.04,0,.04v.04s0,.08,0,.08v.07s0,1.09,0,1.09v.31s0,.06,0,.06v.17s0,4.52,0,4.52v3.14c-.01,8.74-.02,15.79-.03,21.64v3.38s-.01,2.2-.01,2.2v.21c0,2.16-.06,3.84-.19,5.44l-.03.37c-.01.28-.03.56-.04.8v.14s0,.04,0,.04v.04s0,.06,0,.06v.02s0,.02,0,.02v.05c-.01.41-.03.85-.07,1.34v.03s0,.03,0,.03c-.09,1.31-.19,2.72-.36,4.26-.03.25-.07.54-.13.99-.02.36-.05.62-.08.88-.06.58-.11,1.02-.15,1.35,0,.05-.01.09-.02.13v.1s-.02.08-.02.08v.08c-.03.19-.05.38-.07.57-.06.55-.12.98-.17,1.31v.04s-.01.04-.01.04c-.03.22-.07.44-.1.67-.02.13-.04.26-.07.39v.02c-.02.09-.03.16-.05.23-.04.22-.08.44-.12.66l-.02.13c-.03.18-.06.37-.09.55l-.02.14-.02.11-.08.54v.06c-.02.09-.04.18-.05.27l-.02.12c-.01.08-.02.15-.04.22l-.04.19v.07c-.03.12-.06.25-.08.36v.03c-.12.6-.26,1.3-.43,1.97l-.05.18-.06.28-.03.12-.1.43c-.05.23-.1.44-.15.63l-.02.1v.04s-.04.12-.04.12c-.03.12-.06.24-.09.35l-.05.17-.02.08-.02.08-.02.08-.15.53-.06.2c-.66,2.34-1.39,4.85-2.27,7.28l-.03.09v.02s-.02.03-.02.03v.03s-.02.03-.02.03v.02s-.02.04-.02.04v.03s-.02.02-.02.02v.03s-.02.02-.02.02c-.2.56-.39,1.06-.57,1.47-.04.08-.07.17-.11.25l-.3.68v.03s-.03.03-.03.03l-.02.04-.08.18-.02.04c-.21.46-.43.95-.66,1.46-.33.71-.63,1.34-.95,1.97-1.38,2.67-2.95,5.21-4.68,7.55-.33.46-.69.91-1.05,1.36-1.29,1.61-2.84,3.27-4.73,5.1-.24.23-.54.52-.97.93-.56.54-1.28,1.14-2.26,1.87-.27.21-.53.4-.92.69l-.07.05-.07.05-.1.07-.09.07-.08.06-.03.02-.03.02-.03.02-.21.15-.19.14-.26.19-.18.13c-.22.16-.44.32-.65.47-.15.11-.3.21-.45.31-.18.13-.37.26-.58.39l-.04.03-.08.05-.41.27c-.49.32-.95.62-1.27.82l-.03.02c-.67.43-1.4.82-2.03,1.14l-.7.36-.08.04-.04.02-.05.02-.05.02-.04.02h-.02s-.03.02-.03.02h-.03s-.06.05-.06.05l-.06.03h-.03s-.04.03-.04.03h-.03s-.04.03-.04.03l-.04.02h-.02c-.95.49-1.73.88-2.32,1.16-.37.17-.66.31-.94.44-.27.12-.53.24-.8.35-.65.28-1.28.54-1.89.77-1.21.47-2.31.85-3.35,1.15l-.89.26-.23.07c-.38.11-.74.22-1.1.32l-.3.09-.25.07c-.59.17-1.15.33-1.68.47-.55.15-1.13.31-1.79.48h-.03s-.05.02-.05.02l-.07.02-.07.02h-.02s-.03.01-.03.01c-.04.01-.08.02-.12.04h-.05s-.12.05-.12.05c-.16.04-.33.08-.49.12h-.05s-.03.02-.03.02h-.02s-.02,0-.02,0h-.04s-.06.02-.06.02l-.1.02h-.02s-.04.02-.04.02h-.04s-.02.01-.02.01l-.07.02h-.02s-.12.02-.12.02l-.21.05-.07.02h-.06s-.15.05-.15.05l-.08.02h-.03s-.03,0-.03,0c-.03,0-.05.01-.07.01l-.14.03c-.08.02-.14.03-.2.04h-.07s-.07.03-.1.03l-.15.02h-.05s-.04.02-.04.02c-.06.01-.1.02-.14.02h-.05s-.03.02-.03.02h-.08s-.08.02-.08.02c-.11.02-.22.04-.33.06h-.02c-.09.02-.17.03-.26.04l-.18.04h-.02s-.03,0-.03,0c-.03,0-.06.01-.09.02h-.06s-.06.02-.06.02h-.06c-.12.03-.23.04-.35.06-.1.01-.19.02-.29.03h-.02s-.11.01-.11.01h-.08s-.15.03-.15.03h-.06s-.06.01-.06.01h-.03s-.08.01-.08.01h-.02s-.11.01-.11.01h-.04s-.02,0-.02,0c-.04,0-.07,0-.1,0h-.02c-.19.02-.37.04-.55.05h-.15s-.04.02-.04.02h-.1s-.04.02-.04.02h-.08s-.16.03-.16.03h-.11s-.14.03-.14.03l-.14.02h-.07s-.11.02-.11.02h-.05s-.03,0-.03,0l-.02.02h.01s-.02.01-.02.01c-.01,0-.02,0-.03,0h-.05s-.02,0-.02,0c-.09,0-.16.01-.22.02,0,0-.02,0-.02,0h-.01c-.09,0-.16.01-.23.01h-.08s-.11.01-.11.01h-.04s-.05.01-.05.01h-.03s-.08,0-.08,0h-.09s-.1.01-.15.02h-.11s-.18.02-.18.02h-.03s-.05,0-.05,0h-.14s-.04,0-.04,0h-.07s-.05,0-.05,0h-.04s-.09,0-.09,0h-.1s-.06.01-.06.01h-.02s-.05,0-.05,0h-.17c-.32.04-.66.06-1.05.07h-.09s-.08.01-.08.01h-.04s-.03,0-.03,0c-.08,0-.16.01-.24.01-.15,0-.3,0-.46,0h-.16s-.04,0-.04,0h-.02c-.09,0-.16,0-.24,0h-.22c-.42,0-.99,0-1.45-.06-.05,0-.09,0-.14,0h-.06c-.06,0-.13,0-.2,0h-.05s-.07,0-.07,0h-.05s-.03,0-.03,0c-.05,0-.1,0-.14,0h-.18s-.21-.03-.21-.03c-.03,0-.06,0-.08,0h-.06s-.06-.01-.06-.01h-.1s-.03-.01-.03-.01l-.16-.02h-.05s-.13-.01-.13-.01h-.08s-.07-.01-.07-.01c-.05,0-.11,0-.16-.02h-.05s-.06-.01-.06-.01h-.06s-.08-.01-.08-.01h-.08s-.12-.02-.12-.02h-.1s-.06-.01-.06-.01h-.14s-.14-.03-.14-.03h-.14s-.17-.03-.17-.03h-.03s-.03,0-.03,0h-.02s-.04,0-.04,0l-.15-.02-.17-.02-.15-.02s-.08,0-.12-.01h-.02s-.04,0-.04,0h-.06s-.36-.05-.36-.05h-.02s-.03,0-.03,0h-.07s-.08-.02-.08-.02l-.18-.03-.18-.03h-.04s-.05-.01-.05-.01h-.02s-.04,0-.04,0h-.08s-.18-.04-.18-.04h-.03s-.15-.03-.15-.03h-.03s-.05-.01-.05-.01h-.05s-.02,0-.02,0h-.05s-.19-.05-.19-.05l-.2-.04h-.04s-.02-.01-.02-.01h-.03s-.03-.01-.03-.01h-.03s-.02-.01-.02-.01h-.03s-.04-.01-.04-.01l-.1-.02-.08-.02-.08-.02h-.03s-.02-.01-.02-.01l-.19-.04-.09-.02-.09-.02h-.03s-.03-.01-.03-.01h-.02s-.09-.02-.09-.02l-.19-.04-.21-.04h-.04s-.06-.02-.06-.02h-.04s-.35-.09-.35-.09l-.25-.06-.07-.02h-.03s-.02-.01-.02-.01h-.03s-.02-.01-.02-.01h-.02s-.04-.01-.04-.01h-.02s-.02-.01-.02-.01l-.08-.02h-.02s-.02,0-.02,0h-.06s-.06-.03-.06-.03l-.27-.06c-.24-.04-.47-.09-.69-.13-.14-.03-.26-.06-.37-.09-.38-.1-.8-.21-1.36-.36l-.19-.05-.19-.05c-.55-.15-1.18-.33-1.94-.55-.89-.26-1.71-.5-2.57-.75-.27-.08-.54-.16-.81-.25-.72-.23-1.42-.48-2.09-.73-1.02-.39-2.05-.81-3.13-1.3-.23-.11-.46-.21-.69-.32-.81-.38-1.57-.77-2.57-1.27l-.13-.07-.23-.12-.12-.06-.03-.02-.05-.02-.16-.08-.16-.08-.47-.24c-.58-.3-1.33-.69-2.03-1.14l-.2-.13-.12-.08-.14-.09-.07-.04-.25-.16-.12-.08c-.54-.36-.94-.62-1.29-.86-.6-.42-1.01-.71-1.28-.92l-.25-.16-.13-.11-.05-.03-.29-.22-.06-.02v-.02s-.11-.05-.11-.05c0-.01,0-.01-.02-.02l-.3-.23-.13-.1-.38-.28-.06-.05h-.02c-.48-.37-.91-.7-1.31-1.01-.5-.39-.95-.78-1.37-1.18l-.05-.05c-1.97-1.84-4.52-4.34-6.75-7.38-1.15-1.57-2.22-3.2-3.18-4.82-.47-.81-.98-1.73-1.5-2.72-.2-.39-.4-.8-.63-1.27-.31-.65-.59-1.27-.82-1.79l-.27-.61v-.02s-.03-.05-.03-.05l-.31-.69c-.06-.13-.11-.25-.17-.39-.09-.22-.18-.45-.29-.72-.09-.24-.18-.47-.25-.67l-.02-.07-.03-.09v-.02s-.02-.04-.02-.04l-.03-.09c-.52-1.44-1.02-2.97-1.53-4.7l-.05-.17c-.25-.85-.48-1.66-.7-2.43v-.02s-.03-.07-.03-.07l-.02-.08-.03-.09-.05-.17-.02-.05-.03-.1-.03-.1v-.02s0-.02,0-.02l-.07-.25v-.02s-.02-.05-.02-.05v-.06c-.13-.44-.23-.87-.32-1.3v-.02s-.01-.03-.01-.03l-.02-.08-.02-.09c-.03-.13-.06-.26-.09-.4-.08-.34-.13-.6-.17-.85v-.02c-.04-.19-.07-.37-.09-.54l-.02-.05-.04-.16-.02-.08-.02-.07v-.05s-.09-.39-.09-.39v-.06s-.02-.03-.02-.03l-.03-.15-.02-.12-.07-.34v-.02s-.02-.05-.02-.05l-.02-.12-.04-.2-.04-.2c-.02-.08-.03-.16-.04-.24v-.08s-.02-.05-.02-.05v-.03s-.02-.12-.02-.12v-.07s-.02-.03-.02-.03v-.02s-.04-.15-.04-.15l-.02-.12-.03-.11v-.04s-.02-.06-.02-.08l-.09-.49v-.02s-.05-.28-.05-.28v-.03s0-.02,0-.02l-.03-.16-.02-.14s-.01-.08-.02-.12v-.05s-.02-.1-.02-.1v-.11c-.02-.06-.04-.13-.05-.19-.01-.07-.02-.13-.03-.2v-.07s-.04-.22-.04-.22l-.06-.4-.05-.34c0-.06-.02-.12-.03-.19v-.05s-.06-.4-.06-.4v-.07s-.05-.29-.05-.29c0-.06-.01-.11-.02-.17v-.07s-.04-.26-.04-.26l-.03-.22v-.07s-.02-.14-.02-.14v-.02s-.02-.02-.02-.02v-.03s0-.03,0-.04v-.04s0-.02,0-.02v-.04s0-.01,0-.02c0,0,0-.01,0-.02,0,0,0,0,0-.01v-.02s0-.02,0-.02v-.05s0-.02,0-.02c0-.03,0-.05,0-.08v-.02s0-.02,0-.02v-.03s0-.02,0-.02c0-.01,0-.02,0-.03v-.02s0-.03,0-.03v-.02s0-.03,0-.03c0,0,0-.01,0-.02v-.03s0-.02,0-.03c0,0,0-.02,0-.03v-.02s0-.02,0-.02v-.02s-.01-.03-.01-.04c0-.04,0-.09,0-.13v-.03s0-.05,0-.05c-.01-.16-.03-.29-.04-.43,0-.05-.01-.1-.01-.16v-.05s0-.07,0-.07c-.05-.36-.1-.7-.14-1.01-.01-.1-.02-.19-.03-.28-.08-.76-.16-1.6-.24-2.56-.04-.47-.07-.93-.1-1.37l-.03-.39v-.07c-.02-.3-.04-.63-.05-.94v-.02s0-.06,0-.06v-.05s0-.03,0-.03v-.03s0-.06,0-.06v-.06s0-.06,0-.06v-.08s0-.03,0-.03v-.03s0-.12,0-.12v-.04s0-.09,0-.09v-.09c0-.12-.01-.24-.02-.36-.01-.22-.02-.44-.04-.66-.13-1.61-.18-3.35-.19-5.65-.03-16.13-.03-35.7-.03-50.95v-15.76s0-.04,0-.04v-20.58s0-.06,0-.06v-.05s0-.03,0-.03c0-.03,0-.06,0-.09v-.05s0-.07,0-.07c-.02-.05-.03-.11-.03-.2,0-.13.02-.21.07-.26.02-.03.06-.06.1-.08.05-.02.11-.03.19-.03.05,0,.1,0,.15,0h.04c.06.02.09.02.13.02s.08,0,.11,0h.03s.08,0,.08,0h42.59s.09,0,.15,0h.05c.05,0,.1,0,.15,0h.03s.05,0,.08,0c.07,0,.13,0,.18.02h.03s.04.03.06.05c.02.02.04.04.06.06.02.02.03.03.04.05.01.03.02.04.02.05,0,.04.01.06.01.08,0,.04.01.11.01.21v.06s0,.04,0,.04v.05s0,.05,0,.05c0,.05,0,.1,0,.15v41.88c0,2.13,0,4.27,0,6.4v.22s0,1.18,0,1.18c0,1.76,0,3.45,0,5.11v.52c0,2.19,0,4.53.03,7.59,0,.65,0,1.31,0,1.96v.09c0,1.17,0,1.97-.01,2.6v.33s0,.29,0,.29v.24s0,.35,0,.35v.17s0,.23,0,.23v.23s0,.12,0,.12v.06s0,.24,0,.24v.06s0,.03,0,.03v.12s0,.24,0,.24v.15s0,.14,0,.14v.15s0,.24,0,.24v.1s0,.37,0,.37v.23s0,.07,0,.07v.33s0,.23,0,.23v.27c0,.72-.01,1.49-.01,2.29v.38c0,2.76.05,5.07.16,7.26l.03-.04-.03.06v.03c-.01.08-.01.15-.01.22v.06s0,.05,0,.05v.15s0,.04,0,.04v.04s0,.09,0,.09v.09s0,.08,0,.08v.12s0,.17,0,.17c0,.11,0,.22,0,.33,0,.01,0,.02,0,.04v.06s0,.03,0,.04v.03c0,.05,0,.1,0,.16,0,.17,0,.31.02.46v.1s.01.14.01.14v.07s0,.06,0,.06v.08s0,.09,0,.09v.04s0,.04,0,.04c0,.12,0,.24.01.36v.13c0,.06,0,.12.01.17v.06s0,.05,0,.05v.07s0,.1,0,.1v.17s.03.34.03.34l.02.28c0,.06,0,.11.01.17v.11c.03.26.06.51.08.75l.02.2v.03s0,.05,0,.05v.04s.01.05.01.05v.05s.01.03.01.03v.03s0,.04,0,.04v.03s0,.03,0,.03c.01.14.03.3.05.46.05.35.1.69.15,1.08l.02.16v.06s.01.03.01.03v.04s0,.03,0,.03v.02s.02.1.02.1c.04.23.07.46.1.7l.03.22c.01.07.02.14.03.2v.03c.09.62.19,1.18.3,1.68l.03.11c.1.46.22.94.37,1.49.13.47.27.95.43,1.47.02.06.04.13.06.19v.04c.04.1.08.2.11.3.33.99.71,1.93,1.15,2.78.18.35.38.71.6,1.07.37.6.78,1.19,1.24,1.74,1.39,1.67,2.89,2.84,4.6,3.57.43.19.91.36,1.41.52.8.25,1.64.44,2.57.58h.03s.05.01.05.01h.03s.09.02.09.02h.05s.05.01.05.01c.11.01.22.03.32.03.03,0,.05,0,.08,0h.05c.08,0,.16.01.23.01h.07s.03,0,.03,0h.04c.08,0,.14,0,.21,0,.06,0,.13,0,.2,0h.07s.09,0,.13,0c.1,0,.22-.01.34-.03.05,0,.11-.01.16-.02.02,0,.04,0,.07-.01h.02s.02,0,.02,0h.02c.06,0,.12-.02.19-.02.03,0,.06,0,.09-.02l.11-.03s.07-.02.11-.03c.06,0,.12-.02.19-.04h.06s.03-.02.03-.02h0s.02,0,.03,0l.03-.02c.54-.08,1.09-.2,1.71-.39l.08-.02.19-.06h.02s.2-.06.2-.06h.02s.09-.04.09-.04l.13-.05s.02,0,.03-.01h.04s.08-.05.08-.05c.03,0,.07-.02.1-.03.06-.02.1-.03.14-.05.05-.02.09-.04.14-.06.01,0,.03,0,.04-.02h.02s.03-.04.03-.04h-.02s.04-.01.04-.01h.07s.04-.03.04-.03c.06-.03.12-.05.19-.08.71-.3,1.38-.68,2.05-1.15l.02-.02c.31-.22.63-.48.96-.77.53-.47,1.05-1,1.52-1.58l.05-.06c.45-.55.85-1.11,1.2-1.67.26-.42.53-.91.8-1.45.45-.92.83-1.9,1.17-3,.31-1,.55-1.85.74-2.68.04-.17.08-.36.14-.66v-.05s.02-.02.02-.02v-.03s.02-.03.02-.03v-.02s.01-.03.01-.03v-.05s.02-.03.02-.03v-.05s.02-.04.02-.04v-.03s.01-.03.01-.03v-.04s.05-.15.05-.15l.02-.1v-.03s.02-.04.02-.04v-.04s.01-.03.01-.03v-.04s.05-.18.05-.18v-.03s.03-.12.03-.12l.02-.1v-.03s.02-.07.02-.07v-.02s0-.04,0-.04v-.02s.01-.06.01-.06v-.06s.02-.06.02-.06v-.05s.01-.04.01-.04l.02-.13v-.09s.03-.09.03-.09v-.03s0-.02,0-.02v-.02s0-.03,0-.03v-.12s.02-.09.02-.09v-.09s.01-.06.01-.06v-.05s.02-.14.02-.14v-.1s.01-.07.01-.07v-.07s0-.02,0-.02v-.11s.01-.09.01-.09c.06-.44.1-.71.14-.99.05-.51.09-.96.12-1.39v-.03s.01-.12.01-.12v-.08s.01-.06.01-.06c0-.03,0-.06,0-.1v-.04s0-.02,0-.02v-.02s0-.03,0-.05v-.04s0-.04,0-.04v-.03s.02-.2.02-.2v-.03s0-.03,0-.03v-.03s0-.16,0-.16v-.11s.01-.06.01-.06v-.08s0-.08,0-.08v-.08s0-.03,0-.03v-.05s0-.08,0-.08v-.23s.02-.24.02-.24v-.31s.02-.31.02-.31v-.03s0-.03,0-.03v-.04s0-.05,0-.05v-.3s0-.06,0-.06v-.02s0-.02,0-.02v-.13s0-.03,0-.03c0-.19.01-.35.02-.5.14-2.41.21-5.13.21-8.58v-.33c0-1.03,0-2.07-.02-3.03v-.18s0-.04,0-.04v-.19s0-.14,0-.14v-.2s0-.16,0-.16v-.21s0-.14,0-.14v-.15s0-.24,0-.24v-.04s0-.04,0-.04v-.21s0-.06,0-.06v-.1s0-.1,0-.1v-.21s0-.2,0-.2v-.09s0-.24,0-.24v-.05s0-.16,0-.16v-.17s0-.15,0-.15c-.01-1.7-.02-2.56-.02-3.42v-.39c0-.55,0-1.11,0-1.66v-.45c.02-2.11.03-4.47.03-7.63v-.07c0-.88,0-1.75,0-2.62v-1.29s0-.68,0-.68v-1.67s0-.11,0-.11v-.15s0-.9,0-.9v-.91s0-.94,0-.94v-1.34s0-.07,0-.07V22.22s0-.03,0-.05v-.06s0-.03,0-.03v-.09s0-.1,0-.14c0-.09,0-.17.02-.26,0-.06.06-.13.14-.19h.02s.01-.02.03-.03l.04-.02h.04s.03,0,.03,0h.04s.05,0,.05,0h.03s.04,0,.04,0c.05,0,.1,0,.15,0h.03s.05,0,.05,0c.04,0,.07,0,.11,0h42.63s.05,0,.07,0h.02s.03,0,.03,0h.02s.04,0,.04,0h.06s.04,0,.07,0h.02s.03-.01.03-.01c0,0,0,0,0,0h0Z"/><path class="cls-10" d="m738.54,0s-.05.03-.05.04v8.01c0,.05,0,.09-.01.11l.63.06h.6s.02,0,.02,0h.06s.06,0,.06,0h.09s.09,0,.09,0c.07,0,.13,0,.2,0h.11s.08,0,.08,0h.08s.07,0,.11,0c.05,0,.09,0,.14,0,.02,0,.04,0,.05,0,.96.01,1.71.03,2.28.07.59.02.98.04,1.31.07h.12c.1.02.19.02.29.03.31.02.55.04.76.08h.05s0,0,0,0h-.05c-.14.03-.31.05-.52.06-.05,0-.11.01-.16.01-.13.01-.26.02-.39.03h-.04s-.02,0-.02,0h-.02s-.08,0-.08,0h-.08s-.08,0-.08,0h-.07c-.39.03-.81.05-1.28.06-.07,0-.14,0-.21,0h-.13c-.46.02-.9.03-1.33.04-.44.02-1.12.02-2.07.03-.33,0-.65,0-.98,0-1.18,0-1.92,0-2.4-.02-.42,0-.84-.02-1.26-.03h-.02s-.02,0-.02,0c0,0-.01,0-.02,0h-.13c-.1,0-.21,0-.31-.01h-.03s-.02,0-.02,0h-.08s-.07,0-.07,0h-.1s-.05,0-.05,0h-.05s-.08,0-.08,0h-.04s-.03,0-.03,0h-.09s-.14-.01-.14-.01c-.09,0-.18,0-.27-.01h-.14s-.04,0-.04,0h-.04s-.03,0-.03,0h-.03s-.12,0-.12,0h-.1s-.03,0-.03,0h-.03s-.29-.02-.29-.02h-.05s-.29-.02-.29-.02h-.06c-.21-.02-.42-.04-.64-.06-.1-.01-.2-.02-.3-.04-.06,0-.11-.02-.16-.02h.16c.27-.03.59-.06.97-.08.52-.04.94-.07,1.37-.08h.09s.09,0,.09,0h.03s.03,0,.03,0c.78-.04,1.77-.06,3.1-.08.27,0,.55,0,.82,0h.07s.1,0,.14,0h.27l.03-.05v-.03s0-.07,0-.09V.05l-11.19-.05h-11.29c-.91,0-.92,0-.92.87v.75c0,1.8,0,3.7,0,5.6,0,.67.09.76.76.76.83,0,1.65,0,2.48,0,.87,0,1.75,0,2.62,0,.56,0,.95.11,1.24.36.57.47.82,1.31.59,2-.15.42-.57.64-.81.74-.42.15-.93.17-1.42.18-.32,0-.83.01-1.93.01h-1.05s-.34,0-.34,0h-.82s-.52,0-.52,0c-.79,0-.81.03-.81.8,0,1.7,0,3.4,0,5.1v.8q0,.94.96.94h22.42l.03-.07v-.05s0-.05,0-.05v-7.55c0-.06,0-.11.02-.15l-.51-.06h-.48s-.37,0-.37,0h-.17s-.02,0-.03,0h-.14s-.05,0-.05,0h-.14s-.02,0-.02,0h-.02s-.05,0-.05,0h-.08s-.03,0-.03,0h-.15s-.09,0-.09,0c0,0-.01,0-.02,0h-.08s-.04,0-.07,0h-.07s-.06,0-.06,0h-.13s-.07,0-.07,0h-.05s-.02,0-.02,0h-.11s-.07,0-.07,0h-.06s-.06,0-.06,0h-.16s-.01,0-.02,0c-.27,0-.53-.02-.79-.03-.48,0-.89-.03-1.27-.06h-.07c-.05,0-.11,0-.16-.01h-.08s-.08-.01-.08-.01h-.07s-.05,0-.05,0h-.02s-.14-.01-.14-.01c-.32-.02-.56-.05-.73-.08h-.02s-.1-.02-.1-.02h.11s.11,0,.11,0h.03c.21-.03.44-.05.73-.07.1,0,.17-.01.25-.02h.04s.04,0,.04,0h.02s.03,0,.03,0c.02,0,.05,0,.07,0h.02s.04,0,.04,0h.03s.13,0,.13,0h.13c.59-.05,1.14-.07,1.67-.08.34-.01.67-.02,1.01-.03h.03s.03,0,.03,0h.05s.04,0,.04,0h.07s.07,0,.07,0h.36s.08,0,.08,0c.03,0,.05,0,.07,0,.46-.01,1.16-.02,2.28-.02.24,0,.47,0,.71,0h.33c.22,0,.44,0,.66,0h.21s.22,0,.22,0h.15c.11,0,.21,0,.31,0,.56,0,.98.02,1.37.03.29,0,.57.02.86.03.26,0,.51.02.76.03h.06s.4.02.4.02h.09s.1.01.1.01h.02s.02,0,.02,0l.26.02h.03s.14.01.14.01h.14c.22.02.41.04.59.07h.05s.05.02.05.02h-.09c-.12.02-.26.03-.44.05-.1.01-.2.02-.29.03h-.02s-.03,0-.03,0h-.12s-.07.02-.07.02h-.07c-.11.01-.2.02-.3.02h-.03s-.12,0-.12,0h-.07c-.11.01-.21.02-.31.02-.06,0-.12,0-.17,0h-.09s-.02,0-.02,0c-.25.01-.49.02-.72.03-.24,0-.48.02-.71.02h-.05s-.05,0-.07,0h-.03s-.1,0-.1,0h-.35s-.06.01-.06.01h-.15s-.17,0-.17,0h-.16s-.1,0-.1,0h-.1s-.14,0-.14,0h-.08s-.06,0-.09,0h-.12c-.28,0-.55,0-.83.01-.34,0-.67,0-1.01,0l-.02.04v.03s0,.03,0,.03c0,.05,0,.08,0,.1v7.55s0,.08,0,.1l2.19.06h11.6c2.73,0,5.45,0,8.17,0,.71,0,.86-.14.86-.84,0-1.89,0-3.85,0-5.99,0-.65-.16-.8-.81-.8h-.14c-.05,0-.1,0-.15,0h-.29s-.29,0-.29,0h-.24s-.22,0-.22,0h-.12s-.12,0-.12,0h-.21s-.06,0-.06,0c-.82,0-1.35,0-1.94-.01-.5,0-1.02-.03-1.44-.18-.24-.1-.67-.32-.82-.75-.23-.71.03-1.56.6-2.04.08-.07.16-.13.25-.18.26-.06.51-.1.77-.1.4-.01.88-.02,1.89-.02.34,0,.69,0,1.03,0h.44s.04,0,.04,0h.14s.18,0,.18,0h.18c.19,0,.38,0,.57,0,.7,0,.77-.07.77-.75v-.35c0-2.31,0-3.98,0-6,0-.77-.12-.89-.9-.89h-21.87Z"/><path class="cls-10" d="m664.54,0h0l-.04,8.15s0,.07.04.07c.37,0,.75,0,1.12,0h.08s.06,0,.06,0h.09s.09,0,.09,0c.07,0,.13,0,.2,0h.11s.08,0,.08,0c.03,0,.06,0,.08,0h.1c.05,0,.1,0,.14,0h.05c.86,0,1.6.03,2.28.07.61.02,1.02.04,1.31.07.14,0,.28.02.41.03.27.01.51.04.76.08h.05s.05.01.05.01c0,0-.01,0-.02,0-.02,0-.04,0-.07,0-.16.03-.34.05-.54.06h-.03s-.04,0-.04,0h-.03s-.06,0-.06,0c-.09,0-.18.02-.26.02h-.08s-.07,0-.07,0h-.04s-.02,0-.02,0h-.08s-.08.01-.08.01h-.08s-.07,0-.07,0c-.53.04-.95.06-1.28.06h-.33c-.47.03-.9.04-1.33.05-.46.01-1.1.02-2.07.03-.33,0-.65,0-.98,0-1.16,0-1.9,0-2.4-.02-.52,0-.92-.02-1.3-.03h-.26s-.2-.01-.2-.01h-.02s-.02,0-.02,0h-.08s-.07,0-.07,0h-.1s-.1,0-.1,0h-.11s-.03,0-.03,0h-.09c-.15-.01-.31-.02-.46-.03h-.1s-.04,0-.04,0h-.04s-.03,0-.03,0h-.03s-.12,0-.12,0h-.1s-.03,0-.03,0h-.03s-.29-.02-.29-.02h-.05s-.29-.02-.29-.02h-.06c-.22-.02-.42-.04-.64-.06-.11-.01-.21-.02-.3-.04-.02,0-.04,0-.06,0h.03s.04,0,.04,0c.29-.04.61-.07.96-.09.43-.04.85-.06,1.37-.08h.09s.09,0,.09,0h.03s.03,0,.03,0c1.02-.05,2.01-.07,3.1-.08.28,0,.56,0,.83,0h.06s.1,0,.14,0h.22s.03,0,.05,0h.04s.04-.06.04-.07V.05l-11.24-.04h-11.3c-.91,0-.92,0-.92.87v.21c0,1.88,0,4.02,0,6.14,0,.67.09.76.76.76.82,0,1.65,0,2.48,0,.87,0,1.75,0,2.62,0,.56,0,.95.11,1.24.36.57.47.82,1.31.59,2-.15.42-.57.64-.81.74-.41.15-.93.17-1.42.18-.37,0-.84.01-1.93.01-.23,0-.47,0-.7,0h-.35s-.34,0-.34,0h-.82s-.52,0-.52,0c-.78,0-.81.02-.81.8,0,1.97,0,4,0,5.89q0,.94.96.94h22.46l.04-7.83s0-.03,0-.04l-.37-.05c-.22,0-.45,0-.67,0h-.37s-.11,0-.11,0h-.06s-.02,0-.03,0h-.08s-.06,0-.06,0h-.05s-.04,0-.04,0h-.1s-.02,0-.02,0h-.02s-.05,0-.05,0h-.08s-.03,0-.03,0h-.03s-.03,0-.03,0h-.09s-.09,0-.09,0c0,0-.02,0-.02,0h-.08s-.05,0-.07,0h-.07s-.06,0-.06,0h-.03s-.03,0-.03,0c-.04,0-.09,0-.13,0h-.08s-.11,0-.11,0h-.07s-.06,0-.06,0h-.06s-.16,0-.16,0c0,0-.01,0-.02,0-.26,0-.53-.02-.79-.03-.48,0-.9-.03-1.27-.06h-.06s-.05,0-.05,0h-.04s-.05,0-.07,0h-.08s-.11-.01-.11-.01c-.09,0-.17-.01-.26-.02-.32-.02-.56-.05-.74-.07h0s-.02,0-.02,0h-.07s.02-.01.02-.01h.03s.02,0,.02,0h.13s.03-.02.03-.02c.19-.03.41-.05.73-.07.1,0,.17-.01.25-.02h.04s.04,0,.04,0h.02c.05,0,.08,0,.11,0h.02s.04,0,.04,0h.04s.13,0,.13,0h.13c.47-.04,1.01-.06,1.67-.08.34-.01.67-.02,1.01-.03h.06s.05,0,.05,0h.08s.06,0,.09,0h.36s.06,0,.08,0c.03,0,.05,0,.07,0,.48-.01,1.19-.02,2.28-.02.24,0,.47,0,.71,0,.29,0,.58,0,.86,0h.12c.3,0,.6,0,.9.01.45,0,.91.02,1.37.03.29,0,.58.02.86.03.24,0,.48.02.72.03h.04c.15.01.3.02.46.03h.09s.1.01.1.01h.02s.02,0,.02,0l.26.02h.03s.14.01.14.01h.15c.23.02.42.04.59.07h.05s.05.02.05.02h-.09c-.16.02-.3.04-.44.05-.12.01-.23.02-.34.03h-.12s-.07.01-.07.01h-.07c-.12.01-.22.02-.33.03-.17.01-.33.02-.5.03h-.1s-.07,0-.07,0h-.07s-.07,0-.07,0l-.45.02h-.03s-.18,0-.18,0h-.03s-.16,0-.16,0c-.2,0-.38.01-.57.02h-.02s-.02,0-.02,0c-.04,0-.05,0-.07,0h-.08s-.08,0-.08,0h-.23s-.31.01-.31.01h-.17s-.17,0-.17,0h-.1s-.1,0-.1,0h-.14s-.04,0-.04,0h-.07s-.06,0-.06,0h-.06s-.06,0-.06,0c-.28,0-.55,0-.83,0-.31,0-.62,0-.93,0-.04.04-.04.06-.04.07v7.8l2.12.04h11.6c2.73,0,5.45,0,8.17,0,.71,0,.85-.14.86-.83,0-1.82,0-3.78,0-5.99,0-.65-.16-.8-.81-.8h-.14c-.24,0-.49,0-.73,0h-.24s-.22,0-.22,0h-.12s-.12,0-.12,0h-.21s-.06-.01-.06-.01c-.97,0-1.45,0-1.94-.01-.5,0-1.02-.03-1.44-.19-.24-.1-.67-.32-.82-.75-.23-.71.02-1.57.6-2.04.07-.06.16-.12.25-.18.27-.07.53-.1.77-.1.41-.01.97-.02,1.89-.02.34,0,.69,0,1.03,0h.15c.28,0,.55,0,.83,0h.57c.7,0,.77-.07.77-.75,0-2.95,0-4.43,0-6.35,0-.77-.12-.89-.9-.89h-21.81Z"/><g><g><path class="cls-2" d="m711.42,51.92c.24,0,.48,0,.72,0,.05.03.1.08.16.1.25.09.46.23.64.42.2.22.34.47.42.75.15.46.29.91.43,1.37.11.35.28.66.51.94.46.56,1.05.67,1.69.32.09-.05.18-.1.27-.15.52-.3,1.03-.61,1.55-.91.28-.16.58-.3.88-.43.27-.12.55-.18.85-.11.48.1.85.34,1.1.77.19.31.32.64.44.98.24.71.71,1.05,1.45,1.09.2,0,.41,0,.62,0,.48,0,.96-.03,1.44-.01.89.04,1.4.6,1.43,1.48,0,.29.04.58.09.87.11.63.37,1.21.61,1.79.04.11.11.21.17.32.34,0,.66,0,.99,0,.51-.01,1.03-.04,1.54-.04.5,0,.94.2,1.27.58.16.18.31.37.42.58.24.45.46.92.67,1.39.37.82.96,1.4,1.8,1.74.29.11.57.23.85.37.68.35,1.26.81,1.73,1.42.6.78.8,1.65.57,2.61-.09.38-.24.75-.42,1.1-.1.2-.21.4-.28.61-.1.32.01.55.31.72.19.11.4.21.58.33.79.54,1.22,1.28,1.25,2.24,0,.22.01.45-.02.67-.06.43.08.73.48.92.14.07.27.16.38.26.53.45.57,1,.12,1.53-.16.2-.34.38-.5.58-.25.3-.3.64-.15,1.01.03.06.05.13.08.19.15.32.2.65.21,1,0,.2.03.41.05.61.05.51.31.9.76,1.16.29.17.59.34.9.49.3.15.55.34.79.57.27.27.4.59.41.97,0,.28-.05.54-.17.8-.3.66-.69,1.27-1.19,1.79-.99,1.02-2,2.02-3.2,2.81-.09.06-.17.11-.25.18-.25.23-.28.46-.09.73.11.15.25.28.38.41.16.16.32.31.48.46.15.15.21.34.21.56,0,.42-.2.73-.55.93-.33.18-.67.34-1.02.47-.52.2-1.01.45-1.33.92-.19.28-.44.47-.72.64-.22.13-.44.27-.62.45-.36.37-.48.83-.29,1.32.09.22.21.43.34.63.12.19.27.35.41.53.32.4.43.85.28,1.35-.05.16-.1.33-.13.5-.08.5.12.91.49,1.23.35.31.74.32,1.15.13.02,0,.03-.01.05-.02.78-.31,1.58-.56,2.41-.71.38-.07.78-.09,1.17-.09.83,0,1.56.36,2.28.71.95.47,1.88.99,2.82,1.47,1.48.75,2.92,1.58,4.23,2.61.44.35.91.66,1.38.99,1.01.71,2.02,1.41,3.03,2.12.66.46,1.27.99,1.82,1.58.64.69,1.31,1.35,2.01,1.99.98.9,1.69,1.97,2.09,3.24.16.51.32,1.01.47,1.52.38,1.28,1.07,2.36,2.06,3.26.51.46,1.07.86,1.66,1.2.8.46,1.61.91,2.42,1.36,1.36.76,2.72,1.51,4.08,2.27,1.14.64,2.34,1.9,2.83,2.95v.92c-.1.39-.3.72-.62.97-.65.52-.97,1.21-1.12,2.02-.17.94-.37,1.88-.59,2.81-.36,1.53-.83,3.04-1.32,4.53-.22.68-.32,1.37-.21,2.08.08.47.18.94.33,1.39.24.7.52,1.38.8,2.06.26.62.33,1.25.19,1.91-.21,1.04-.36,2.09-.37,3.16,0,.7.02,1.4.04,2.11.01.34-.04.65-.2.94-.13.24-.25.49-.39.73-.82,1.48-1.64,2.96-2.46,4.45-.24.43-.48.87-.71,1.31-.17.32-.29.67-.22,1.04.14.72.28,1.44.59,2.12.29.65.54,1.33.82,1.99.33.77.37,1.55.22,2.37-.17.89-.12,1.77.25,2.62.12.27.2.54.3.82.57,1.68,1.08,3.39,1.9,4.98.1.2.14.42.13.65-.03.48.1.92.32,1.33.12.24.27.48.4.72.23.44.46.88.69,1.32.28.55.22,1.06-.17,1.53-.38.46-.76.93-1.17,1.36-.58.61-1.26,1.1-2.02,1.49-1.13.58-2.24,1.18-3.36,1.77-.79.41-1.57.84-2.38,1.21-1.82.84-3.72,1.46-5.63,2.06-.52.16-1.06.27-1.61.32-.77.06-1.53.15-2.3.22-1.14.1-2.28.2-3.43.3-.15.01-.31.01-.46,0-1.18-.1-2.35-.21-3.53-.31-1.57-.13-3.13-.34-4.68-.64-1.14-.22-2.26-.52-3.36-.91-.45-.16-.84-.41-1.1-.8-.56-.84-.83-1.76-.7-2.77.09-.66.36-1.25.73-1.79.31-.45.68-.86,1.08-1.24.45-.42.89-.85,1.28-1.33.14-.17.32-.31.51-.42.28-.16.58-.28.88-.41.11-.05.23-.08.34-.11.65-.17,1.17-.53,1.61-1.04.92-1.09,1.72-2.26,2.31-3.57.27-.61.56-1.21.91-1.78.24-.38.36-.81.4-1.26.03-.4,0-.79-.09-1.17-.19-.76-.38-1.53-.57-2.29-.05-.22-.13-.43-.18-.64-.07-.29-.47-.5-.74-.35-.04.02-.1.04-.14.06-.76.36-1.5.76-2.18,1.25-.6.44-1.12.95-1.58,1.53-.55.7-1.11,1.39-1.68,2.08-.12.14-.26.27-.41.38-.29.2-.6.22-.93.1-.05-.02-.09-.04-.14-.06-.05-.02-.09-.05-.14-.07-.47-.26-.83-.11-1.11.2-.22.24-.43.49-.64.73-.91,1.05-1.8,2.11-2.73,3.14-.79.88-1.57,1.77-2.29,2.71-.23.3-.46.59-.71.88-1.14,1.33-2.5,2.43-3.91,3.47-.67.49-1.4.78-2.21.9-.11.02-.22.06-.32.08-.05.23-.11.43-.14.63-.08.78-.16,1.57-.13,2.36.04,1,0,1.99-.16,2.97-.02.12-.03.24-.02.36.02.39.24.64.64.67.2.02.41,0,.61-.04.54-.09,1.07-.21,1.61-.3.25-.04.51-.07.76-.06.36,0,.61.2.77.51.19.37.17.76.02,1.14-.08.22-.22.39-.43.48-.44.18-.88.36-1.33.54-.17.07-.34.14-.52.21h-1.75c-.08-.03-.16-.06-.24-.08-.73-.11-1.46-.21-2.18-.31-1.02-.13-2.04-.2-3.07-.05-1.3.19-2.6.13-3.89-.02-.73-.08-1.46-.18-2.19-.26-.45-.05-.87-.21-1.27-.4-.38-.18-.6-.53-.61-.95-.01-.44.2-.79.6-1.01.07-.04.15-.07.23-.11.32-.14.66-.17,1.01-.16.8,0,1.61.01,2.41.02.19,0,.38-.02.56-.03.17-.01.3-.11.37-.25.05-.12.08-.26.08-.39-.03-1.51-.07-3.01-.1-4.52,0-.2-.04-.37-.18-.52-.66-.21-.78-.28-1.29-.78-.74-.72-1.26-1.57-1.51-2.58-.02-.1-.05-.2-.09-.29-.12-.28-.32-.49-.62-.57-.18-.05-.37-.08-.55-.09-.75-.03-1.51-.06-2.26-.08-2.76-.05-5.51-.09-8.27-.13-.96-.02-1.92,0-2.87-.1-.58-.06-1.15-.17-1.7-.35-.46-.15-.87-.41-1.17-.79-.54-.67-.96-1.41-1.29-2.21-.1-.24-.17-.49-.15-.75.04-.56.07-1.13.15-1.69.11-.72.37-1.38.78-1.99.32-.47.73-.82,1.28-.97.53-.14,1.05-.3,1.59-.4.89-.17,1.79-.3,2.68-.44.32-.05.63-.14.91-.32.42-.27.89-.44,1.36-.59.46-.14.92-.27,1.37-.41.89-.29,1.7-.73,2.37-1.38.63-.61,1.14-1.32,1.74-1.98-.05-.16-.08-.31-.15-.44-.39-.7-.47-1.45-.38-2.24.05-.46.07-.92.08-1.38,0-.46-.01-.92-.02-1.39-.02-1.42-.27-2.79-.72-4.13-.05-.14-.12-.28-.17-.4-.25-.06-.4.04-.51.21-.1.14-.17.3-.27.43-.16.22-.31.45-.51.64-.53.5-.96,1.07-1.34,1.68-.13.22-.26.44-.39.66-.36.57-.83.78-1.49.64-.37-.08-.73-.2-1.09-.29-.38-.1-.76-.21-1.14-.28-.49-.09-.92.05-1.23.45-.18.23-.36.46-.53.69-.28.37-.55.75-.83,1.11-.25.33-.55.62-.93.8-.37.18-.57.47-.72.83-.1.24-.21.47-.34.69-.17.27-.41.46-.75.49-.7.07-1.27.39-1.76.87-.57.54-1.15,1.07-1.71,1.63-.63.63-1.34,1.12-2.17,1.42-.58.21-1.16.4-1.76.55-.29.07-.49.19-.69.39-1.56,1.6-2.96,3.32-4.29,5.11-.07.1-.14.2-.18.31-.1.27.04.53.32.59.12.03.24.03.36.04.7.05,1.4.09,2.1.17.66.07,1.32.19,1.95.41.33.11.63.26.91.46.17.12.24.3.19.5-.04.16-.19.24-.35.27-.29.05-.57.1-.86.15-1.23.22-2.45.2-3.67-.06-.53-.12-1.08-.19-1.62-.27-.78-.12-1.56-.22-2.34-.33-.37-.05-.74-.14-1.08-.31-.31-.15-.48-.54-.41-.92.06-.31.28-.49.67-.51.29-.01.58-.02.87,0,.6.03,1.05-.2,1.42-.67,1.53-1.92,3.19-3.71,4.9-5.47.15-.16.3-.32.44-.47-.02-.1-.02-.17-.04-.24-.14-.49-.04-.91.34-1.26.32-.29.62-.59.95-.86.73-.6,1.29-1.32,1.69-2.17.21-.44.04-.67-.46-.67-.31,0-.56.09-.8.28-.91.75-1.83,1.49-2.74,2.25-.26.22-.49.48-.73.71-.07.07-.15.14-.23.2-.23.18-.47.34-.68.54-.92.89-1.84,1.79-2.75,2.7-.36.36-.69.76-1.05,1.13-.42.42-.86.83-1.3,1.24-.18.17-.35.12-.44-.11-.2-.54-.16-1.04.24-1.48.12-.13.23-.25.35-.37.69-.69,1.37-1.39,2.06-2.08.5-.49,1-.98,1.51-1.47.06-.06.11-.12.17-.19-.03-.06-.05-.11-.08-.15-.42-.66-.39-1.25.11-1.83.08-.09.17-.17.24-.27.08-.13.18-.26.2-.41.08-.59.34-1.11.58-1.64.19-.42.36-.85.54-1.27.11-.27.19-.56.35-.8.4-.64.82-1.26,1.26-1.87.34-.47.8-.79,1.33-1.02.22-.09.44-.19.67-.25.92-.28,1.84-.54,2.75-.81,1.28-.38,2.55-.79,3.77-1.33.22-.1.44-.2.63-.33.24-.16.35-.39.33-.7-.08-1.16.21-2.24.76-3.26.37-.68.83-1.3,1.32-1.89.92-1.1,1.85-2.2,2.77-3.31.91-1.1,1.69-2.28,2.32-3.56.51-1.03,1.02-2.05,1.53-3.08.32-.64.42-1.29.24-1.99-.09-.33-.14-.67-.19-1.01-.15-1.02-.12-2.05-.07-3.08.06-1.26.47-2.41,1.2-3.45.5-.7,1.13-1.23,1.95-1.52.29-.1.56-.25.85-.35.22-.08.34-.23.39-.44.16-.71.14-1.4-.28-2.02-.27-.4-.57-.77-.83-1.17-.16-.24-.37-.34-.63-.38-.22-.03-.44-.05-.66-.08-.39-.06-.65-.29-.79-.65-.06-.16-.1-.33-.18-.48-.12-.26-.33-.39-.62-.36-.14.01-.27.04-.4.07-.44.08-.87.17-1.32.15-.37-.02-.66-.16-.87-.46-.11-.15-.2-.32-.28-.49-.15-.31-.28-.62-.42-.94-.4-.9-.95-1.7-1.52-2.5-.28-.39-.67-.57-1.16-.53-.43.04-.85-.02-1.28-.07-.29-.03-.58-.06-.87-.08-.29-.02-.58-.04-.87-.05-.15,0-.31,0-.46.04-.18.04-.37.09-.54.16-.41.16-.8.14-1.2-.04-.3-.13-.6-.25-.9-.38-.48-.21-.96-.24-1.44-.02-.41.18-.83.19-1.26.08-.16-.04-.32-.11-.48-.19-.3-.15-.56-.09-.8.13-.14.13-.26.27-.4.4-.34.32-.73.42-1.18.29-.1-.03-.2-.06-.29-.1-.87-.41-1-.32-1.71-.05-.95.36-1.8.14-2.46-.63-.87-1.02-1.71-2.05-2.56-3.08-.28-.33-.49-.71-.51-1.16-.02-.56-.31-.88-.82-1.04-.03-.01-.06-.03-.1-.04-.5-.14-.87-.45-1.2-.84-.38-.44-.8-.85-1.2-1.27-.39-.4-.83-.5-1.35-.26-.33.15-.66.28-.99.42-.37.15-.75.23-1.15.23-.49,0-.87-.28-.97-.75-.11-.5-.2-1.01-.24-1.52-.04-.51-.17-.98-.39-1.42-.15-.29-.3-.58-.45-.87-.11-.23-.17-.51-.33-.69-.18-.19-.46-.29-.69-.43-.85-.5-1.36-1.23-1.48-2.22-.06-.45-.03-.89.05-1.33.06-.34-.02-.61-.25-.84-.06-.06-.12-.13-.17-.19-.44-.53-.7-1.13-.74-1.82-.02-.27-.04-.55-.06-.82-.04-.71-.33-1.32-.81-1.84-.22-.24-.46-.46-.69-.69-.63-.64-1.21-1.31-1.52-2.17-.03-.07-.11-.12-.17-.18,0-.21,0-.41,0-.62.05-.04.13-.07.15-.13.15-.45.41-.83.68-1.2.25-.35.36-.73.31-1.16-.1-.8.13-1.52.54-2.2.16-.26.3-.54.4-.83.27-.73.14-1.42-.32-2.03-.15-.2-.34-.39-.52-.56-.39-.37-.68-.81-.91-1.29-.2-.43-.14-.84.15-1.2.14-.17.3-.33.46-.48.34-.32.6-.69.73-1.16.17-.62.59-1.03,1.18-1.26.39-.15.78-.23,1.2-.27.32-.03.65-.06.97-.1.43-.06.72-.3.86-.71.04-.11.07-.23.09-.35.21-1,.75-1.75,1.64-2.25.27-.15.53-.31.81-.45.13-.07.21-.16.25-.3.15-.49.32-.98.45-1.47.13-.53.12-1.05-.13-1.55-.05-.11-.1-.22-.14-.33-.18-.53-.05-1.02.42-1.36.54-.38,1.1-.7,1.71-.91.57-.2,1.01-.57,1.31-1.09.12-.21.25-.41.4-.59.42-.53.96-.74,1.63-.6.23.05.47.06.71.07.29.01.53-.09.73-.31.62-.66,1.39-1.04,2.25-1.28.26-.07.53-.13.79-.21.43-.13.68-.48.65-.93-.02-.24-.06-.47-.1-.71-.12-.77.27-1.48,1.08-1.68.08-.02.17-.04.25-.06.62-.14,1.25-.22,1.88-.21.54.01.92-.23,1.16-.69.1-.18.18-.37.28-.55.14-.25.28-.51.44-.75.21-.32.49-.57.81-.77.46-.29.95-.36,1.47-.17.14.05.28.12.43.17q.75.29,1.49-.09c.67-.34,1.38-.51,2.13-.44.09,0,.17,0,.26.02.37.03.67-.11.92-.37.12-.12.22-.26.33-.39.34-.41.67-.83,1.01-1.23.11-.13.23-.26.36-.36.3-.24.63-.33,1.01-.21.1.03.19.07.29.1.43.15.84.12,1.23-.12.36-.22.76-.29,1.18-.27.15,0,.31.02.46.02,1.07.02,2.03-.26,2.81-1.03.53-.52,1.1-.71,1.81-.38.44.2.9.17,1.35-.02.06-.03.13-.05.19-.07.57-.24,1.13-.21,1.69.04.09.04.18.09.28.13.77.29,1.54.3,2.28-.1.53-.28,1.05-.56,1.61-.77Zm51.14,73.54h0c-.03-.07-.07-.15-.09-.23-.17-.54-.35-1.07-.52-1.61-.08-.25-.22-.46-.4-.65-.28-.3-.49-.31-.78-.03-.09.08-.16.17-.25.26-.37.4-.74.81-1.12,1.21-.08.09-.17.17-.26.24-.08.05-.17.04-.23-.04-.08-.09-.14-.2-.11-.33.04-.13.08-.26.13-.39.2-.55.39-1.09.59-1.64.19-.53.23-1.06.05-1.61-.14-.44-.25-.89-.4-1.33-.19-.57-.41-1.12-.63-1.68-.06-.14-.13-.28-.22-.41-.08-.12-.19-.2-.39-.11,0,.15,0,.32,0,.49,0,1.22,0,2.43,0,3.65,0,.27-.03.55-.07.82-.06.34-.29.44-.54.22-.85-.71-1.82-1.22-2.84-1.63-.5-.2-.84-.58-1.18-.96-.04-.05-.07-.12-.09-.18-.03-.12-.04-.24.06-.34.11-.1.22-.05.33,0,.12.07.24.14.35.21.51.31,1.03.62,1.55.92.33.19.66.36,1,.52.38.18.73-.12.73-.45,0-.92.03-1.85.04-2.77,0-.57-.01-1.14.19-1.68.16-.44.09-.79-.18-1.15-.6-.81-1.23-1.6-1.93-2.33-.45-.47-.87-.97-1.31-1.45-.36-.39-.71-.79-1.09-1.16-1.07-1.05-2.29-1.9-3.57-2.66-.37-.22-.73-.44-1.09-.68-2.17-1.45-4.47-2.66-6.78-3.85-.44-.23-.9-.41-1.39-.53-.91-.23-1.78-.17-2.55.38-.91.65-1.79,1.33-2.67,2.01-.45.35-.8.8-1.06,1.3-.05.09-.1.18-.13.28-.08.28.01.53.34.56.27.02.55.04.82.03.38,0,.74.06,1.11.19,2.08.72,4.03,1.71,5.89,2.87.09.05.18.11.25.18.29.3.19.62-.2.72-.51.13-.99.02-1.45-.2-.95-.44-1.89-.89-2.84-1.32-.4-.18-.81-.37-1.23-.5-.62-.19-1.25-.35-1.88-.49-.45-.1-.86.02-1.16.37-.37.43-.63.94-.78,1.49-.11.38.08.65.46.78.71.25,1.42.49,2.13.75.74.27,1.47.57,2.23.77.23.06.43.05.64-.04.55-.23,1.11-.45,1.67-.66.76-.29,1.55-.43,2.36-.45.8-.02,1.61-.01,2.41.01.64.02,1.25.17,1.79.54.54.37,1.15.5,1.81.39.81-.13,1.56.05,2.3.42.04.18.1.36.13.55.02.16-.17.3-.31.24-.14-.06-.27-.14-.41-.21-.64-.33-1.28-.37-1.91,0-.5.29-1.01.29-1.53.12-.16-.05-.32-.11-.49-.16-.68-.23-1.37-.41-2.09-.51-.6-.08-1.2-.07-1.79-.06-1.31.01-2.58.25-3.8.74-.32.13-.64.24-.97.34-.71.21-1.41.22-2.11-.05-.74-.28-1.48-.53-2.23-.77-.71-.23-.99-.09-1.29.6-.25.57-.4,1.16-.5,1.78.2.25.43.45.71.57.22.1.44.19.66.29.34.15.69.3,1.03.45.2.09.35.23.42.43.11.3.13.6.04.91-.05.17-.15.31-.28.42-.18.14-.35.18-.57.07-.43-.21-.87-.41-1.31-.59-.19-.08-.39-.14-.59-.16-.31-.04-.45.1-.46.4-.01.4.05.79.16,1.16.27.88.86,1.46,1.69,1.81.34.14.68.32,1.01.49.1.05.16.17.23.27.24.38.47.76.7,1.14.07.12.14.23.22.35.23.33.39.34.64.05.1-.12.18-.25.28-.37.23-.26.44-.53.69-.75.61-.53,1.27-.99,1.97-1.39,2.37-1.38,4.92-1.93,7.64-1.63.93.1,1.87.24,2.8.36.24.03.48.06.71.11.24.05.47.13.49.43-.2.21-.43.29-.7.27-.27-.02-.55-.04-.82-.07-.68-.07-1.36-.15-2.05-.06-.68.08-1.36.18-2.03.27-.37.05-.75.06-1.11.2-1.39.54-2.78,1.06-4.16,1.61-1.03.41-1.84,1.11-2.49,2-.1.14-.19.28-.27.43-.18.34-.21.69-.04,1.04.2.4.41.79.64,1.17.17.27.45.27.61,0,.25-.4.58-.72.98-.97.51-.32,1.02-.63,1.55-.91,1.05-.55,2.17-.92,3.31-1.24.31-.09.63-.17.94-.25.22-.06.41.02.54.21.08.11.15.22.21.32.17,0,.3,0,.44,0,.63-.02,1.27-.06,1.9-.06,1.05,0,2.07.18,3.06.56.43.16.87.31,1.32.41,1.12.25,2.14.71,3.09,1.33.68.45,1.34.95,2,1.43.32.23.53.53.56.94.33.14.45.46.63.73.41.64.66.72,1.36.41.25-.11.51-.2.79-.22.13-.01.27,0,.4.03.24.07.35.3.24.53-.06.12-.14.23-.22.34-.21.29-.43.57-.65.86-.09.11-.16.23-.06.41.58.16,1.18.34,1.8.48.17.04.38,0,.55-.07.36-.16.71-.35,1.04-.56.32-.2.34-.46.07-.72-.28-.28-.58-.53-.87-.8-.26-.24-.53-.49-.79-.73-.16-.15-.24-.32-.14-.54.04-.03.07-.06.1-.06.51.02,1.02.02,1.53.07.23.02.4.19.47.42.05.15.08.3.12.45.07.23.17.45.35.62.15.13.31.2.54.09-.08-.44-.2-.86-.31-1.29-.12-.5-.32-.97-.7-1.38.1-.29-.01-.56-.16-.81-.17-.29-.34-.59-.53-.88-.12-.18-.25-.37-.46-.46Zm-5.08,6.44c-.24-.09-.46-.16-.66-.25-.26-.12-.54-.24-.76-.41-.81-.65-1.73-1.11-2.68-1.49-1.25-.5-2.54-.67-3.88-.54-.71.07-1.43.15-2.14.22-.34.04-.68.06-1.02.11-1.72.26-3.15,1.1-4.41,2.26-.5.46-.7,1.05-.64,1.72.02.24.08.47.14.7.09.35.2.69.28,1.04.05.23.11.48.08.71-.11.68.07,1.29.37,1.88.09.18.19.36.29.54-.11.27-.18.54-.31.78-.37.64-.47,1.3-.34,2.03.05.28.02.58,0,.87-.06.52-.29.98-.6,1.4-.39.51-.68,1.07-.95,1.64-.11.23-.2.46-.16.77.17-.08.31-.13.45-.2.25-.13.52-.16.8-.12.7.09,1.39.19,2.06.41,1.52.51,3.06.98,4.57,1.53,1.85.68,3.51,1.69,4.9,3.12.02.02.05.05.07.07.26.23.56.22.75-.07.37-.55.73-1.12.98-1.74.11-.28.1-.58-.05-.85-.1-.19-.23-.38-.37-.55-.53-.63-1.17-1.11-1.91-1.45-1.06-.48-2.11-.98-3.19-1.41-1.79-.72-3.61-1.38-5.41-2.07-.18-.07-.35-.14-.52-.21-.15-.06-.25-.18-.3-.33-.11-.31-.05-.43.28-.51.17-.04.33-.05.51-.02.32.06.64.1.96.16,1.13.19,2.26.39,3.33.81.73.28,1.47.55,2.21.83.99.37,1.97.78,2.91,1.27,1.31.68,1.39.75,2.18,1.81.06.08.13.13.19.19.29-.16.42-.38.47-.67.15-.82.32-1.65.48-2.47.01-.06,0-.13-.01-.19-1.15-.81-2.35-1.49-3.59-2.12-1.27-.65-2.61-1.12-4.01-1.38-.35-.07-.7-.15-1.05-.22-.38-.08-.5-.35-.53-.72.62-.07,1.21-.18,1.8-.21,1.64-.09,3.15.34,4.52,1.24.49.32.97.64,1.45.98.34.24.67.48.97.75.24.22.5.34.84.34.15-.27.14-.59.2-.89.28-1.36.48-2.73.48-4.12,0-1.51.02-3.01.03-4.52,0-.14-.01-.27-.02-.45Zm-33.94,42.89c.24.16.45.14.66.04,1-.44,2.01-.87,3-1.32.68-.31,1.16-.84,1.48-1.51.2-.42.34-.86.41-1.32.09-.59.16-1.19.27-1.78.12-.66-.02-1.21-.51-1.69-.35-.35-.66-.74-.97-1.13-.21-.26-.17-.55.07-.78.09-.08.19-.14.28-.22.08-.07.15-.14.21-.22.06-.09.06-.2,0-.29-.08-.1-.18-.08-.28-.02-.38.23-.76.46-1.06.8-.63.69-1.39,1.21-2.26,1.57-.73.31-1.49.49-2.27.6-.29.04-.58.08-.87.1-.45.02-.7-.17-.84-.59-.02-.05-.02-.1-.04-.15-.17-.66-.61-1-1.27-1.1-.7-.11-1.39-.14-2.1-.11-.52.02-1.02.14-1.5.32-.54.19-.64.33-.66.9-.01.36.01.72-.01,1.08-.04.64-.27,1.16-.91,1.42-.24.09-.47.2-.71.29-.54.21-.99.54-1.32,1.02-.52.75-.68,1.6-.7,2.48,0,.23.03.48.24.68.05-.15.1-.27.14-.4.14-.46.27-.92.42-1.37.14-.44.23-.5.71-.5.07,0,.14,0,.21,0,.52.06,1.02-.01,1.53-.1.59-.1,1.18-.19,1.77-.29.21-.04.41-.01.61.06.25.09.4.27.41.53,0,.15,0,.31-.05.45-.21.62-.56,1.14-1.23,1.35-.31.1-.53.3-.72.55-.27.36-.54.7-.82,1.05-.12.15-.24.29-.35.44-.11.16-.17.33-.08.52,1.08-.22,1.36-.39,2-1.22.24-.31.51-.6.82-.84.56-.45.41-.44,1.1-.31.52.1,1.02.03,1.47-.29.36-.25.76-.36,1.2-.43.55-.08,1.09-.03,1.64.03.13.01.26.08.37.15.25.17.41.41.44.72.03.27.04.54.06.84Zm20.53-50.33c-.17.02-.29.01-.4.06-.19.08-.36.19-.54.3-.27.17-.41.39-.35.73.09.55-.13,1.01-.49,1.4-.18.2-.38.4-.56.6-.51.55-1.03,1.1-1.53,1.66-.11.13-.21.27-.31.41-.1.15-.07.3.04.43.05.07.12.12.19.18.18.16.24.38.22.6-.02.18-.08.37-.13.55-.04.13-.11.25-.16.38-.01.03,0,.07,0,.1.06.13.13.25.3.22.02-.01.04-.02.04-.03.04-.07.09-.14.13-.22.33-.72.84-1.29,1.48-1.74.29-.21.6-.39.92-.57.51-.28,1.02-.57,1.54-.83.4-.2.81-.38,1.23-.52.68-.23,1.39-.36,2.1-.45,1.16-.15,2.32-.14,3.48.08,1.73.33,3.28,1.07,4.67,2.13.58.44,1.07.95,1.45,1.58.04.07.1.14.16.23.06-.07.11-.12.13-.18.19-.43.26-.89.16-1.36-.11-.48-.25-.96-.38-1.44-.03-.13-.11-.21-.23-.26-.7-.34-1.29-.83-1.89-1.32-.65-.53-1.37-.96-2.15-1.29-.98-.42-2-.7-3.04-.93-.51-.11-1.02-.15-1.53-.13-1.1.06-2.17.28-3.19.7-.22.09-.45.16-.68.21-.25.05-.5.05-.76-.07.03-.4.06-.77.1-1.21Zm8.23,28.22c-.05-.06-.08-.12-.13-.17-.52-.67-1.2-1.16-1.92-1.61-1.69-1.05-3.45-1.96-5.25-2.8-1.09-.51-2.27-.76-3.41-1.1-.06-.02-.13-.02-.2-.03-.39-.05-.72-.22-.99-.49-.15-.14-.29-.29-.44-.44-.27.11-.43.28-.53.54-.32.88-.65,1.77-.97,2.65-.02.06-.01.13-.02.19.35.27.75.38,1.13.5,1.57.52,3.15,1.04,4.73,1.54,1.42.45,2.71,1.13,3.91,2,.57.41,1.13.84,1.69,1.26.12.09.24.19.37.27.3.18.61.15.82-.13.52-.66.94-1.38,1.2-2.2Zm-54.53-2.35c.16-.2.34-.26.59-.2.22.05.42.15.6.27.88.59,1.76,1.19,2.64,1.78.77.52,1.57.97,2.43,1.33.16.07.32.12.48.17.2.06.37-.02.5-.17.13-.15.17-.33.14-.53-.06-.38-.22-.72-.54-.96-.43-.31-.86-.63-1.3-.92-1.4-.94-2.5-2.17-3.4-3.59-.04-.07-.08-.15-.1-.23-.03-.11.01-.21.11-.27.07-.04.17-.06.24-.03.14.06.27.15.4.23,1.06.72,2.13,1.44,3.19,2.16.11.08.23.15.35.22.09.06.2.08.29.02.1-.06.1-.17.09-.28,0-.03,0-.07-.01-.1-.07-.47-.14-.95-.22-1.42-.06-.38-.24-.71-.52-.98-.15-.14-.31-.27-.47-.4-.48-.42-.89-.9-1.21-1.46-.07-.12-.12-.25-.15-.38-.05-.26.1-.4.35-.36.21.03.38.14.54.28.15.14.3.29.52.32.09.01.19-.01.3-.03-.07-.8-.13-1.57-.26-2.33-.1-.58-.26-1.13-.51-1.66-.04-.09-.11-.17-.16-.25-.25.12-.28.35-.36.56-.34.93-.66,1.87-1.02,2.8-.33.86-.8,1.63-1.51,2.23-.63.53-1.21,1.11-1.78,1.7-.69.71-1.38,1.42-2.06,2.15-.68.74-1.2,1.58-1.5,2.54-.06.2-.12.39-.15.6-.04.25,0,.34.19.6.18-.13.36-.26.54-.38.44-.28.66-.67.63-1.21,0-.18.02-.38.08-.55.18-.54.76-.71,1.11-.55.17.08.34.17.48.28.28.22.55.46.83.69.21.17.42.35.65.51.28.2.5.25.82.22-.01-.08,0-.18-.04-.24-.07-.11-.17-.21-.27-.31-.36-.37-.73-.72-1.09-1.09-.21-.22-.4-.47-.45-.79Zm50.2,9.07c.69-.52,1.14-1.19,1.39-2,.11-.36.04-.68-.22-.95-.2-.21-.42-.41-.66-.57-2.08-1.35-4.24-2.57-6.47-3.65-.26-.13-.53-.21-.83-.24-.57-.05-1.11-.2-1.62-.44-.4-.19-.78-.42-1.17-.64-.13-.07-.26-.15-.41-.24-.76.91-1.24,1.92-1.34,3.08.06.04.08.07.11.08.32.12.64.24.96.35,2.29.77,4.48,1.78,6.56,3,1.08.63,2.14,1.29,3.21,1.94.16.1.32.19.49.29Zm-12.32-4.21c-.84.76-1.45,1.68-1.97,2.67-.06.12-.08.26.01.4.06.01.13.03.19.04.6.08,1.16.28,1.71.53.64.28,1.28.56,1.92.84,2.22.97,4.42,2.01,6.47,3.32.14.09.3.16.45.24.33.15.57.11.76-.17.37-.55.72-1.12,1.08-1.68.13-.2.11-.4-.04-.57-.16-.18-.33-.35-.53-.48-1-.65-2.01-1.3-3.03-1.93-.86-.53-1.75-1-2.68-1.4-1.14-.5-2.29-1-3.43-1.49-.3-.13-.59-.26-.93-.32Zm-53.15,7.51c.49.23.58.23.87-.07.21-.22.42-.45.6-.7.65-.87,1.51-1.25,2.58-1.19.56.04,1.13.07,1.69.14.61.07,1.16-.06,1.63-.46.65-.54,1.36-.98,2.09-1.39.16-.09.33-.18.48-.29.09-.07.19-.17.21-.27.11-.47.37-.84.63-1.22.1-.15.21-.32.27-.49.14-.42-.17-.81-.61-.77-.13.01-.27.05-.4.1-1.89.6-3.78,1.2-5.66,1.81-.21.07-.42.16-.62.25-.46.21-.84.52-1.14.93-.43.57-.88,1.13-1.31,1.71-.36.48-.71.97-1.05,1.46-.1.14-.16.29-.26.47Zm41.69-6.09c-.04.1-.08.16-.09.22-.04.24-.03.48.03.71.16.63.32,1.26.47,1.89.37,1.51.82,3.01.79,4.59,0,.16.04.31.21.42.51-.08,1.01-.22,1.52-.37.13-.04.24-.13.35-.21.41-.31.83-.61,1.22-.93.34-.28.67-.58,1-.88.08-.08.19-.15.19-.34-.02-.02-.08-.05-.13-.09-.55-.4-1.09-.83-1.66-1.21-1.44-.96-2.69-2.11-3.68-3.53-.06-.08-.13-.15-.22-.26Zm-7.34,26.65c-.28.07-.45.25-.57.45-.15.24-.32.47-.32.79.02,1.54.02,3.08.03,4.62,0,.14,0,.28.03.41.07.3.26.5.55.52.63.04,1.26.06,1.9.07.25,0,.45-.19.5-.43.02-.12.02-.24.02-.36.02-.44.02-.89.07-1.33.12-1.08-.08-2.11-.47-3.11-.07-.17-.17-.33-.26-.49-.28,0-.54-.02-.79-.02-.15,0-.25-.08-.33-.2-.18-.27-.34-.54-.36-.9Zm26.7-18.22c-.12-.1-.24-.2-.36-.29-.96-.72-1.95-1.38-3-1.96-.96-.53-1.93-1.03-2.9-1.53-1.14-.58-2.27-1.18-3.3-1.95-.27-.2-.52-.4-.46-.8-.26.06-.41.22-.57.38-.19.2-.2.39-.01.59.18.18.38.34.59.49.96.68,1.94,1.35,2.89,2.03,1.74,1.25,3.43,2.56,4.95,4.06.2.19.43.33.7.43.3-.17.6-.33.88-.52.33-.21.54-.51.59-.93Zm16.05,18.12c-.26-.09-.52-.05-.79.01-.85.21-1.71.32-2.58.38-.96.07-1.91.14-2.87.22-1.32.12-2.63.1-3.95.01-1.09-.08-2.18-.16-3.27-.26-.72-.06-1.43-.12-2.14-.21-.51-.07-1.02-.11-1.5-.3-.02,0-.06.01-.12.03.07.14.14.26.2.37.32.07.6.13.89.19.87.18,1.73.41,2.62.49.56.05,1.12.13,1.67.25.25.05.51.08.76.11.99.12,1.98.11,2.97.12,1.3,0,2.6-.11,3.9-.16.62-.03,1.23,0,1.84.12.24.05.47.05.71-.04.59-.24,1.11-.61,1.61-1,.1-.08.14-.19.08-.34Zm-55.3-7.32c-.41-.24-.81-.37-1.23-.42-1.65-.21-3.25-.63-4.85-1.06-.2-.05-.4-.12-.52-.31-.08-.13-.21-.16-.34-.2-.71-.24-1.42-.48-2.14-.71-.18-.06-.36-.09-.55-.13-.22-.04-.41.04-.58.16-.21.14-.22.45-.03.62.08.07.16.13.25.18.32.16.63.35.97.46,1.31.45,2.62.88,3.94,1.3.75.24,1.53.34,2.33.3.79-.04,1.57-.08,2.36-.12.13,0,.26-.05.4-.08Zm39.51,1.62c.18.04.36.09.54.13.74.16,1.46.38,2.14.7.53.25,1.06.48,1.59.72.42.19.86.35,1.27.55.37.18.66.07.93-.18.2-.18.2-.45,0-.63-.1-.09-.23-.15-.34-.22-1.51-.89-3.13-1.45-4.85-1.75-.18-.03-.37-.06-.56-.05-.42.02-.64.25-.72.74Zm2.86-2.57c-.26.03-.45.03-.63.07-.22.05-.28.27-.14.43.06.06.13.11.21.15.11.04.23.07.34.09.65.15,1.3.29,1.94.46.87.23,1.73.52,2.56.88.24.11.49.15.75.12.21-.03.37-.2.39-.41.02-.18-.08-.29-.23-.36-.11-.05-.21-.11-.32-.15-.42-.15-.83-.32-1.25-.44-.97-.26-1.95-.49-2.93-.72-.25-.06-.5-.09-.69-.12Zm17.7-34.21c-.08.47.09.81.39,1.1.4.37.88.58,1.42.65.3.04.58-.03.85-.14.32-.13.48-.47.37-.8-.17-.48-.48-.84-.99-.95-.68-.14-1.36-.13-2.04.15Zm-56.43-16.56c.05.33.1.62.12.9.02.29,0,.58-.02.87,0,.14-.01.27,0,.41,0,.1.04.19.06.3.24.02.46.05.68.06.1,0,.21,0,.3-.03.26-.06.36-.27.23-.5-.07-.12-.16-.22-.24-.33-.14-.19-.29-.37-.43-.56.14-.2.29-.27.5-.17.22.1.43.2.64.31.29.15.59.16.89.05.14-.05.29-.1.42-.18.08-.04.14-.13.2-.19-.32-.48-.39-.52-.87-.58-.07,0-.14-.02-.2-.02-.58,0-1.16-.04-1.68-.34-.18-.1-.39-.1-.61,0Zm59.18,54.85c.19.09.36.17.49.23.12.24-.15.42-.02.62.34.02.41,0,.68-.14.39-.2.69-.5.98-.81.27-.29.29-.51.06-.82-.1-.13-.23-.25-.37-.34-.2-.14-.42-.14-.62,0-.27.2-.55.4-.81.62-.18.15-.34.34-.4.63Zm-25.68-52.39c-.21-.15-.38-.2-.58-.13-1.02.38-1.87.98-2.54,1.85-.26.34-.23.7-.04,1.06.09.18.3.2.42.04.1-.13.19-.29.29-.42.36-.48.71-.96,1.1-1.42.36-.41.77-.78,1.35-.98Zm-25.64-26.83c.11.13.16.21.22.24.11.05.22.08.34.1.54.1.99.34,1.41.69.41.34.83.66,1.25.98.06.05.13.08.21.11.13-.34.14-.34.04-.5-.4-.58-.88-1.09-1.52-1.41-.58-.29-1.19-.37-1.93-.22Zm-1.88,82.14c.19-.03.3-.14.38-.28.2-.36.53-.56.86-.78.3-.2.56-.44.82-.69.16-.15.26-.36.16-.59-.16-.06-.28-.01-.39.09-.46.47-1.01.81-1.59,1.1-.3.15-.41.38-.46.68-.03.19.03.33.22.45Zm3.71-3.96c.16.11.3.13.45.07.6-.23,1.1-.6,1.51-1.09.11-.13.11-.28.07-.43-.03-.1-.11-.13-.2-.12-.06.01-.13.04-.18.08-.57.37-1.1.8-1.55,1.32-.04.05-.06.11-.1.17Zm16.66-53.82c-.02-.09-.02-.14-.04-.19-.23-.48-.5-.93-.92-1.26-.12-.09-.26-.17-.4-.22-.06-.02-.16,0-.23.04-.08.05-.09.15-.05.23.29.56.65,1.08,1.18,1.44.07.05.16.1.23.09.08-.01.15-.09.22-.13Zm19.46,50.97c-.54-.61-1.34-.83-2.04-.58-.08.03-.15.07-.14.17.03.02.05.05.08.06.57.18,1.13.35,1.7.53.17.05.3,0,.4-.19Zm-39.83,2.8c-.25,0-.32.16-.36.33-.14.74-.16,1.49.08,2.22.02.06.06.11.12.19.12-.53.22-2.19.16-2.74Zm27.82,4.99s-.09-.03-.13-.04c-.85-.09-1.69-.17-2.52-.38-.03,0-.07-.01-.1,0-.03,0-.08.03-.08.05,0,.04,0,.1.02.13.03.04.08.07.12.09.84.43,1.72.49,2.62.25.02,0,.04-.05.07-.08Zm-9.82-20.4c0,.17.04.35.18.5.12.14.3.18.46.13.18-.07.3-.24.29-.43,0-.26-.25-.53-.51-.56-.2-.02-.42.16-.43.37Zm-26.71,6.64c-.14.07-.26.13-.37.2-.23.16-.23.36-.02.55.15.14.33.18.52.1.11-.04.21-.11.3-.19.18-.15.18-.32-.02-.46-.12-.09-.27-.13-.41-.2Zm1.87-.31c.12.26.33.44.59.56.29-.15.34-.4.29-.66-.05-.3-.21-.53-.61-.26-.13.09-.24.18-.27.36Zm59.69,11.17c-.23.22-.41.39-.59.56.29.16.52.21.7.1.24-.15.45-.33.49-.66h-.61Zm-.24-.43c-.52.05-.74.19-1.09.71.21.03.41.05.57.08.15-.14.26-.27.39-.36.16-.1.17-.23.12-.43Zm-52.21-3.2c-.27.09-.34.27-.36.45-.03.26-.11.53.1.79.27-.38.32-.77.26-1.24Zm-11.79-5.98c.37.33.5.36.77.17.06-.04.13-.13.14-.2.01-.11-.07-.19-.17-.23-.3-.11-.53-.03-.74.25Zm59.28,11.75c.31.1.59.07.86.01.04,0,.09-.05.12-.09.03-.05.07-.13.06-.18-.01-.05-.09-.11-.14-.11-.15,0-.3,0-.45.04-.18.04-.34.11-.45.33Zm9.65-53.82c-.17.32-.22.57-.25.81,0,.03.02.07.05.08.04.02.12.03.14.01.05-.06.12-.13.12-.2,0-.2-.03-.4-.06-.71Zm-7.93,52.92c-.23.09-.44.17-.48.46.49.07.57,0,.48-.46Zm-3.19,1.36c-.19.05-.34.15-.45.31-.02.04-.03.1-.02.14.02.03.08.07.12.06.12,0,.24,0,.32-.12.08-.12.1-.25.03-.39Zm-59.67-29.53c-.52-.13-.53-.13-.85-.01.25.27.5.17.85.01Zm20.54,35.08c.18.04.27.07.36.08.15,0,.22-.15.15-.29-.06-.12-.19-.16-.29-.08-.07.06-.12.15-.22.29Zm43.67-28.99c.03.21.05.37.08.53,0,.02.05.04.08.04.03,0,.06-.03.07-.05.05-.19.02-.26-.23-.52Zm.11,4.48c.15-.04.19-.12.15-.23-.04-.1-.04-.24-.21-.21-.07.15-.06.28.06.44Zm-3.57,18.74c-.32-.04-.53.04-.8.13q.47.13.8-.13Zm-41.66-79.61c0-.52,0-.54-.28-.53.04.18.11.34.28.53Zm47.3,76.38s-.05-.05-.08-.08c-.07.03-.16.05-.22.1-.11.08-.14.21-.07.26.09.06.17.02.23-.04.06-.07.09-.16.14-.24Zm-22.24-55.05c-.36.1-.36.1-.56.29.23,0,.38-.06.56-.29Zm19.48,57.11c-.12-.14-.25-.15-.38-.14-.07,0-.12.04-.08.14h.46Zm-47.15-2.82c.17.08.28.08.34-.06.04-.09-.01-.15-.13-.18-.06.06-.12.13-.21.24Zm-15.29-24.3q-.28-.1-.49-.02c.15.04.29.07.49.02Zm58.82-21.66h-.42q.1.17.42,0Zm-48.19,41.85c-.09-.05-.16-.1-.24-.14-.02,0-.06.02-.09.03.01.02.02.06.04.07.08.06.15.13.29.04Zm3.87,5.03c.15.07.22-.02.3-.1-.14-.07-.24-.05-.3.1Zm-13.59-24.75c-.12-.08-.19-.13-.36-.25.09.21.13.3.36.25Zm4.81,12.74c.09-.05.15-.11.11-.2,0-.01-.05-.01-.08-.02,0,.07-.02.14-.02.21Zm55.9-34.28c-.07-.06-.1-.11-.13-.11-.05,0-.1.05-.15.08.03.04.06.1.08.1.05,0,.1-.04.19-.07Zm1.63-2.46s-.07-.05-.11-.07c-.02.04-.04.07-.06.11.04.02.08.04.12.06.01-.03.03-.06.05-.1Zm-64.27,23s.02-.06.03-.07c-.01,0-.03,0-.03,0,0,.01,0,.03,0,.07Zm68.4-23.83s-.05-.03-.07-.04c0,.01-.02.03-.02.04.01.03.03.05.05.07.01-.02.03-.05.04-.07Zm-27.46-3.72s-.04,0-.06,0c0,.06,0,.11-.01.17.02,0,.04,0,.06,0,0-.06,0-.11.01-.17Zm-43.59,46.35s.05-.02.08-.03c-.01-.01-.02-.03-.03-.03-.03,0-.05.02-.08.02,0,.01.02.02.03.04Z"/><path class="cls-14" d="m685.56,166.75c.35-.31.7-.64,1.06-.93.81-.65,1.44-1.43,1.88-2.35.23-.48.04-.73-.51-.73-.34,0-.63.09-.89.31-1.01.82-2.04,1.62-3.05,2.44-.29.24-.54.52-.82.78-.08.08-.17.15-.26.22-.25.2-.53.37-.76.59-1.03.97-2.05,1.95-3.06,2.93-.4.39-.77.83-1.17,1.22-.47.46-.96.9-1.45,1.34-.09.08-.17.11-.25.1-.06.15-.1.31-.1.47,0,.01,0,.02,0,.04-.06,1.07.6,1.8,1.4,2.37.04,0,.08,0,.12,0,.67.04,1.17-.22,1.58-.73,1.7-2.08,3.56-4.03,5.46-5.94.17-.17.34-.35.49-.51-.02-.11-.03-.19-.05-.26-.16-.53-.04-.99.38-1.37Z"/><path class="cls-7" d="m762.56,125.46c.22.09.34.28.46.46.19.28.36.58.53.88.15.26.26.52.16.81.38.41.58.88.7,1.38.11.43.23.85.31,1.29-.23.1-.39.04-.54-.09-.18-.17-.29-.38-.35-.62-.04-.15-.07-.3-.12-.45-.07-.23-.24-.4-.47-.42-.51-.05-1.02-.05-1.53-.07-.03,0-.06.03-.1.06-.1.21-.02.38.14.54.26.24.53.49.79.73.29.27.59.52.87.8.27.26.25.52-.07.72-.33.21-.68.4-1.04.56-.16.07-.38.11-.55.07-.61-.14-1.22-.32-1.8-.48-.09-.19-.03-.3.06-.41.22-.29.44-.57.65-.86.08-.11.16-.22.22-.34.11-.22,0-.46-.24-.53-.13-.04-.27-.05-.4-.03-.27.02-.53.11-.79.22-.71.31-.95.23-1.36-.41-.17-.27-.29-.59-.63-.73-.03-.41-.24-.71-.56-.94-.67-.48-1.32-.98-2-1.43-.95-.63-1.98-1.08-3.09-1.33-.45-.1-.89-.25-1.32-.41-.99-.37-2.01-.56-3.06-.56-.63,0-1.27.04-1.9.06-.14,0-.27,0-.44,0-.06-.1-.13-.21-.21-.32-.13-.19-.32-.26-.54-.21-.31.08-.63.16-.94.25-1.14.32-2.26.7-3.31,1.24-.53.28-1.04.59-1.55.91-.39.25-.73.56-.98.97-.16.27-.45.27-.61,0-.23-.38-.44-.77-.64-1.17-.18-.35-.14-.7.04-1.04.08-.15.17-.3.27-.43.65-.89,1.46-1.59,2.49-2,1.38-.55,2.77-1.07,4.16-1.61.36-.14.74-.15,1.11-.2.68-.09,1.36-.19,2.03-.27.69-.08,1.37,0,2.05.06.27.03.55.04.82.07.27.02.5-.06.7-.27-.02-.3-.25-.38-.49-.43-.23-.05-.47-.08-.71-.11-.93-.12-1.86-.26-2.8-.36-2.73-.3-5.27.25-7.64,1.63-.7.41-1.36.87-1.97,1.39-.26.22-.47.5-.69.75-.1.12-.18.25-.28.37-.25.29-.41.28-.64-.05-.08-.11-.15-.23-.22-.35-.23-.38-.46-.76-.7-1.14-.06-.1-.13-.21-.23-.27-.33-.18-.66-.35-1.01-.49-.84-.35-1.43-.93-1.69-1.81-.11-.38-.17-.77-.16-1.16,0-.31.15-.44.46-.4.2.02.4.08.59.16.44.19.88.38,1.31.59.22.11.39.07.57-.07.14-.11.23-.25.28-.42.1-.31.07-.61-.04-.91-.07-.2-.22-.34-.42-.43-.34-.15-.69-.3-1.03-.45-.22-.1-.44-.19-.66-.29-.29-.13-.52-.33-.71-.57.1-.62.25-1.21.5-1.78.3-.69.58-.83,1.29-.6.75.24,1.49.49,2.23.77.71.26,1.41.26,2.11.05.33-.1.65-.21.97-.34,1.22-.5,2.49-.73,3.8-.74.6,0,1.2-.02,1.79.06.72.1,1.41.28,2.09.51.16.05.32.11.49.16.53.17,1.04.17,1.53-.12.63-.37,1.27-.34,1.91,0,.14.07.27.15.41.21.15.06.33-.09.31-.24-.02-.18-.08-.36-.13-.55-.74-.36-1.49-.55-2.3-.42-.66.11-1.26-.02-1.81-.39-.54-.37-1.15-.52-1.79-.54-.8-.02-1.61-.03-2.41-.01-.81.02-1.6.17-2.36.45-.56.21-1.12.43-1.67.66-.22.09-.41.1-.64.04-.76-.2-1.49-.49-2.23-.77-.71-.26-1.41-.51-2.13-.75-.38-.13-.57-.4-.46-.78.16-.55.41-1.06.78-1.49.3-.35.71-.47,1.16-.37.63.15,1.26.3,1.88.49.42.13.83.32,1.23.5.95.43,1.89.88,2.84,1.32.46.21.94.32,1.45.2.39-.1.49-.42.2-.72-.07-.07-.16-.13-.25-.18-1.87-1.15-3.82-2.14-5.89-2.87-.36-.13-.72-.19-1.11-.19-.27,0-.55,0-.82-.03-.33-.03-.42-.28-.34-.56.03-.1.08-.19.13-.28.27-.51.61-.95,1.06-1.3.88-.68,1.76-1.36,2.67-2.01.77-.55,1.65-.61,2.55-.38.48.12.94.31,1.39.53,2.31,1.19,4.61,2.4,6.78,3.85.36.24.72.46,1.09.68,1.28.77,2.5,1.62,3.57,2.66.38.37.73.77,1.09,1.16.44.48.85.98,1.31,1.45.71.73,1.33,1.52,1.93,2.33.27.36.34.71.18,1.15-.2.54-.18,1.11-.19,1.68-.01.92-.04,1.85-.04,2.77,0,.34-.34.63-.73.45-.34-.16-.68-.33-1-.52-.52-.3-1.03-.61-1.55-.92-.12-.07-.24-.14-.35-.21-.11-.06-.22-.11-.33,0-.1.09-.09.22-.06.34.01.06.04.13.09.18.35.38.68.76,1.18.96,1.02.41,1.98.92,2.84,1.63.25.21.48.12.54-.22.05-.27.07-.54.07-.82,0-1.22,0-2.43,0-3.65,0-.17,0-.34,0-.49.19-.09.31,0,.39.11.09.13.16.26.22.41.22.56.44,1.11.63,1.68.15.44.25.89.4,1.33.18.55.14,1.08-.05,1.61-.2.55-.4,1.09-.59,1.64-.05.13-.09.26-.13.39-.04.13.03.23.11.33.06.07.15.09.23.04.1-.07.18-.16.26-.24.37-.4.74-.8,1.12-1.21.08-.09.16-.18.25-.26.29-.28.49-.27.78.03.18.19.32.4.4.65.17.54.34,1.08.52,1.61.03.08.06.16.09.23-.68-.18-.99-.08-1.35.47-.44.66-.99,1.22-1.65,1.66-.27.18-.56.33-.83.51-.09.06-.17.15-.25.22.27.48.56.63,1.06.54.51-.09.98-.3,1.35-.68.73-.74,1.34-1.54,1.54-2.6,0-.05.08-.09.13-.13Zm-28.83-4.19c.35-.31.62-.59.85-.92.69-1.01,1.62-1.76,2.68-2.34.87-.48,1.78-.88,2.72-1.21,1.04-.36,2.11-.6,3.21-.65.77-.03,1.54-.01,2.31,0,.43,0,.86.07,1.26.23.54.21,1.09.28,1.66.29.82.01,1.64.11,2.43.34.81.24,1.62.21,2.44.05.1-.02.19-.07.28-.12.12-.07.13-.2.04-.31-.14-.16-.31-.26-.52-.3-.86-.13-1.72-.28-2.58-.41-.83-.12-1.66-.24-2.47-.47-.51-.15-1.04-.22-1.57-.25-.22-.01-.44-.03-.67-.05-.9-.06-1.81-.14-2.71-.18-.84-.04-1.68,0-2.51.16-2.3.42-4.29,1.47-6.02,3.02-.27.24-.51.51-.69.82-.42.71-.44,1.45-.13,2.28Zm2.76-17.19c.23.31.54.41.84.51.29.1.59.18.86.32,1.03.51,2.04,1.03,3.06,1.55.99.51,1.94,1.08,2.76,1.84.04.03.08.07.12.1.09.06.2.03.26-.07.09-.14.09-.28.02-.44-.32-.75-.83-1.33-1.53-1.74-1.21-.71-2.42-1.4-3.64-2.1-.46-.27-.97-.42-1.5-.51-.51-.09-.94.05-1.27.54Zm21.23,21.63c0-.11,0-.13,0-.14-.03-.06-.05-.13-.08-.19-.44-.78-1.04-1.4-1.82-1.83-.28-.16-.57-.3-.87-.44-1.16-.51-2.27-1.12-3.34-1.79-.17-.11-.35-.22-.53-.31-.22-.11-.41-.04-.5.18-.1.23-.06.42.14.6.14.12.29.24.44.35.66.43,1.37.79,2.14.98.96.24,1.83.67,2.63,1.24.46.33.9.68,1.35,1.02.14.1.27.2.45.34Zm-10.93-19c-.22.08-.27.23-.23.42.05.25.11.5.16.75.21,1.06.39,2.12.32,3.2,0,.1.03.2.04.31.08,0,.15.03.22.01.25-.06.35-.24.38-.49.07-.68.04-1.37-.01-2.05-.03-.34-.11-.67-.2-1-.09-.35-.24-.68-.46-.97-.06-.08-.14-.13-.21-.19Zm5.85,4.29c-.04.14-.09.25-.1.36-.1,1.11-.01,2.22-.02,3.32,0,.13.05.24.15.3.13.08.25.19.42.07.02-.04.05-.09.06-.14.02-.08.04-.17.05-.25.15-1.04.16-2.07.02-3.11-.04-.32-.21-.48-.58-.56Zm-2.29,1.2c.03-.12.07-.21.08-.31.04-.36.07-.71.09-1.07.03-.49.02-.99-.05-1.48-.03-.18-.09-.33-.23-.44-.19-.14-.42-.09-.5.14-.04.13-.07.26-.08.4-.08.82.2,1.94.69,2.76Zm4.95,1.76c-.04.16-.09.26-.09.37-.02,1.01-.03,2.01-.03,3.02,0,.1.01.21.03.3.05.2.16.32.29.31.2-.02.33-.17.33-.38,0-.09,0-.17-.02-.26-.08-.92-.17-1.84-.25-2.75-.01-.15-.04-.3-.08-.45-.01-.05-.09-.09-.17-.17Zm-22.57,6.66c.2-.13.25-.29.31-.44.08-.21.06-.43,0-.64-.02-.06-.12-.11-.19-.13-.02,0-.1.09-.11.14,0,.34,0,.67,0,1.08Zm-.78-1.85c-.2-.12-.29-.19-.39-.24-.07-.03-.15.06-.14.16.01.1.07.16.16.16.08,0,.16-.03.37-.08Zm11.46-13.16q0-.46-.25-.6c.03.2.09.36.25.6Zm20.27,22.17s-.03-.02-.04-.03c-.01.03-.03.05-.04.08,0,0,.02.02.04.03.01-.03.03-.05.04-.08Z"/><path class="cls-12" d="m757.48,131.9c.01.18.03.31.02.45-.01,1.51-.03,3.01-.03,4.52,0,1.39-.21,2.76-.48,4.12-.06.3-.05.61-.2.89-.33,0-.59-.11-.84-.34-.3-.28-.64-.52-.97-.75-.48-.34-.96-.66-1.45-.98-1.37-.91-2.88-1.34-4.52-1.24-.6.03-1.19.14-1.8.21.03.37.15.64.53.72.35.07.7.16,1.05.22,1.41.26,2.74.73,4.01,1.38,1.24.63,2.44,1.31,3.59,2.12,0,.06.02.13.01.19-.16.82-.33,1.64-.48,2.47-.05.29-.18.51-.47.67-.06-.06-.14-.12-.19-.19-.79-1.06-.87-1.13-2.18-1.81-.94-.49-1.92-.9-2.91-1.27-.74-.28-1.48-.55-2.21-.83-1.08-.41-2.2-.62-3.33-.81-.32-.05-.64-.09-.96-.16-.17-.03-.34-.02-.51.02-.32.07-.39.2-.28.51.06.15.15.27.3.33.17.08.35.15.52.21,1.81.69,3.62,1.36,5.41,2.07,1.08.43,2.13.93,3.19,1.41.74.34,1.38.82,1.91,1.45.14.17.27.36.37.55.14.27.16.57.05.85-.25.62-.61,1.19-.98,1.74-.2.29-.49.3-.75.07-.03-.02-.05-.05-.07-.07-1.39-1.42-3.04-2.44-4.9-3.12-1.51-.55-3.05-1.02-4.57-1.53-.67-.23-1.36-.32-2.06-.41-.28-.04-.55,0-.8.12-.13.07-.27.12-.45.2-.04-.31.05-.54.16-.77.28-.57.57-1.13.95-1.64.32-.41.54-.88.6-1.4.03-.29.06-.59,0-.87-.13-.72-.03-1.39.34-2.03.14-.23.21-.51.31-.78-.1-.18-.19-.36-.29-.54-.3-.59-.48-1.2-.37-1.88.04-.23-.02-.48-.08-.71-.08-.35-.19-.69-.28-1.04-.06-.23-.11-.47-.14-.7-.06-.67.15-1.26.64-1.72,1.26-1.16,2.69-2,4.41-2.26.34-.05.68-.08,1.02-.11.71-.08,1.43-.15,2.14-.22,1.34-.14,2.63.04,3.88.54.96.38,1.87.84,2.68,1.49.22.18.5.29.76.41.2.09.41.16.66.25Zm-.85,6.62c.09-.28-.06-.47-.22-.65-.9-1-1.97-1.76-3.26-2.16-.52-.16-1.06-.27-1.6-.35-.9-.13-1.8-.21-2.7-.34-1.4-.2-2.73.07-4.02.55-.77.28-1.35.8-1.73,1.53-.09.18-.15.38-.2.58-.04.15.03.26.17.34.14.08.27.12.44.05.29-.12.54-.28.78-.49.77-.68,1.67-.97,2.7-.89.37.03.75.02,1.13,0,1.19-.05,2.36-.02,3.51.33.23.07.46.11.7.17,1.2.3,2.38.63,3.47,1.24.27.15.55.16.84.07Zm-3.01-5.48s0-.02,0-.03c.02,0,.03,0,.05,0,.19.01.33-.07.41-.24.07-.15,0-.26-.09-.37-.24-.32-.56-.49-.95-.53-.61-.06-1.22-.13-1.83-.19-.75-.07-1.5-.11-2.25.01-1.86.3-3.58.99-5.18,1.99-.4.25-.75.59-1.11.9-.09.07-.16.18-.21.29-.11.26.04.49.32.49.13,0,.27-.05.39-.1.74-.32,1.48-.62,2.2-.97,1.55-.75,3.18-1.22,4.86-1.56.9-.18,1.8-.16,2.68.16.22.08.46.1.7.15Zm2.85,1.57c.09-.05.18-.08.23-.14.06-.09.04-.2-.04-.28-.29-.29-.58-.57-.94-.77-.12-.06-.25-.1-.38-.13-.08-.02-.17-.01-.25.01-.22.06-.28.26-.12.43.24.26.51.5.84.65.21.1.44.15.67.22Z"/><path class="cls-8" d="m723.54,174.79c-.02-.3-.03-.57-.06-.84-.03-.31-.19-.55-.44-.72-.11-.07-.25-.14-.37-.15-.54-.06-1.09-.11-1.64-.03-.43.06-.84.18-1.2.43-.45.32-.95.39-1.47.29-.69-.13-.54-.13-1.1.31-.31.25-.58.53-.82.84-.64.84-.92,1-2,1.22-.09-.19-.03-.36.08-.52.1-.16.23-.3.35-.44.27-.35.55-.7.82-1.05.19-.25.41-.46.72-.55.67-.21,1.01-.72,1.23-1.35.05-.14.06-.3.05-.45-.02-.26-.17-.45-.41-.53-.19-.07-.4-.09-.61-.06-.59.1-1.18.19-1.77.29-.51.09-1.01.17-1.53.1-.07,0-.14,0-.21,0-.47,0-.56.06-.71.5-.15.46-.28.92-.42,1.37-.04.13-.09.26-.14.4-.21-.2-.24-.45-.24-.68.01-.89.18-1.74.7-2.48.33-.48.78-.81,1.32-1.02.24-.09.47-.2.71-.29.65-.25.87-.78.91-1.42.02-.36,0-.72.01-1.08.02-.57.12-.71.66-.9.48-.17.98-.29,1.5-.32.7-.03,1.4,0,2.1.11.66.1,1.1.44,1.27,1.1.01.05.02.1.04.15.13.43.39.61.84.59.29-.01.58-.05.87-.1.78-.11,1.54-.29,2.27-.6.87-.36,1.63-.88,2.26-1.57.31-.34.68-.57,1.06-.8.09-.06.2-.08.28.02.07.09.06.2,0,.29-.06.08-.13.16-.21.22-.09.08-.2.14-.28.22-.24.23-.27.52-.07.78.31.39.62.78.97,1.13.48.48.63,1.03.51,1.69-.11.59-.18,1.18-.27,1.78-.07.46-.21.9-.41,1.32-.32.67-.81,1.2-1.48,1.51-.99.46-2,.88-3,1.32-.22.1-.43.12-.66-.04Z"/><path class="cls-4" d="m744.06,124.46c-.04.45-.06.82-.1,1.21.26.12.51.12.76.07.23-.05.46-.12.68-.21,1.02-.42,2.09-.64,3.19-.7.51-.03,1.02.01,1.53.13,1.04.23,2.06.51,3.04.93.78.33,1.49.76,2.15,1.29.6.49,1.19.98,1.89,1.32.11.06.19.14.23.26.13.48.28.95.38,1.44.1.46.04.92-.16,1.36-.03.06-.08.1-.13.18-.07-.09-.12-.16-.16-.23-.38-.63-.87-1.14-1.45-1.58-1.4-1.06-2.94-1.8-4.67-2.13-1.15-.22-2.31-.22-3.48-.08-.71.09-1.42.22-2.1.45-.42.14-.83.32-1.23.52-.52.26-1.03.54-1.54.83-.31.18-.62.36-.92.57-.64.45-1.15,1.02-1.48,1.74-.03.08-.08.15-.13.22,0,.01-.03.02-.04.03-.17.03-.24-.09-.3-.22,0-.03,0-.07,0-.1.05-.13.12-.25.16-.38.06-.18.11-.36.13-.55.03-.23-.04-.44-.22-.6-.06-.06-.13-.11-.19-.18-.11-.13-.14-.28-.04-.43.09-.14.19-.29.31-.41.51-.56,1.02-1.11,1.53-1.66.19-.2.38-.4.56-.6.36-.4.58-.86.49-1.4-.05-.34.08-.56.35-.73.17-.11.35-.22.54-.3.1-.05.23-.04.4-.06Z"/><path class="cls-4" d="m752.29,152.68c-.26.81-.68,1.53-1.2,2.2-.21.27-.53.31-.82.13-.13-.08-.25-.18-.37-.27-.56-.42-1.12-.84-1.69-1.26-1.2-.87-2.49-1.55-3.91-2-1.58-.5-3.15-1.02-4.73-1.54-.39-.13-.79-.23-1.13-.5,0-.06,0-.13.02-.19.32-.88.65-1.77.97-2.65.09-.26.26-.43.53-.54.15.15.29.3.44.44.28.27.6.44.99.49.07,0,.14.01.2.03,1.15.34,2.32.59,3.41,1.1,1.8.84,3.56,1.75,5.25,2.8.72.44,1.4.93,1.92,1.61.04.05.08.11.13.17Z"/><path class="cls-9" d="m697.76,150.33c.05.33.23.57.45.79.36.37.73.73,1.09,1.09.1.1.2.19.27.31.04.06.03.16.04.24-.32.03-.55-.02-.82-.22-.22-.16-.43-.33-.65-.51-.28-.23-.55-.47-.83-.69-.15-.11-.32-.2-.48-.28-.35-.16-.93,0-1.11.55-.06.17-.09.37-.08.55.02.53-.19.92-.63,1.21-.19.12-.36.25-.54.38-.2-.26-.24-.35-.19-.6.03-.2.09-.4.15-.6.3-.97.82-1.81,1.5-2.54.68-.73,1.37-1.44,2.06-2.15.57-.59,1.16-1.17,1.78-1.7.71-.6,1.19-1.37,1.51-2.23.35-.93.68-1.87,1.02-2.8.07-.2.11-.44.36-.56.06.09.12.16.16.25.26.53.42,1.08.51,1.66.13.76.19,1.52.26,2.33-.11.01-.21.04-.3.03-.21-.03-.36-.18-.52-.32-.16-.14-.32-.25-.54-.28-.25-.04-.4.1-.35.36.02.13.08.26.15.38.31.56.72,1.04,1.21,1.46.16.13.32.26.47.4.29.26.46.59.52.98.08.47.14.95.22,1.42,0,.03,0,.07.01.1.01.11.01.21-.09.28-.09.06-.2.04-.29-.02-.12-.07-.23-.14-.35-.22-1.06-.72-2.13-1.44-3.19-2.16-.13-.09-.26-.18-.4-.23-.07-.03-.17,0-.24.03-.09.05-.13.16-.11.27.02.08.06.16.1.23.9,1.42,1.99,2.65,3.4,3.59.44.3.87.61,1.3.92.32.24.47.58.54.96.03.2,0,.38-.14.53-.13.15-.3.23-.5.17-.16-.05-.32-.11-.48-.17-.85-.36-1.66-.81-2.43-1.33-.88-.59-1.76-1.19-2.64-1.78-.19-.12-.38-.22-.6-.27-.25-.06-.43,0-.59.2Z"/><path class="cls-9" d="m747.96,159.4c-.17-.1-.33-.19-.49-.29-1.07-.65-2.13-1.3-3.21-1.94-2.09-1.22-4.27-2.23-6.56-3-.32-.11-.64-.23-.96-.35-.03-.01-.06-.04-.11-.08.1-1.16.58-2.17,1.34-3.08.15.09.28.17.41.24.39.22.77.44,1.17.64.51.25,1.06.39,1.62.44.3.03.57.11.83.24,2.23,1.09,4.39,2.3,6.47,3.65.24.16.45.36.66.57.26.26.33.58.22.95-.25.81-.69,1.48-1.39,2Z"/><path class="cls-4" d="m735.64,155.19c.34.06.64.19.93.32,1.15.49,2.29.99,3.43,1.49.93.4,1.82.87,2.68,1.4,1.02.63,2.03,1.27,3.03,1.93.2.13.37.3.53.48.15.17.17.36.04.57-.36.56-.71,1.13-1.08,1.68-.19.29-.43.33-.76.17-.15-.07-.31-.15-.45-.24-2.05-1.31-4.24-2.35-6.47-3.32-.64-.28-1.28-.56-1.92-.84-.55-.24-1.11-.44-1.71-.53-.07,0-.13-.03-.19-.04-.09-.14-.08-.27-.01-.4.52-.99,1.13-1.91,1.97-2.67Z"/><path class="cls-8" d="m682.48,162.71c.1-.18.17-.33.26-.47.34-.49.69-.98,1.05-1.46.43-.57.88-1.14,1.31-1.71.31-.4.69-.71,1.14-.93.2-.09.41-.18.62-.25,1.89-.61,3.78-1.21,5.66-1.81.13-.04.26-.08.4-.1.44-.04.75.35.61.77-.06.18-.16.34-.27.49-.26.38-.53.76-.63,1.22-.02.1-.12.21-.21.27-.15.11-.32.2-.48.29-.73.41-1.44.85-2.09,1.39-.47.4-1.02.53-1.63.46-.56-.06-1.12-.1-1.69-.14-1.07-.07-1.94.31-2.58,1.19-.18.25-.39.48-.6.7-.29.3-.38.3-.87.07Z"/><path class="cls-14" d="m716.83,183.27c.01.36.18.63.36.9.08.13.18.2.33.2.26,0,.51.01.79.02.09.17.2.32.26.49.39,1,.59,2.03.47,3.11-.05.44-.05.89-.07,1.33,0,.12,0,.24-.02.36-.05.25-.25.44-.5.43-.63,0-1.26-.03-1.9-.07-.3-.02-.49-.21-.55-.52-.03-.13-.03-.27-.03-.41-.01-1.54-.01-3.08-.03-4.62,0-.32.17-.55.32-.79.12-.2.29-.38.57-.45Z"/><path class="cls-7" d="m743.53,165.05c-.05.42-.27.72-.59.93-.28.19-.59.35-.88.52-.27-.11-.51-.24-.7-.43-1.52-1.51-3.21-2.82-4.95-4.06-.96-.69-1.93-1.35-2.89-2.03-.21-.15-.41-.31-.59-.49-.19-.2-.18-.39.01-.59.15-.16.31-.32.57-.38-.05.4.19.6.46.8,1.03.77,2.16,1.37,3.3,1.95.97.5,1.94,1,2.9,1.53,1.05.58,2.04,1.24,3,1.96.12.09.23.19.36.29Z"/><path class="cls-5" d="m759.58,183.17c.06.15.03.26-.08.34-.5.39-1.01.76-1.61,1-.23.09-.47.09-.71.04-.61-.12-1.22-.15-1.84-.12-1.3.05-2.6.17-3.9.16-.99,0-1.99,0-2.97-.12-.25-.03-.51-.06-.76-.11-.55-.12-1.11-.2-1.67-.25-.89-.08-1.75-.31-2.62-.49-.28-.06-.57-.12-.89-.19-.06-.11-.13-.24-.2-.37.06-.02.1-.04.12-.03.48.2,1,.24,1.5.3.71.09,1.43.15,2.14.21,1.09.09,2.18.18,3.27.26,1.32.09,2.63.1,3.95-.01.95-.08,1.91-.15,2.87-.22.87-.06,1.73-.18,2.58-.38.27-.07.53-.1.79-.01Z"/><path class="cls-5" d="m704.29,175.85c-.13.03-.26.07-.4.08-.79.05-1.57.08-2.36.12-.79.04-1.57-.06-2.33-.3-1.32-.42-2.63-.85-3.94-1.3-.34-.12-.65-.3-.97-.46-.09-.05-.17-.11-.25-.18-.19-.17-.18-.48.03-.62.17-.12.36-.2.58-.16.18.04.37.07.55.13.71.23,1.43.47,2.14.71.13.04.26.07.34.2.12.19.32.25.52.31,1.6.43,3.2.85,4.85,1.06.42.05.83.18,1.23.42Z"/><path class="cls-5" d="m743.79,177.47c.09-.49.31-.72.72-.74.19,0,.38.02.56.05,1.72.3,3.34.87,4.85,1.75.12.07.24.13.34.22.2.18.2.45,0,.63-.27.24-.56.36-.93.18-.41-.2-.85-.36-1.27-.55-.53-.24-1.06-.47-1.59-.72-.68-.32-1.4-.54-2.14-.7-.18-.04-.36-.09-.54-.13Z"/><path class="cls-5" d="m746.65,174.9c.19.03.44.06.69.12.98.23,1.96.46,2.93.72.43.11.84.29,1.25.44.11.04.22.1.32.15.15.07.25.18.23.36-.02.22-.18.38-.39.41-.26.04-.5-.01-.75-.12-.83-.36-1.69-.65-2.56-.88-.64-.17-1.29-.31-1.94-.46-.12-.03-.23-.05-.34-.09-.08-.03-.15-.08-.21-.15-.15-.16-.08-.39.14-.43.18-.04.37-.04.63-.07Z"/><path class="cls-2" d="m764.35,140.69c.69-.29,1.36-.3,2.04-.15.51.11.82.47.99.95.11.33-.04.67-.37.8-.27.11-.56.18-.85.14-.54-.06-1.02-.27-1.42-.65-.3-.28-.46-.63-.39-1.1Zm1.58.51s-.11.03-.12.06c-.04.12,0,.22.16.26.06-.11.03-.21-.04-.32Z"/><path class="cls-7" d="m707.92,124.13c.22-.11.43-.11.61,0,.53.3,1.1.34,1.68.34.07,0,.14,0,.2.02.48.06.54.1.87.58-.06.06-.12.15-.2.19-.13.07-.28.12-.42.18-.3.11-.6.1-.89-.05-.21-.11-.43-.21-.64-.31-.21-.1-.36-.02-.5.17.15.19.29.38.43.56.08.11.17.21.24.33.13.22.03.44-.23.5-.1.02-.2.03-.3.03-.22-.01-.44-.04-.68-.06-.02-.11-.05-.2-.06-.3,0-.14,0-.27,0-.41,0-.29.03-.58.02-.87-.02-.29-.07-.57-.12-.9Z"/><path class="cls-5" d="m767.1,178.98c.06-.29.21-.48.4-.63.26-.22.54-.42.81-.62.2-.15.42-.15.62,0,.14.1.27.21.37.34.23.31.21.53-.06.82-.29.31-.6.61-.98.81-.27.14-.34.16-.68.14-.13-.2.13-.38.02-.62-.13-.06-.3-.14-.49-.23Z"/><path class="cls-7" d="m741.41,126.59c-.58.21-.99.57-1.35.98-.39.45-.74.94-1.1,1.42-.1.14-.19.29-.29.42-.12.16-.32.14-.42-.04-.19-.36-.22-.72.04-1.06.66-.87,1.52-1.46,2.54-1.85.2-.07.37-.03.58.13Z"/><path class="cls-8" d="m715.77,99.75c.74-.15,1.35-.07,1.93.22.64.32,1.12.83,1.52,1.41.11.16.1.16-.04.5-.07-.04-.15-.07-.21-.11-.42-.32-.84-.64-1.25-.98-.41-.35-.87-.59-1.41-.69-.12-.02-.24-.05-.34-.1-.07-.03-.11-.11-.22-.24Z"/><path class="cls-8" d="m713.89,181.9c-.19-.12-.24-.27-.22-.45.05-.3.16-.53.46-.68.58-.29,1.13-.64,1.59-1.1.1-.1.22-.15.39-.09.09.23,0,.44-.16.59-.26.25-.53.49-.82.69-.33.22-.66.42-.86.78-.08.13-.19.24-.38.28Z"/><path class="cls-8" d="m717.59,177.94c.03-.06.06-.12.1-.17.44-.52.97-.95,1.55-1.32.06-.04.12-.07.18-.08.09-.02.17.02.2.12.05.15.04.3-.07.43-.41.5-.91.86-1.51,1.09-.15.06-.29.04-.45-.07Z"/><path class="cls-7" d="m734.26,124.12c-.07.04-.14.12-.22.13-.07,0-.16-.04-.23-.09-.53-.37-.89-.88-1.18-1.44-.04-.08-.03-.18.05-.23.06-.04.16-.07.23-.04.14.05.28.13.4.22.42.34.69.78.92,1.26.02.04.02.1.04.19Z"/><path class="cls-5" d="m753.72,175.09c-.1.19-.22.24-.4.19-.57-.18-1.13-.35-1.7-.53-.03,0-.05-.04-.08-.06-.02-.1.06-.14.14-.17.7-.25,1.5-.03,2.04.58Z"/><path class="cls-8" d="m713.89,177.89c.06.55-.03,2.22-.16,2.74-.05-.08-.1-.13-.12-.19-.24-.73-.22-1.47-.08-2.22.03-.17.1-.33.36-.33Z"/><path class="cls-5" d="m741.71,182.88s-.04.08-.07.08c-.9.24-1.78.19-2.62-.25-.04-.02-.09-.05-.12-.09-.02-.03-.03-.09-.02-.13,0-.02.05-.04.08-.05.03,0,.07,0,.1,0,.83.21,1.67.3,2.52.38.04,0,.09.02.13.04Z"/><path class="cls-2" d="m731.89,162.48c0-.21.23-.39.43-.37.26.03.5.3.51.56,0,.19-.11.37-.29.43-.16.06-.34,0-.46-.13-.13-.15-.18-.32-.18-.5Z"/><path class="cls-5" d="m705.17,169.12c.14.07.29.12.41.2.2.14.2.31.02.46-.09.08-.19.15-.3.19-.19.08-.37.04-.52-.1-.2-.19-.2-.39.02-.55.11-.08.23-.13.37-.2Z"/><path class="cls-5" d="m707.05,168.8c.03-.18.14-.28.27-.36.4-.26.56-.03.61.26.04.26,0,.5-.29.66-.26-.12-.47-.3-.59-.56Z"/><path class="cls-5" d="m766.73,179.97h.61c-.05.33-.25.51-.49.66-.18.11-.42.06-.7-.1.18-.17.35-.34.59-.56Z"/><path class="cls-5" d="m766.49,179.54c.05.19.04.32-.12.43-.14.09-.25.22-.39.36-.17-.02-.37-.05-.57-.08.35-.52.57-.66,1.09-.71Z"/><path class="cls-8" d="m714.28,176.34c.06.47.02.86-.26,1.24-.21-.26-.13-.53-.1-.79.02-.18.09-.36.36-.45Z"/><path class="cls-5" d="m702.49,170.36c.2-.28.44-.36.74-.25.1.04.19.12.17.23,0,.07-.07.15-.14.2-.27.19-.4.16-.77-.17Z"/><path class="cls-2" d="m761.77,182.1c.11-.22.27-.29.45-.33.14-.03.3-.04.45-.04.05,0,.13.06.14.11.01.05-.02.13-.06.18-.02.04-.07.08-.12.09-.27.06-.55.09-.86-.01Z"/><path class="cls-3" d="m771.41,128.28c.03.31.06.51.06.71,0,.07-.07.15-.12.2-.02.02-.1,0-.14-.01-.02,0-.05-.06-.05-.08.04-.25.08-.49.25-.81Z"/><path class="cls-2" d="m763.48,181.2c.09.45,0,.53-.48.46.04-.28.25-.37.48-.46Z"/><path class="cls-2" d="m760.28,182.56c.08.15.05.27-.03.39-.08.11-.2.11-.32.12-.04,0-.1-.03-.12-.06-.02-.04,0-.11.02-.14.11-.16.27-.26.45-.31Z"/><path class="cls-2" d="m700.62,153.03c-.35.16-.6.26-.85-.01.31-.12.33-.12.85.01Z"/><path class="cls-2" d="m721.16,188.11c.11-.14.15-.23.22-.29.1-.08.23-.04.29.08.07.14,0,.29-.15.29-.09,0-.19-.04-.36-.08Z"/><path class="cls-2" d="m764.83,159.12c.25.26.28.33.23.52,0,.02-.05.05-.07.05-.03,0-.08-.02-.08-.04-.03-.16-.05-.32-.08-.53Z"/><path class="cls-2" d="m764.94,163.6c-.12-.16-.13-.29-.06-.44.18-.03.18.11.21.21.04.11,0,.19-.15.23Z"/><path class="cls-2" d="m761.38,182.34q-.33.25-.8.13c.28-.08.48-.17.8-.13Z"/><path class="cls-8" d="m719.71,102.73c-.18-.19-.25-.35-.28-.53.28-.01.29,0,.28.53Z"/><path class="cls-2" d="m767.01,179.11c-.04.08-.08.17-.14.24-.05.06-.14.1-.23.04-.07-.05-.04-.17.07-.26.06-.05.14-.07.22-.1.03.03.05.05.08.08Z"/><path class="cls-2" d="m744.77,124.07c-.18.24-.33.3-.56.29.2-.19.2-.19.56-.29Z"/><path class="cls-2" d="m764.25,181.17h-.46c-.04-.09.01-.13.08-.14.13-.01.26,0,.38.14Z"/><path class="cls-8" d="m717.09,178.35c.09-.1.15-.17.21-.24.12.02.17.08.13.18-.06.14-.17.14-.34.06Z"/><path class="cls-3" d="m701.8,154.06c-.2.05-.34.02-.49-.02q.21-.07.49.02Z"/><path class="cls-3" d="m760.62,132.4q-.31.17-.42,0h.42Z"/><path class="cls-3" d="m712.44,174.25c-.13.09-.21.02-.29-.04-.02-.02-.03-.05-.04-.07.03-.01.07-.04.09-.03.08.04.15.09.24.14Z"/><path class="cls-2" d="m716.3,179.29c.06-.16.16-.18.3-.1-.08.08-.15.18-.3.1Z"/><path class="cls-3" d="m702.71,154.54c-.23.05-.27-.04-.36-.25.17.12.24.17.36.25Z"/><path class="cls-3" d="m707.52,167.27c0-.07.02-.14.02-.21.03,0,.08,0,.08.02.04.09-.01.15-.11.2Z"/><path class="cls-3" d="m763.42,132.99c-.09.04-.14.07-.19.07-.03,0-.06-.06-.08-.1.05-.03.1-.07.15-.08.03,0,.06.05.13.11Z"/><path class="cls-3" d="m765.05,130.53s-.03.07-.05.1c-.04-.02-.08-.04-.12-.06.02-.04.04-.07.06-.11.04.03.07.05.11.07Z"/><path class="cls-3" d="m700.78,153.53s0-.06,0-.07c0,0,.02,0,.03,0,0,.02-.01.03-.03.07Z"/><path class="cls-3" d="m769.18,129.7s-.03.05-.04.07c-.02-.02-.04-.04-.05-.07,0,0,.01-.03.02-.04.02.01.05.03.07.04Z"/><path class="cls-3" d="m741.71,125.98c0,.06,0,.11-.01.17-.02,0-.04,0-.06,0,0-.06,0-.11.01-.17.02,0,.04,0,.06,0Z"/><path class="cls-3" d="m698.13,172.33s-.02-.02-.03-.04c.03,0,.05-.02.08-.02,0,0,.02.02.03.03-.03,0-.05.02-.08.03Z"/><path class="cls-11" d="m733.73,121.27c-.31-.82-.29-1.56.13-2.28.18-.31.42-.58.69-.82,1.73-1.56,3.72-2.6,6.02-3.02.83-.15,1.67-.2,2.51-.16.91.04,1.81.12,2.71.18.22.02.44.04.67.05.53.03,1.05.1,1.57.25.81.23,1.64.35,2.47.47.86.13,1.72.27,2.58.41.22.03.38.14.52.3.09.1.07.24-.04.31-.09.05-.18.1-.28.12-.82.15-1.63.19-2.44-.05-.79-.24-1.61-.33-2.43-.34-.57,0-1.12-.08-1.66-.29-.4-.16-.83-.22-1.26-.23-.77,0-1.54-.03-2.31,0-1.1.04-2.17.29-3.21.65-.94.32-1.84.73-2.72,1.21-1.07.58-1.99,1.33-2.68,2.34-.22.33-.5.6-.85.92Z"/><path class="cls-2" d="m736.5,104.09c.32-.49.75-.62,1.27-.54.52.09,1.03.24,1.5.51,1.21.7,2.43,1.39,3.64,2.1.7.41,1.21.99,1.53,1.74.07.16.07.29-.02.44-.06.1-.17.13-.26.07-.04-.03-.08-.06-.12-.1-.82-.76-1.77-1.34-2.76-1.84-1.02-.52-2.04-1.04-3.06-1.55-.27-.13-.57-.22-.86-.32-.31-.11-.62-.2-.84-.51Z"/><path class="cls-2" d="m757.72,125.72c-.18-.14-.32-.24-.45-.34-.45-.34-.89-.69-1.35-1.02-.8-.57-1.67-1-2.63-1.24-.77-.19-1.47-.54-2.14-.98-.16-.1-.3-.22-.44-.35-.2-.18-.24-.36-.14-.6.09-.22.28-.3.5-.18.18.09.36.2.53.31,1.07.68,2.18,1.28,3.34,1.79.3.13.59.28.87.44.78.43,1.38,1.05,1.82,1.83.03.06.06.12.08.19,0,.01,0,.03,0,.14Z"/><path class="cls-2" d="m762.56,125.46s-.12.08-.13.13c-.2,1.06-.81,1.86-1.54,2.6-.37.38-.84.58-1.35.68-.5.09-.79-.06-1.06-.54.08-.07.15-.16.25-.22.27-.17.56-.33.83-.51.66-.44,1.21-.99,1.65-1.66.36-.54.67-.65,1.35-.47,0,0,0,0,0,0Z"/><path class="cls-2" d="m746.8,106.72c.07.06.15.11.21.19.22.29.37.62.46.97.09.33.17.67.2,1,.06.68.08,1.36.01,2.05-.02.25-.13.42-.38.49-.06.02-.13,0-.22-.01-.02-.11-.05-.21-.04-.31.07-1.09-.11-2.15-.32-3.2-.05-.25-.11-.5-.16-.75-.04-.19,0-.34.23-.42Z"/><path class="cls-2" d="m752.65,111.01c.37.08.54.24.58.56.14,1.04.13,2.08-.02,3.11-.01.08-.03.17-.05.25-.01.05-.04.09-.06.14-.17.11-.3,0-.42-.07-.11-.07-.15-.17-.15-.3,0-1.11-.08-2.22.02-3.32,0-.11.06-.22.1-.36Z"/><path class="cls-2" d="m750.36,112.21c-.49-.82-.76-1.94-.69-2.76.01-.13.04-.27.08-.4.08-.22.31-.28.5-.14.15.11.2.26.23.44.08.49.08.98.05,1.48-.02.36-.06.71-.09,1.07-.01.1-.05.19-.08.31Z"/><path class="cls-2" d="m755.31,113.96c.09.08.16.12.17.17.04.15.07.3.08.45.09.92.17,1.84.25,2.75,0,.08.02.17.02.26,0,.21-.13.36-.33.38-.12.01-.24-.1-.29-.31-.02-.1-.03-.2-.03-.3,0-1.01.02-2.01.03-3.02,0-.11.05-.22.09-.37Z"/><path class="cls-6" d="m732.75,120.62c0-.41,0-.75,0-1.08,0-.05.09-.15.11-.14.07.03.17.07.19.13.07.21.09.43,0,.64-.06.15-.1.31-.31.44Z"/><path class="cls-6" d="m731.97,118.77c-.21.05-.29.08-.37.08-.09,0-.15-.06-.16-.16-.01-.09.07-.19.14-.16.1.05.19.12.39.24Z"/><path class="cls-6" d="m743.43,105.61c-.16-.24-.22-.4-.25-.6q.25.14.25.6Z"/><path class="cls-2" d="m763.7,127.79s-.03.05-.04.08c-.01-.01-.04-.02-.04-.03,0-.03.02-.05.04-.08.01.01.03.02.04.03Z"/><path class="cls-2" d="m756.62,138.52c-.29.09-.57.08-.84-.07-1.09-.6-2.27-.94-3.47-1.24-.23-.06-.47-.1-.7-.17-1.15-.34-2.33-.37-3.51-.33-.38.01-.75.02-1.13,0-1.03-.08-1.93.21-2.7.89-.23.21-.49.37-.78.49-.16.07-.3.03-.44-.05-.13-.08-.2-.2-.17-.34.05-.2.1-.4.2-.58.38-.73.96-1.25,1.73-1.53,1.3-.48,2.63-.75,4.02-.55.9.13,1.8.21,2.7.34.54.08,1.08.19,1.6.35,1.29.4,2.36,1.16,3.26,2.16.16.18.31.37.22.65Z"/><path class="cls-2" d="m753.61,133.05c-.23-.05-.47-.07-.7-.15-.88-.32-1.77-.34-2.68-.16-1.68.33-3.31.81-4.86,1.56-.72.35-1.47.65-2.2.97-.12.05-.26.1-.39.1-.29,0-.43-.23-.32-.49.05-.11.12-.21.21-.29.36-.31.71-.65,1.11-.9,1.59-1,3.31-1.68,5.18-1.99.75-.12,1.5-.08,2.25-.01.61.06,1.22.13,1.83.19.4.04.72.21.95.53.08.11.16.23.09.37-.09.17-.22.26-.41.24-.02,0-.03,0-.05,0,0,0,0,.02,0,.03Z"/><path class="cls-2" d="m756.47,134.61c-.22-.07-.46-.12-.67-.22-.32-.15-.59-.39-.84-.65-.16-.17-.1-.37.12-.43.08-.02.17-.03.25-.01.13.03.26.07.38.13.36.19.65.48.94.77.08.08.1.19.04.28-.04.06-.13.08-.23.14Z"/><path class="cls-2" d="m765.93,141.2c.07.11.1.21.04.32-.16-.04-.19-.14-.16-.26,0-.03.08-.04.12-.06Z"/><path d="m728.25,120.98c.22,0,.43.01.65.04l-.66-.09c.38.06.76.16,1.12.3l-.6-.25c.36.15.69.34,1,.58l-.51-.39c.28.22.53.47.76.75l-.39-.51c.25.32.45.67.61,1.04l-.25-.6c.14.35.25.71.3,1.09l-.09-.66c.01.09.02.19.03.28.06.67.24,1.28.73,1.77.43.43,1.15.76,1.77.73s1.32-.24,1.77-.73c.43-.47.79-1.11.73-1.77-.04-.49-.1-.99-.23-1.47s-.33-.92-.53-1.36c-.12-.26-.27-.5-.44-.73-.29-.39-.58-.78-.93-1.11-1.31-1.22-3.04-1.92-4.84-1.91-.64,0-1.31.28-1.77.73s-.76,1.15-.73,1.77.24,1.32.73,1.77,1.09.74,1.77.73h0Z"/><path d="m730.15,120.36c3.22,0,3.22-5,0-5s-3.22,5,0,5h0Z"/><path d="m728.42,119.6c2.53,2.55,4.88,5.28,6.96,8.22.39.55.92,1.14,1.11,1.77s.09,1.81.05,2.58c-.09,1.83-.42,3.63-.75,5.44-.24,1.33.36,2.7,1.75,3.08,1.21.33,2.83-.41,3.08-1.75.75-4.13,2.07-9.31-.5-13.03-2.42-3.51-5.16-6.81-8.16-9.83-2.27-2.29-5.8,1.25-3.54,3.54h0Z"/></g><path d="m674.93,169.96c-.7.7-1.17,1.49-1.5,2.41-.16.45-.23.96-.25,1.42s.05.98.21,1.42c.32.86.8,1.62,1.52,2.21.65.52,1.31.93,2.07,1.26.29.18.6.28.93.3.33.07.66.06,1-.04.58-.16,1.21-.61,1.49-1.15.31-.58.46-1.28.25-1.93-.19-.58-.57-1.24-1.15-1.49-.55-.24-1.09-.51-1.56-.87l.51.39c-.2-.16-.39-.34-.55-.54l.39.51c-.12-.16-.22-.32-.3-.5l.25.6c-.07-.16-.11-.32-.14-.49l.09.66c-.02-.17-.02-.33,0-.5l-.09.66c.04-.27.11-.52.21-.77l-.25.6c.12-.27.27-.52.45-.75l-.39.51c.11-.13.22-.26.34-.38.45-.46.73-1.13.73-1.77s-.27-1.35-.73-1.77-1.1-.76-1.77-.73-1.29.25-1.77.73h0Z"/><path class="cls-1" d="m676.4,171.91c.3-.46.67-.86,1.1-1.2"/></g></g></svg>