<?xml version="1.0" encoding="UTF-8"?><svg id="Layer_2" xmlns="http://www.w3.org/2000/svg" viewBox="0 0 1415.16 236.91"><defs><style>.cls-1{fill:#003e85;}.cls-2{fill:#efc483;}.cls-3{fill:#ecb7d5;}.cls-4{fill:#b06b97;}.cls-5{fill:#1f8c87;}.cls-6{fill:#1a1818;}.cls-7{fill:#763c34;}</style></defs><g id="Layer_1-2"><rect class="cls-5" x="606.5" y="194.23" width="202.17" height="42.68"/><rect class="cls-4" y="194.23" width="202.17" height="42.68"/><rect class="cls-2" x="808.66" y="194.23" width="202.17" height="42.68"/><rect x="1212.99" y="194.23" width="202.17" height="42.68"/><rect class="cls-1" x="404.33" y="194.23" width="202.17" height="42.68"/><rect class="cls-3" x="202.17" y="194.23" width="202.17" height="42.68"/><rect class="cls-7" x="1010.83" y="194.23" width="202.17" height="42.68"/><g><path d="m294.39,147.35c-.31,1.08-.75,2.07-1.31,2.95-.56.88-1.23,1.64-2.01,2.27-.77.63-1.63,1.12-2.57,1.46-.94.34-1.95.51-3.03.51-2.01,0-3.71-.29-5.11-.86-1.39-.58-2.53-1.37-3.4-2.39-.87-1.02-1.5-2.21-1.89-3.59-.39-1.38-.58-2.88-.58-4.51,0-1.74.18-3.34.53-4.81.35-1.47.92-2.73,1.71-3.79.78-1.06,1.79-1.89,3.02-2.49,1.23-.6,2.71-.9,4.46-.9.51,0,1.05.03,1.62.1.57.07,1.14.17,1.71.32.56.15,1.09.34,1.59.58.5.24.92.52,1.28.86.55-.88,1.34-1.47,2.35-1.76.8,1.92,1.19,4.6,1.19,8.03h-2.32c-.55-2.3-1.31-3.95-2.27-4.95-.96-.99-2.25-1.49-3.86-1.49-1.13,0-2.04.25-2.75.76-.71.51-1.27,1.18-1.67,2-.41.83-.69,1.78-.85,2.85-.15,1.07-.23,2.17-.23,3.27,0,1.52.09,2.93.27,4.24.18,1.31.5,2.45.96,3.43s1.09,1.74,1.89,2.31,1.81.85,3.05.85c1.61,0,2.95-.45,4.01-1.35,1.06-.9,1.99-2.38,2.79-4.44l1.43.54Z"/><path d="m404.66,150.71c0,.32-.1.68-.3,1.1-.2.42-.49.82-.88,1.2-.39.38-.85.71-1.39.98-.54.27-1.14.41-1.81.41-1.37,0-2.38-.22-3.02-.64-.64-.43-1.07-.97-1.29-1.63-.46-1.33-.87-2.54-1.23-3.62-.35-1.08-.72-2.02-1.11-2.79-.39-.78-.83-1.38-1.33-1.8-.5-.42-1.13-.63-1.91-.63-.42,0-.69.08-.8.24v7.11c0,1.31.98,1.96,2.95,1.96v1.42h-11.4v-1.42c1.9,0,2.85-.65,2.85-1.96v-15.68c0-1.26-1.03-1.9-3.08-1.9v-1.49h5.21c.73,0,1.35,0,1.86-.02.51-.01,1.04-.03,1.59-.05.55-.02,1.19-.04,1.91-.05.72-.01,1.63-.02,2.74-.02s2.13.15,2.95.44c.82.29,1.49.7,2.01,1.2.52.51.9,1.11,1.13,1.8.23.69.35,1.44.35,2.26,0,1.54-.58,2.79-1.72,3.75-1.15.96-2.71,1.57-4.67,1.81.8.11,1.48.25,2.06.41.57.16,1.06.37,1.46.63.4.26.73.58,1.01.95.28.37.52.81.75,1.3.31.72.55,1.44.73,2.15.18.71.36,1.35.55,1.91.19.56.4,1.02.63,1.37.23.35.57.52,1.01.52.49,0,.86-.52,1.13-1.56l1.09.34Zm-13.69-9.11c.6,0,1.13-.04,1.61-.12.48-.08.88-.26,1.23-.54.34-.28.61-.71.8-1.28.19-.57.28-1.34.28-2.31,0-.79-.09-1.45-.28-1.97-.19-.52-.44-.94-.76-1.24-.32-.31-.7-.52-1.14-.65-.44-.12-.92-.19-1.43-.19h-.66c-.66,0-.99.56-.99,1.67v6.29c.07.23.24.34.53.34h.83Z"/><path d="m490.06,154.03v-1.42c1.99,0,2.98-.65,2.98-1.96v-15.04c0-1.69-1.07-2.54-3.22-2.54v-1.49h19.03l.27,6.64-2.02.17c-.2-1.24-.49-2.2-.86-2.86-.38-.67-.83-1.15-1.36-1.46s-1.14-.49-1.82-.54c-.69-.06-1.45-.08-2.29-.08-.73,0-1.29.11-1.69.32s-.6.52-.6.93v5.94c0,.54.25.81.76.81s1.02-.03,1.46-.1c.44-.07.83-.22,1.18-.46.34-.24.62-.59.85-1.07.22-.47.36-1.12.43-1.93h1.92v9.04h-1.92c-.07-.77-.18-1.39-.33-1.86-.16-.47-.37-.84-.65-1.08s-.62-.42-1.04-.51c-.42-.09-.93-.15-1.52-.17-.75.07-1.13.37-1.13.91v6.33c0,1.08.83,1.63,2.49,1.63,1.35,0,2.43-.11,3.23-.32.81-.21,1.46-.54,1.97-.98.51-.44.92-1,1.23-1.68.31-.68.63-1.49.96-2.44l1.89.27-.93,7.01h-19.26Z"/><path d="m608.02,154.03v-1.39c.31-.05.63-.09.98-.14.34-.05.65-.1.93-.15.28-.06.5-.12.68-.2.18-.08.27-.16.27-.25,0-.11-.03-.24-.08-.39-.06-.15-.12-.31-.18-.49l-1.46-4.13c-.09-.25-.31-.42-.66-.53-.35-.1-.72-.15-1.09-.15h-4.84c-.71,0-1.14.23-1.29.68l-1.06,3.46c-.04.11-.08.24-.1.37-.02.14-.03.28-.03.44,0,.88.94,1.32,2.82,1.32v1.56h-7.73v-1.56c1.24-.09,2.16-.86,2.75-2.3l7.86-19.14,3.08.44,7.73,19.85c.09.25.23.45.43.61.2.16.42.28.68.37.25.09.51.16.78.22.27.06.52.1.76.12v1.39h-11.21Zm-2.65-17.45l-2.62,6.47c-.24.54-.36.88-.36,1.02,0,.18.34.27,1.03.27h4.08c.53,0,.8-.05.8-.14,0-.11-.21-.72-.63-1.83l-2.29-5.79Z"/><path d="m705.69,154.03v-1.42c2.3,0,3.45-.95,3.45-2.85v-15.31c0-.68-.45-1.02-1.36-1.02-.69,0-1.28.12-1.77.36-.5.24-.93.59-1.29,1.07s-.67,1.07-.93,1.78c-.25.71-.48,1.54-.68,2.49l-2.06-.3.93-7.52c.57.09,1.2.16,1.89.2.68.05,1.23.07,1.62.07h13.1c.49,0,1.08-.02,1.79-.07.71-.05,1.35-.11,1.92-.2v7.42l-1.92.17c-.11-1.78-.48-3.12-1.11-4s-1.72-1.32-3.27-1.32c-.95,0-1.43.29-1.43.88v15.31c0,1.9,1.17,2.85,3.51,2.85v1.42h-12.4Z"/><path d="m808.3,154.03v-1.42c2.06,0,3.08-.69,3.08-2.07v-14.8c0-1.78-1.07-2.68-3.22-2.68v-1.49h11.6v1.49c-1.97,0-2.95.89-2.95,2.68v14.8c0,1.38,1.04,2.07,3.12,2.07v1.42h-11.64Z"/><path d="m930.1,142.68c0,1.92-.3,3.61-.9,5.08-.6,1.47-1.42,2.7-2.47,3.71-1.05,1.01-2.29,1.77-3.71,2.29-1.43.52-2.98.78-4.66.78-1.59,0-3.08-.22-4.48-.66s-2.61-1.13-3.65-2.07c-1.04-.94-1.86-2.14-2.45-3.61-.6-1.47-.9-3.22-.9-5.25s.29-3.82.86-5.3,1.38-2.7,2.4-3.66c1.03-.96,2.24-1.67,3.65-2.12,1.4-.45,2.92-.68,4.56-.68s3.13.24,4.56.73c1.43.49,2.67,1.21,3.73,2.17,1.06.96,1.9,2.16,2.52,3.59.62,1.43.93,3.1.93,5Zm-11.47,10.16c1.17,0,2.13-.25,2.88-.76.75-.51,1.34-1.21,1.77-2.1.43-.89.73-1.95.9-3.16.17-1.21.25-2.51.25-3.89,0-1.29-.08-2.54-.25-3.77s-.48-2.31-.93-3.26c-.45-.95-1.09-1.71-1.91-2.29-.82-.58-1.89-.87-3.22-.87-1.22,0-2.19.27-2.92.81s-1.29,1.27-1.67,2.19c-.39.92-.64,1.97-.76,3.16-.12,1.19-.18,2.44-.18,3.75,0,1.42.09,2.76.27,4,.18,1.24.49,2.32.95,3.24.45.92,1.07,1.63,1.84,2.15.77.52,1.77.78,2.98.78Z"/><path d="m1035.63,154.43l-14.09-15.14v9.59c0,2.48,1.13,3.73,3.38,3.73v1.42h-8.26v-1.42c1.86,0,2.78-1.24,2.78-3.73v-14.7c0-.75-1.08-1.12-3.25-1.12v-1.49h6.27l12.43,13.62v-8.71c0-2.28-1.12-3.42-3.35-3.42v-1.49h8.22v1.49c-2.01,0-3.02,1.14-3.02,3.42v17.65l-1.13.3Z"/><path d="m1138.41,138.85c-.18-.9-.4-1.73-.66-2.47-.27-.75-.59-1.39-.98-1.93-.39-.54-.83-.96-1.33-1.25-.5-.29-1.06-.44-1.67-.44-1.28,0-2.28.27-2.98.8s-1.06,1.23-1.06,2.09c0,.61.12,1.11.37,1.49.24.38.6.73,1.06,1.03.46.31,1.03.59,1.71.85s1.43.56,2.27.9c.95.38,1.82.77,2.62,1.15.8.38,1.47.85,2.04,1.39.56.54,1,1.2,1.31,1.97.31.77.46,1.74.46,2.92s-.18,2.14-.55,3.02c-.36.88-.88,1.63-1.56,2.26s-1.48,1.1-2.42,1.42c-.94.33-1.97.49-3.1.49-.82,0-1.61-.1-2.37-.3-.76-.2-1.43-.56-2.01-1.08-.44.32-.9.6-1.38.85-.48.25-.97.45-1.48.61-.27-.79-.45-1.59-.56-2.39-.11-.8-.17-1.63-.17-2.49,0-.59.02-1.16.05-1.73.03-.56.09-1.14.18-1.73h2.15c0,.75.09,1.5.28,2.27.19.77.49,1.47.91,2.12.42.64.97,1.17,1.64,1.58s1.49.61,2.44.61c.86,0,1.59-.1,2.17-.29.59-.19,1.06-.46,1.43-.8.36-.34.63-.73.8-1.17s.25-.91.25-1.41c0-.79-.2-1.45-.6-1.98-.4-.53-1.05-.95-1.96-1.27-1.35-.47-2.59-.94-3.71-1.41-1.13-.46-2.11-1.02-2.93-1.66-.83-.64-1.48-1.41-1.94-2.29-.46-.88-.7-1.97-.7-3.25,0-.97.18-1.85.55-2.63.37-.78.86-1.44,1.48-1.98.62-.54,1.34-.95,2.17-1.24.83-.28,1.71-.42,2.64-.42.82,0,1.6.15,2.35.46s1.38.82,1.89,1.54c.24-.45.6-.82,1.06-1.12.46-.29.93-.51,1.39-.64.33,1.08.54,2.31.61,3.68.08,1.37.12,2.66.12,3.88h-2.29Z"/></g><g><path class="cls-6" d="m460.24,108.01h-44.83v-5.4c1.22-.1,2.98-.25,5.29-.46,2.31-.2,3.89-.51,4.76-.91,1.52-.61,2.64-1.53,3.35-2.78.71-1.24,1.07-2.85,1.07-4.83v-38.44h-50.77v37.6c0,1.78.29,3.27.88,4.49.58,1.22,1.74,2.28,3.46,3.2.86.46,2.4.91,4.6,1.37,2.21.46,3.95.71,5.21.76v5.4h-44.83v-5.4c1.22-.1,2.98-.25,5.29-.46,2.31-.2,3.89-.51,4.76-.91,1.52-.61,2.64-1.53,3.35-2.78.71-1.24,1.07-2.85,1.07-4.83V15.68c0-1.62-.33-3.11-.99-4.45-.66-1.34-1.8-2.4-3.43-3.16-1.37-.66-3.03-1.24-4.99-1.75-1.95-.51-3.64-.81-5.06-.91V0h44.83v5.4c-1.42.05-3.16.28-5.21.69-2.05.41-3.59.79-4.6,1.14-1.73.61-2.88,1.62-3.46,3.04-.58,1.42-.88,2.97-.88,4.64v33.49h50.77V15.68c0-1.62-.33-3.11-.99-4.45-.66-1.34-1.8-2.4-3.43-3.16-1.37-.66-3.03-1.24-4.99-1.75-1.95-.51-3.64-.81-5.06-.91V0h44.83v5.4c-1.42.05-3.16.28-5.21.69-2.05.41-3.59.79-4.6,1.14-1.73.61-2.88,1.62-3.46,3.04-.58,1.42-.88,2.97-.88,4.64v77.87c0,1.78.29,3.27.88,4.49.58,1.22,1.74,2.28,3.46,3.2.86.46,2.4.91,4.6,1.37,2.21.46,3.95.71,5.21.76v5.4Z"/><path class="cls-6" d="m616.8,5.4c-1.42.05-3.5.36-6.24.91-2.74.56-4.97,1.4-6.7,2.51-1.73,1.17-2.92,3.58-3.58,7.23-.66,3.65-.99,8.12-.99,13.4v46.96c0,5.99-1.24,11.19-3.73,15.6-2.49,4.41-5.76,8.04-9.82,10.88-4.01,2.74-8.23,4.71-12.67,5.9-4.44,1.19-8.69,1.79-12.75,1.79-6.5,0-12.28-.85-17.35-2.55-5.08-1.7-9.34-4-12.79-6.89-3.4-2.89-5.96-6.2-7.69-9.93-1.73-3.73-2.59-7.62-2.59-11.68V15.68c0-1.78-.29-3.26-.88-4.45-.58-1.19-1.76-2.3-3.54-3.31-1.27-.71-2.89-1.28-4.87-1.71-1.98-.43-3.6-.7-4.87-.8V0h44.98v5.4c-1.42.05-3.21.28-5.37.69-2.16.41-3.74.79-4.76,1.14-1.73.61-2.88,1.62-3.46,3.04-.58,1.42-.88,2.97-.88,4.64v59.63c0,2.89.32,5.92.95,9.09.63,3.17,1.89,6.12,3.77,8.86,1.98,2.79,4.67,5.07,8.07,6.85,3.4,1.77,8.07,2.66,14.01,2.66,5.58,0,10.26-.89,14.04-2.66,3.78-1.77,6.76-4.11,8.94-7,2.08-2.74,3.55-5.6,4.41-8.59.86-2.99,1.29-6.01,1.29-9.05V30.43c0-5.63-.41-10.23-1.22-13.8-.81-3.58-2.01-5.92-3.58-7.04-1.78-1.27-4.2-2.26-7.27-2.97-3.07-.71-5.42-1.11-7.04-1.22V0h44.15v5.4Z"/><path class="cls-6" d="m787.6,108.01h-47.72v-5.4c1.72-.05,3.94-.23,6.66-.53,2.71-.3,4.58-.74,5.59-1.29,1.57-.96,2.73-2.07,3.46-3.31.74-1.24,1.1-2.8,1.1-4.68V14.23h-1.14l-36.84,92.03h-3.8l-35.09-93.93h-.99v64.47c0,6.24.39,10.99,1.18,14.23.79,3.25,1.99,5.58,3.62,7,1.12,1.07,3.43,2.08,6.93,3.04,3.5.96,5.78,1.47,6.85,1.52v5.4h-43.61v-5.4c2.28-.2,4.68-.58,7.19-1.14,2.51-.56,4.45-1.39,5.82-2.51,1.78-1.42,2.99-3.6,3.65-6.55.66-2.94.99-7.86.99-14.77V22.38c0-3.2-.38-5.81-1.14-7.84-.76-2.03-1.85-3.68-3.27-4.95-1.57-1.37-3.5-2.38-5.78-3.04-2.28-.66-4.54-1.04-6.77-1.14V0h36.83l30.94,81.07,26.41-67.82c.96-2.49,1.79-5.09,2.47-7.81.68-2.72,1.05-4.53,1.1-5.45h35.22v5.4c-1.42.05-3.23.28-5.44.69-2.21.41-3.82.79-4.83,1.14-1.73.61-2.89,1.62-3.5,3.04-.61,1.42-.91,2.97-.91,4.64v77.87c0,1.78.3,3.27.91,4.49s1.77,2.28,3.5,3.2c.91.51,2.54.98,4.87,1.41,2.33.43,4.19.67,5.56.72v5.4Z"/><path class="cls-6" d="m1081.09,5.4c-1.42.05-3.6.46-6.55,1.22-2.94.76-5.05,1.55-6.32,2.36-1.83,1.27-3.06,3.7-3.69,7.31-.64,3.6-.95,8.17-.95,13.7v79.09h-6.62l-65.46-88.37v55.72c0,6.24.39,11.04,1.18,14.39.79,3.35,1.99,5.73,3.62,7.15,1.17,1.12,3.58,2.16,7.23,3.12,3.65.96,6.06,1.47,7.23,1.52v5.4h-44.3v-5.4c1.37-.1,3.68-.6,6.93-1.48,3.25-.89,5.28-1.69,6.09-2.4,1.78-1.42,2.99-3.59,3.65-6.51.66-2.92.99-7.9.99-14.96V24.05c0-2.33-.41-4.67-1.22-7-.81-2.33-1.9-4.14-3.27-5.4-1.83-1.67-4.3-3.11-7.42-4.3-3.12-1.19-5.65-1.84-7.57-1.94V0h30.86l60.71,82.34V30.97c0-6.29-.41-11.12-1.22-14.5-.81-3.37-1.98-5.62-3.5-6.74-1.42-.96-3.74-1.9-6.96-2.82-3.22-.91-5.67-1.42-7.35-1.52V0h43.92v5.4Z"/></g><path d="m824.39,2.2h43.81v5.27c-3.86.25-7.07.74-9.62,1.49-2.55.74-3.82,1.66-3.82,2.75,0,.45.05.99.15,1.63.1.64.25,1.21.44,1.71l8.73,23.62h36.99c1.39-3.47,2.52-6.49,3.38-9.06.87-2.58,1.65-4.95,2.34-7.13.65-2.13,1.09-3.86,1.34-5.2.25-1.34.37-2.43.37-3.27,0-1.98-1.56-3.52-4.68-4.6-3.12-1.09-6.64-1.73-10.55-1.93V2.2h39.69v5.27c-1.29.1-2.9.38-4.83.85-1.93.47-3.51,1.1-4.75,1.89-1.98,1.34-3.51,2.74-4.6,4.2-1.09,1.46-2.15,3.48-3.19,6.05-5.3,13.22-11.14,28.07-17.53,44.56-6.39,16.49-12.08,31.17-17.08,44.04h-5.94l-35.13-90.91c-.74-1.93-1.58-3.49-2.53-4.68-.94-1.19-2.25-2.35-3.94-3.49-1.14-.69-2.62-1.28-4.46-1.75-1.83-.47-3.37-.73-4.6-.78V2.2Zm42.4,43.08l15.96,40.9,15.73-40.9h-31.7Z"/></g></svg>