<svg xmlns="http://www.w3.org/2000/svg" width="159.491" height="154.324" viewBox="0 0 159.491 154.324">
  <defs>
    <style>
      .cls-1, .cls-2 {
        fill: #003e85;
      }

      .cls-1 {
        stroke: #1f8c87;
        stroke-miterlimit: 10;
        stroke-width: 3px;
      }
    </style>
  </defs>
  <g id="leftButton" transform="translate(2.725 4.324)">
    <g id="Group_9" data-name="Group 9">
      <path id="Path_33" data-name="Path 33" class="cls-1" d="M9.331,76.051C19.8,63.611,30.9,51.4,41.681,39.075,49.622,30,57.4,20.862,64.631,11.54c.081,7.715,1.309,15.428,2.538,23.092q2.452,15.306,5.869,30.54,1.706,7.581,3.671,15.135c1.27,4.887,2.942,9.763,3.845,14.68.028.153.063.306.093.457-8.488-2.1-16.974-4.2-25.546-6.173C40.353,85.878,25.522,82.616,10.724,79.3L7.26,78.526c.69-.827,1.374-1.653,2.069-2.477Z" transform="translate(-7.26 -11.54)"/>
      <g id="Group_7" data-name="Group 7" transform="translate(61.46 14.09)">
        <path id="Path_34" data-name="Path 34" class="cls-2" d="M295.931,122.889c1.1.188,1.983.39,2.9.49a216.075,216.075,0,0,1,24.324,4.133c4.328.98,8.479,2.25,12.676,3.434.929.262,2,.5,2.431,1.284a41.031,41.031,0,0,1-6.492,4.214c-10.78,6.143-23.078,10.787-36.17,14.6-7.708,2.247-15.609,4.193-23.621,5.941q1.393,13.5,3.339,26.978,1.007,6.9,1.934,13.8a52.162,52.162,0,0,0,2.215,10.373c3.45-.636,6.907-1.258,10.332-1.948a211.942,211.942,0,0,0,24.287-6.487c12.813-4.2,24.724-9.217,34.737-15.9,7.16-4.778,12.765-10.132,15.964-16.354a20.049,20.049,0,0,0,2-14q-1.428-6.2-2.786-12.4c-2.624-11.887-5.266-23.774-7.843-35.668-1.131-5.219-4.323-9.863-9.2-14.037-6.113-5.231-14.179-9.008-23.393-11.852a192.2,192.2,0,0,0-34.737-6.942c-1.138-.13-2.3-.186-4.056-.323,1.3,5.992,2.5,11.6,3.726,17.2,1.217,5.54,2.468,11.074,3.694,16.614,1.24,5.6,2.326,11.216,3.733,16.839Z" transform="translate(-271.98 -72.23)"/>
        <path id="Path_35" data-name="Path 35" class="cls-2" d="M531.183,315.937c12.266,3.845,24.624,9.11,29.776,17.494a21.918,21.918,0,0,1,2.619,7.8c.156.833,2.238.748,2.08-.091a24.128,24.128,0,0,0-2.213-7.267,23.331,23.331,0,0,0-4.883-6.048c-4.114-3.754-9.626-6.763-15.655-9.245a95.782,95.782,0,0,0-9.129-3.631c-1.191-.374-3.789.615-2.6.989Z" transform="translate(-470.768 -258.531)"/>
      </g>
      <g id="Group_8" data-name="Group 8" transform="translate(62.772 74.605)">
        <path id="Path_36" data-name="Path 36" d="M665.03,402.475Z" transform="translate(-575.088 -386.309)"/>
        <path id="Path_37" data-name="Path 37" d="M300.557,351.841c12.707-3.722,24.643-8.247,35.1-14.237a52.831,52.831,0,0,0,5.177-3.218,6.263,6.263,0,0,0,1.035-.56c.051-.035.107-.072.163-.114a3.115,3.115,0,0,1,.374-.228c.06-.032.118-.065.172-.1a1.161,1.161,0,0,0,.223-.183c.063-.032.125-.063.188-.088.04.016.464-.216.536-.211.163-.065-.1.03,0,0,.309-.093.787.234.973.357-.915-.441.889.313,1.21.453-.648-.253.183.044.265.081.439.2.947.3,1.374.506l.125.063a3.8,3.8,0,0,1,.718.323c.086.044.174.088.26.135a1.082,1.082,0,0,1,.492.174l.35.132a1.248,1.248,0,0,1,.311.086c.6.255,1.18.532,1.737.824a4.372,4.372,0,0,1,1.423.569c.086.051.167.1.248.158a2.132,2.132,0,0,1,.409.153c.188.1.367.195.541.3.137.084.272.17.4.255a5.626,5.626,0,0,1,1.277.7l.109.044a1.309,1.309,0,0,1,.427.172c.151.1.295.2.443.3a.636.636,0,0,1,.06.023c.571.253.975.6,1.5.885.021.012.033.025.051.037.044.023.088.046.132.074a21.223,21.223,0,0,1,2.721,1.869c.091.06.181.121.267.183a1.1,1.1,0,0,1,.279.13l.181.153a.577.577,0,0,1,.084.118l0,0c.039.044.084.086.128.128.07.049.139.1.207.146.03.021.053.046.081.07a.322.322,0,0,1,.046.03,8.239,8.239,0,0,1,.968.787.688.688,0,0,1,.07.077,2.782,2.782,0,0,1,.785.664,6.4,6.4,0,0,1,1.175,1.291,1.937,1.937,0,0,1,.346.3c.023.028.044.058.065.086a.774.774,0,0,1,.272.353.75.75,0,0,1,.378.427c.026.026.051.051.074.077.081.091.155.183.225.279.093.13.179.262.262.395a4.119,4.119,0,0,1,.687,1,.768.768,0,0,1,.179.225c.028.058.058.114.086.172a1.057,1.057,0,0,1,.3.434,2.179,2.179,0,0,0,.128.327.505.505,0,0,1,.135.211c.016.049.03.1.046.149a.561.561,0,0,1,.088.146c.081.186.16.372.225.557a.619.619,0,0,1,.139.313.2.2,0,0,1,.012.035.728.728,0,0,1,.112.29c-.019-.116.1.156.114.183a1.161,1.161,0,0,1,.042.179.531.531,0,0,1,.1.3v.186a.308.308,0,0,1,.035.086c.026.116.049.234.067.351a.666.666,0,0,1,.03.142,1.3,1.3,0,0,1,.1.357.659.659,0,0,1,.058.123.8.8,0,0,1,.046.385,1.879,1.879,0,0,1,.072.337.782.782,0,0,1,.037.144c0,.023.007.049.009.072a.554.554,0,0,1,.074.248c0,.086.009.174.016.26a.6.6,0,0,1,.053.135,1.5,1.5,0,0,1,.088.5c0,.07.012.142.023.211,0,.039.012.079.019.121a.163.163,0,0,0,.007.028.693.693,0,0,1,.014.207,3.024,3.024,0,0,1,.072.785,1.112,1.112,0,0,1,.014.156.988.988,0,0,1-.016.142,4.928,4.928,0,0,1,.049,1.279,1.369,1.369,0,0,1,.06.3,2.337,2.337,0,0,1-.128.859,2.5,2.5,0,0,1,.032.722,12.422,12.422,0,0,1-.32,1.778.817.817,0,0,1-.13.3h0c-.007.019-.014.035-.021.051a1.091,1.091,0,0,1-.077.434,1.122,1.122,0,0,1-.139.622,1.38,1.38,0,0,1-.116.411c0,.023.007.049.012.072a.5.5,0,0,1-.216.443.672.672,0,0,1-.06.327c-.026.051-.056.1-.081.153a1.416,1.416,0,0,1-.067.309.514.514,0,0,1-.149.2,1.121,1.121,0,0,1-.074.258.37.37,0,0,1-.019.158.447.447,0,0,1-.137.281.1.1,0,0,1-.016.016.623.623,0,0,1-.051.181.508.508,0,0,1-.109.167,13.153,13.153,0,0,1-.731,1.744c-3.1,6.067-8.542,11.286-15.493,15.943-9.719,6.512-21.278,11.4-33.713,15.5a205.129,205.129,0,0,1-23.57,6.324c-3.325.673-6.68,1.279-10.027,1.9a51.035,51.035,0,0,1-2.15-10.113q-.9-6.728-1.878-13.452-1.908-13.139-3.241-26.3c7.775-1.7,15.442-3.6,22.924-5.793Z" transform="translate(-277.63 -332.88)"/>
      </g>
    </g>
  </g>
</svg>
