<svg xmlns="http://www.w3.org/2000/svg" width="152.724" height="147.85" viewBox="0 0 152.724 147.85">
  <defs>
    <style>
      .cls-1, .cls-2 {
        fill: #003e85;
      }

      .cls-1 {
        stroke: #1f8c87;
        stroke-miterlimit: 10;
        stroke-width: 3px;
      }
    </style>
  </defs>
  <g id="rightButton" transform="translate(0 4.324)">
    <g id="Group_12" data-name="Group 12">
      <path id="Path_38" data-name="Path 38" class="cls-1" d="M427.378,73.266c-10.019-11.9-20.635-23.588-30.954-35.379-7.6-8.682-15.044-17.428-21.959-26.347-.078,7.382-1.253,14.762-2.428,22.095Q369.69,48.28,366.42,62.856q-1.633,7.254-3.512,14.482c-1.215,4.676-2.814,9.341-3.678,14.046-.027.147-.06.293-.089.438,8.122-2.006,16.241-4.019,24.443-5.907,14.111-3.246,28.3-6.367,42.462-9.539l3.314-.742c-.66-.791-1.315-1.582-1.979-2.37Z" transform="translate(-279.359 -11.54)"/>
      <g id="Group_10" data-name="Group 10" transform="translate(0 13.482)">
        <path id="Path_39" data-name="Path 39" class="cls-2" d="M68.284,120.7c-1.053.18-1.9.373-2.775.469a206.753,206.753,0,0,0-23.275,3.954c-4.141.938-8.113,2.153-12.129,3.286-.889.251-1.913.475-2.326,1.229a39.26,39.26,0,0,0,6.211,4.032c10.314,5.878,22.082,10.321,34.609,13.973,7.375,2.15,14.935,4.012,22.6,5.685q-1.333,12.916-3.195,25.814-.963,6.6-1.851,13.2a49.9,49.9,0,0,1-2.119,9.926c-3.3-.609-6.609-1.2-9.886-1.864A202.813,202.813,0,0,1,50.912,194.2c-12.26-4.023-23.657-8.819-33.238-15.211C10.823,174.421,5.46,169.3,2.4,163.345a19.184,19.184,0,0,1-1.917-13.4q1.366-5.928,2.666-11.863c2.51-11.374,5.038-22.748,7.5-34.129,1.082-4.994,4.136-9.437,8.8-13.431C25.3,85.517,33.022,81.9,41.839,79.181a183.92,183.92,0,0,1,33.238-6.642c1.089-.124,2.2-.178,3.881-.309-1.24,5.734-2.388,11.1-3.565,16.461-1.164,5.3-2.361,10.6-3.534,15.9-1.186,5.358-2.226,10.732-3.572,16.113Z" transform="translate(-0.008 -72.23)"/>
        <path id="Path_40" data-name="Path 40" class="cls-2" d="M35.238,317.591c-11.736,3.679-23.561,8.717-28.491,16.739a20.971,20.971,0,0,0-2.506,7.46c-.149.8-2.142.715-1.99-.087a23.083,23.083,0,0,1,2.117-6.953,22.317,22.317,0,0,1,4.672-5.787c3.936-3.592,9.21-6.471,14.98-8.846a91.621,91.621,0,0,1,8.735-3.475c1.14-.357,3.625.589,2.486.947Z" transform="translate(-1.747 -262.284)"/>
      </g>
      <g id="Group_11" data-name="Group 11" transform="translate(1.263 71.385)">
        <path id="Path_41" data-name="Path 41" d="M17.46,402.475Z" transform="translate(-14.846 -387.007)"/>
        <path id="Path_42" data-name="Path 42" d="M72.43,351.023c-12.158-3.561-23.579-7.891-33.587-13.622a50.458,50.458,0,0,1-4.954-3.079,5.953,5.953,0,0,1-.991-.535c-.049-.033-.1-.069-.155-.109a3.056,3.056,0,0,0-.358-.218c-.058-.031-.113-.062-.164-.1a1.114,1.114,0,0,1-.213-.175c-.06-.031-.12-.06-.18-.084-.038.015-.444-.207-.513-.2-.156-.062.1.029,0,0-.3-.089-.753.224-.931.342.875-.422-.851.3-1.157.433.62-.242-.175.042-.253.078-.42.189-.906.291-1.315.484l-.12.06a3.627,3.627,0,0,0-.686.309c-.082.042-.167.084-.249.129a1.036,1.036,0,0,0-.471.167l-.335.127a1.184,1.184,0,0,0-.3.082c-.573.244-1.129.509-1.662.789a4.187,4.187,0,0,0-1.362.544c-.082.049-.16.1-.238.151a2.058,2.058,0,0,0-.391.146c-.18.091-.351.187-.518.287-.131.08-.26.162-.384.245a5.366,5.366,0,0,0-1.222.667l-.1.042a1.258,1.258,0,0,0-.409.164c-.144.094-.282.191-.424.285a.561.561,0,0,0-.058.022c-.546.242-.933.578-1.437.846-.02.011-.031.024-.049.036-.042.022-.084.044-.127.071a20.313,20.313,0,0,0-2.6,1.789c-.087.058-.173.115-.255.175a1.06,1.06,0,0,0-.267.124l-.173.147a.548.548,0,0,0-.08.113l0,0c-.038.042-.08.082-.122.122-.067.047-.133.093-.2.14-.029.02-.051.044-.078.067a.327.327,0,0,0-.044.029,7.954,7.954,0,0,0-.926.753.643.643,0,0,0-.067.073,2.656,2.656,0,0,0-.751.635,6.121,6.121,0,0,0-1.124,1.235,1.845,1.845,0,0,0-.331.291c-.022.027-.042.056-.062.082a.741.741,0,0,0-.26.337.718.718,0,0,0-.362.409c-.024.025-.049.049-.071.073-.078.087-.149.176-.215.267-.089.125-.171.251-.251.378a3.942,3.942,0,0,0-.658.953.727.727,0,0,0-.171.215c-.027.056-.056.109-.082.165a1.008,1.008,0,0,0-.284.415,2.089,2.089,0,0,1-.122.313.484.484,0,0,0-.129.2c-.016.046-.029.093-.044.142a.534.534,0,0,0-.084.14c-.078.178-.153.356-.215.533a.593.593,0,0,0-.133.3.2.2,0,0,0-.011.033.7.7,0,0,0-.107.278c.018-.111-.1.149-.109.176a1.112,1.112,0,0,0-.04.171.507.507,0,0,0-.091.284v.178a.3.3,0,0,0-.033.083c-.024.111-.047.224-.064.335a.64.64,0,0,0-.029.135,1.244,1.244,0,0,0-.1.342.623.623,0,0,0-.056.118.768.768,0,0,0-.044.369,1.817,1.817,0,0,0-.069.322.733.733,0,0,0-.036.138c0,.022-.007.047-.009.069a.529.529,0,0,0-.071.238c0,.082-.009.167-.016.249a.575.575,0,0,0-.051.129,1.435,1.435,0,0,0-.084.479c0,.067-.011.136-.022.2,0,.038-.011.076-.018.116a.147.147,0,0,1-.007.026.661.661,0,0,0-.013.2,2.9,2.9,0,0,0-.069.751,1.088,1.088,0,0,0-.013.149.935.935,0,0,0,.016.135,4.711,4.711,0,0,0-.047,1.224,1.316,1.316,0,0,0-.058.287,2.231,2.231,0,0,0,.122.822,2.39,2.39,0,0,0-.031.691,11.881,11.881,0,0,0,.307,1.7.783.783,0,0,0,.124.291h0c.007.018.013.033.02.049a1.046,1.046,0,0,0,.073.415,1.075,1.075,0,0,0,.133.6,1.323,1.323,0,0,0,.111.393c0,.022-.007.046-.011.069a.478.478,0,0,0,.207.425.641.641,0,0,0,.058.313c.024.049.053.1.078.146a1.354,1.354,0,0,0,.064.3.492.492,0,0,0,.142.193,1.075,1.075,0,0,0,.071.247.354.354,0,0,0,.018.151.428.428,0,0,0,.131.269.117.117,0,0,0,.016.016.6.6,0,0,0,.049.173.489.489,0,0,0,.1.16,12.616,12.616,0,0,0,.7,1.668c2.97,5.8,8.173,10.8,14.824,15.255,9.3,6.231,20.36,10.908,32.258,14.829a196.275,196.275,0,0,0,22.553,6.051c3.181.644,6.391,1.224,9.595,1.817a48.817,48.817,0,0,0,2.057-9.677q.856-6.438,1.8-12.871,1.826-12.572,3.1-25.165c-7.44-1.631-14.775-3.446-21.935-5.543Z" transform="translate(-5.692 -332.88)"/>
      </g>
    </g>
  </g>
</svg>
